<svg width="61" height="60" viewBox="0 0 61 60" fill="none" xmlns="http://www.w3.org/2000/svg">
<path d="M35.6778 49.2632H8.28015C7.70884 49.2626 7.16109 49.0354 6.75707 48.6315C6.35305 48.2275 6.12574 47.6798 6.125 47.1085V21.2719H35.675C35.9213 21.2684 36.1564 21.1681 36.3294 20.9927C36.5024 20.8172 36.5993 20.5808 36.5993 20.3344C36.5993 20.088 36.5024 19.8516 36.3294 19.6761C36.1564 19.5007 35.9213 19.4004 35.675 19.3969H6.125V14.9914C6.12565 14.42 6.35291 13.8722 6.75694 13.4682C7.16097 13.0641 7.70877 12.8369 8.28015 12.8362H11.8914V14.4617C11.8924 15.2745 12.2157 16.0536 12.7905 16.6282C13.3652 17.2029 14.1444 17.5261 14.9571 17.5269H15.9216C16.1702 17.5269 16.4087 17.4282 16.5845 17.2523C16.7603 17.0765 16.8591 16.8381 16.8591 16.5894C16.8591 16.3408 16.7603 16.1023 16.5845 15.9265C16.4087 15.7507 16.1702 15.6519 15.9216 15.6519H14.9571C14.6415 15.6516 14.3389 15.5262 14.1157 15.303C13.8925 15.0799 13.7669 14.7774 13.7665 14.4617V9.46846C13.7669 9.1528 13.8924 8.85019 14.1156 8.62699C14.3388 8.40379 14.6414 8.27822 14.9571 8.27783H15.9216C16.2372 8.27824 16.5398 8.40382 16.7629 8.62703C16.986 8.85024 17.1115 9.15285 17.1118 9.46846V10.9612H15.9312C15.685 10.9649 15.4501 11.0653 15.2773 11.2407C15.1044 11.4161 15.0076 11.6525 15.0076 11.8987C15.0076 12.145 15.1045 12.3814 15.2773 12.5568C15.4502 12.7322 15.6851 12.8326 15.9313 12.8362H26.8434V14.4617C26.8444 15.2745 27.1677 16.0536 27.7424 16.6282C28.3171 17.2029 29.0963 17.5261 29.909 17.5269H30.8736C31.1199 17.5234 31.355 17.4231 31.5279 17.2477C31.7009 17.0723 31.7979 16.8358 31.7979 16.5894C31.7979 16.3431 31.7009 16.1066 31.5279 15.9312C31.355 15.7557 31.1199 15.6554 30.8736 15.6519H29.909C29.5934 15.6516 29.2908 15.5262 29.0676 15.303C28.8444 15.0799 28.7188 14.7774 28.7184 14.4617V9.46846C28.7188 9.1528 28.8444 8.85019 29.0676 8.62699C29.2908 8.40379 29.5934 8.27822 29.909 8.27783H30.8735C31.1892 8.27822 31.4918 8.40379 31.715 8.62699C31.9382 8.85019 32.0638 9.1528 32.0642 9.46846V10.9612H30.9967C30.7503 10.9647 30.5153 11.065 30.3423 11.2404C30.1693 11.4159 30.0723 11.6524 30.0723 11.8987C30.0723 12.1451 30.1693 12.3816 30.3423 12.557C30.5153 12.7324 30.7503 12.8327 30.9967 12.8362H41.7953V14.4617C41.7963 15.2745 42.1196 16.0536 42.6943 16.6282C43.269 17.2029 44.0482 17.5261 44.8609 17.5269H45.8255C46.0741 17.5269 46.3125 17.4282 46.4884 17.2523C46.6642 17.0765 46.763 16.8381 46.763 16.5894C46.763 16.3408 46.6642 16.1023 46.4884 15.9265C46.3125 15.7507 46.0741 15.6519 45.8255 15.6519H44.861C44.5453 15.6516 44.2427 15.5262 44.0195 15.303C43.7963 15.0799 43.6707 14.7774 43.6703 14.4617V9.46846C43.6707 9.1528 43.7963 8.85019 44.0195 8.62699C44.2427 8.40379 44.5453 8.27822 44.861 8.27783H45.8255C46.1411 8.27822 46.4437 8.40379 46.6669 8.62699C46.8901 8.85019 47.0157 9.1528 47.0161 9.46846V10.9612H45.977C45.7306 10.9647 45.4956 11.065 45.3226 11.2404C45.1496 11.4159 45.0526 11.6524 45.0526 11.8987C45.0526 12.1451 45.1496 12.3816 45.3226 12.557C45.4956 12.7324 45.7306 12.8327 45.977 12.8362H52.5024C53.0737 12.8369 53.6215 13.0641 54.0256 13.4682C54.4296 13.8722 54.6569 14.42 54.6575 14.9914V19.3969H39.425C39.1787 19.4004 38.9436 19.5007 38.7706 19.6761C38.5976 19.8516 38.5007 20.088 38.5007 20.3344C38.5007 20.5808 38.5976 20.8172 38.7706 20.9927C38.9436 21.1681 39.1787 21.2684 39.425 21.2719H54.6575V33.1019C54.6575 33.3505 54.7563 33.589 54.9321 33.7648C55.1079 33.9406 55.3464 34.0394 55.595 34.0394C55.8436 34.0394 56.0821 33.9406 56.2579 33.7648C56.4337 33.589 56.5325 33.3505 56.5325 33.1019C56.5335 29.355 56.5318 18.5608 56.5325 14.9914C56.5314 13.9229 56.1064 12.8984 55.3508 12.1429C54.5953 11.3873 53.5709 10.9624 52.5023 10.9612H48.8911V9.46846C48.8902 8.65567 48.5669 7.87643 47.9922 7.30171C47.4175 6.72698 46.6383 6.40372 45.8255 6.40283H44.861C44.0482 6.40372 43.2689 6.72698 42.6942 7.30171C42.1195 7.87643 41.7962 8.65567 41.7953 9.46846V10.9612H33.9392V9.46846C33.9383 8.65567 33.615 7.87643 33.0403 7.30171C32.4656 6.72698 31.6863 6.40372 30.8736 6.40283H29.909C29.0962 6.40372 28.317 6.72698 27.7423 7.30171C27.1676 7.87643 26.8443 8.65567 26.8434 9.46846V10.9612H18.9868V9.46846C18.9859 8.65574 18.6627 7.87655 18.0881 7.30184C17.5135 6.72712 16.7343 6.40381 15.9216 6.40283H14.9571C14.1443 6.40372 13.3651 6.72698 12.7903 7.30171C12.2156 7.87643 11.8924 8.65567 11.8915 9.46846V10.9612H8.28022C7.21169 10.9623 6.18725 11.3873 5.43168 12.1429C4.67611 12.8984 4.25114 13.9228 4.25 14.9914V47.1085C4.25123 48.177 4.67625 49.2013 5.43179 49.9567C6.18734 50.7122 7.21171 51.1371 8.28015 51.1382H35.6778C35.9235 51.1337 36.1575 51.0329 36.3296 50.8576C36.5017 50.6823 36.5982 50.4464 36.5982 50.2007C36.5982 49.955 36.5017 49.7192 36.3296 49.5438C36.1575 49.3685 35.9235 49.2678 35.6778 49.2632Z" fill="#173366"/>
<path d="M46.515 33.1294C43.8018 33.1325 41.2006 34.2117 39.2821 36.1302C37.3635 38.0487 36.2843 40.6499 36.2812 43.3631C36.8433 56.9405 56.1893 56.9361 56.7492 43.3631C56.7461 40.6498 55.6668 38.0486 53.7482 36.13C51.8296 34.2115 49.2283 33.1324 46.515 33.1294ZM46.515 51.7224C44.2988 51.7198 42.1742 50.8383 40.6071 49.2712C39.0401 47.7041 38.1587 45.5793 38.1563 43.3632C38.6152 32.2739 54.4169 32.2775 54.8742 43.3632C54.8717 45.5795 53.9901 47.7042 52.423 49.2713C50.8559 50.8383 48.7312 51.7198 46.515 51.7224Z" fill="#173366"/>
<path d="M50.1113 40.118L45.9085 44.648L43.4201 42.3565C43.2372 42.1881 42.9948 42.0993 42.7464 42.1096C42.4979 42.1199 42.2638 42.2284 42.0954 42.4114C41.927 42.5944 41.8382 42.8367 41.8485 43.0852C41.8588 43.3336 41.9673 43.5678 42.1503 43.7362L45.3258 46.6604C45.5083 46.8283 45.7499 46.9171 45.9976 46.9073C46.2454 46.8975 46.4792 46.79 46.6479 46.6082L51.4855 41.3933C51.6492 41.2102 51.7344 40.9702 51.7229 40.7248C51.7114 40.4795 51.6042 40.2485 51.4241 40.0814C51.2441 39.9143 51.0057 39.8246 50.7602 39.8314C50.5147 39.8383 50.2817 39.9412 50.1113 40.118Z" fill="#173366"/>
<path d="M18.0495 24.0642H10.8242C10.5756 24.0642 10.3371 24.163 10.1613 24.3388C9.98549 24.5146 9.88672 24.7531 9.88672 25.0017C9.88672 25.2503 9.98549 25.4888 10.1613 25.6646C10.3371 25.8404 10.5756 25.9392 10.8242 25.9392H18.0495C18.2958 25.9356 18.5307 25.8352 18.7035 25.6598C18.8763 25.4843 18.9732 25.248 18.9732 25.0017C18.9732 24.7554 18.8763 24.5191 18.7035 24.3437C18.5307 24.1682 18.2958 24.0679 18.0495 24.0642Z" fill="#173366"/>
<path d="M18.0495 27.8948H10.8242C10.5756 27.8948 10.3371 27.9935 10.1613 28.1694C9.98549 28.3452 9.88672 28.5836 9.88672 28.8323C9.88672 29.0809 9.98549 29.3194 10.1613 29.4952C10.3371 29.671 10.5756 29.7698 10.8242 29.7698H18.0495C18.2958 29.7661 18.5307 29.6657 18.7035 29.4903C18.8763 29.3149 18.9732 29.0785 18.9732 28.8323C18.9732 28.586 18.8763 28.3496 18.7035 28.1742C18.5307 27.9988 18.2958 27.8984 18.0495 27.8948Z" fill="#173366"/>
</svg>
