<svg width="61" height="60" viewBox="0 0 61 60" fill="none" xmlns="http://www.w3.org/2000/svg">
<mask id="mask0_32_15807" style="mask-type:luminance" maskUnits="userSpaceOnUse" x="0" y="-1" width="61" height="61">
<path d="M0.507812 -0.000972748H60.5078V59.999H0.507812V-0.000972748Z" fill="white"/>
</mask>
<g mask="url(#mask0_32_15807)">
<path d="M32.8007 18.4868C34.4191 18.4868 35.7304 20.1661 35.7304 22.2368C35.7304 24.3075 34.4191 25.9868 32.8007 25.9868C32.3426 25.9868 31.91 25.8521 31.5234 25.613" stroke="#173366" stroke-width="1.75781" stroke-miterlimit="10" stroke-linecap="round" stroke-linejoin="round"/>
<path d="M4.67578 18.4868C3.05859 18.4868 1.74609 20.1661 1.74609 22.2368C1.74609 24.3075 3.05859 25.9868 4.67578 25.9868C5.30754 25.9868 5.89348 25.7302 6.37266 25.2954" stroke="#173366" stroke-width="1.75781" stroke-miterlimit="10" stroke-linecap="round" stroke-linejoin="round"/>
<path d="M15.4492 39.436V36.1864" stroke="#173366" stroke-width="1.75781" stroke-miterlimit="10" stroke-linecap="round" stroke-linejoin="round"/>
<path d="M22.4805 39.436V36.1864" stroke="#173366" stroke-width="1.75781" stroke-miterlimit="10" stroke-linecap="round" stroke-linejoin="round"/>
<path d="M31.6211 20.3041V24.0307C31.6211 31.0162 25.9586 36.6787 18.973 36.6787H18.9566C11.9711 36.6787 6.30859 31.0162 6.30859 24.0307V20.3041" stroke="#173366" stroke-width="1.75781" stroke-miterlimit="10" stroke-linecap="round" stroke-linejoin="round"/>
<path d="M24.9707 41.542H25.7617C31.716 41.542 36.543 46.3689 36.543 52.3232V58.417C36.543 58.8049 36.2277 59.1201 35.8398 59.1201H2.08984C1.70195 59.1201 1.38672 58.8049 1.38672 58.417V52.3232C1.38672 46.3689 6.21367 41.542 12.168 41.542H12.959" stroke="#173366" stroke-width="1.75781" stroke-miterlimit="10" stroke-linecap="round" stroke-linejoin="round"/>
<path d="M15.3187 39.4885L13.0413 41.3859C12.9391 41.471 12.9283 41.6241 13.0174 41.7229L16.2731 45.3323C16.3777 45.4483 16.5645 45.4313 16.6466 45.2984L18.9637 41.5419L15.5914 39.4689C15.5057 39.4162 15.3959 39.4242 15.3187 39.4885Z" stroke="#173366" stroke-width="1.75781" stroke-miterlimit="10" stroke-linecap="round" stroke-linejoin="round"/>
<path d="M22.6098 39.4887L24.8873 41.3861C24.9895 41.4712 25.0002 41.6244 24.9112 41.7232L21.6555 45.3325C21.5508 45.4485 21.364 45.4316 21.282 45.2987L18.9648 41.5421L22.3371 39.4692C22.4228 39.4164 22.5326 39.4244 22.6098 39.4887Z" stroke="#173366" stroke-width="1.75781" stroke-miterlimit="10" stroke-linecap="round" stroke-linejoin="round"/>
<path d="M25.9982 8.22555C25.5958 7.85934 24.9539 8.08152 24.8505 8.61578C24.4945 10.453 22.7939 13.5306 15.2335 12.4267C10.6361 11.7555 6.3066 16.5767 6.3066 20.3037C6.3066 20.3037 6.00953 19.1548 4.67325 18.4866C4.67325 18.4866 3.22622 13.4036 4.2004 9.01012C5.09735 4.96598 10.4099 0.878008 18.4898 0.878008C22.6977 0.878008 24.4427 1.91805 25.1002 2.52027C25.3772 2.77399 25.7272 2.93465 26.1019 2.96324C27.8379 3.09578 32.5391 3.90648 33.5548 8.77621C34.3961 12.81 33.1408 15.1693 32.7982 18.4866C32.0603 19.0393 31.6191 20.3037 31.6191 20.3037C31.6191 20.3037 29.3789 16.026 28.8568 12.8473C28.5271 10.8413 27.046 9.17898 25.9982 8.22555Z" stroke="#173366" stroke-width="1.75781" stroke-miterlimit="10" stroke-linecap="round" stroke-linejoin="round"/>
<path d="M59.6289 2.75059V36.0365C59.6289 37.0708 58.7908 37.9092 57.7567 37.9092H41.8394C40.8056 37.9092 39.9675 37.0708 39.9675 36.0365V32.69C39.9675 32.4509 39.757 32.2665 39.52 32.2979L34.0763 33.0192C33.8799 33.0452 33.7678 32.8017 33.9152 32.6693L39.7093 27.4659C39.8735 27.3184 39.9675 27.1079 39.9675 26.887V2.75059C39.9675 1.71629 40.8056 0.877934 41.8394 0.877934H57.7567C58.7908 0.877934 59.6289 1.71629 59.6289 2.75059Z" stroke="#173366" stroke-width="1.75781" stroke-miterlimit="10" stroke-linecap="round" stroke-linejoin="round"/>
<path d="M48.0234 6.13965H55.3891" stroke="#173366" stroke-width="1.75781" stroke-miterlimit="10" stroke-linecap="round" stroke-linejoin="round"/>
<path d="M44.8438 10.2412H55.3906" stroke="#173366" stroke-width="1.75781" stroke-miterlimit="10" stroke-linecap="round" stroke-linejoin="round"/>
<path d="M44.8438 14.3425H55.3906" stroke="#173366" stroke-width="1.75781" stroke-miterlimit="10" stroke-linecap="round" stroke-linejoin="round"/>
<path d="M54.5043 32.9683H45.4177C44.432 32.9683 43.6328 32.1692 43.6328 31.1834V20.2996C43.6328 19.3138 44.432 18.5147 45.4177 18.5147H54.5043C55.49 18.5147 56.2891 19.3138 56.2891 20.2996V31.1834C56.2891 32.1692 55.49 32.9683 54.5043 32.9683Z" stroke="#173366" stroke-width="1.75781" stroke-miterlimit="10" stroke-linecap="round" stroke-linejoin="round"/>
<path d="M49.9609 21.5044V26.4082" stroke="#173366" stroke-width="1.75781" stroke-miterlimit="10" stroke-linecap="round" stroke-linejoin="round"/>
<path d="M49.9609 28.9082V29.4131" stroke="#173366" stroke-width="1.75781" stroke-miterlimit="10" stroke-linecap="round" stroke-linejoin="round"/>
<path d="M20.8398 51.4258C20.8398 52.461 20.0004 53.3008 18.9648 53.3008C17.9298 53.3008 17.0898 52.4618 17.0898 51.4258C17.0898 50.3903 17.9294 49.5508 18.9648 49.5508C20.0003 49.5508 20.8398 50.3903 20.8398 51.4258Z" stroke="#173366" stroke-width="1.75781" stroke-miterlimit="10" stroke-linecap="round" stroke-linejoin="round"/>
</g>
</svg>
