<svg width="64" height="61" viewBox="0 0 64 61" fill="none" xmlns="http://www.w3.org/2000/svg">
<path d="M54.1999 54.9252C50.6885 57.7114 46.2464 59.3755 41.4158 59.3755C30.0478 59.3755 20.832 50.1597 20.832 38.7918C20.832 27.4238 39.6333 2.00005 41.4158 2.00005C43.1982 2.00005 61.9995 27.4238 61.9995 38.7918C61.9995 41.6561 61.4142 44.384 60.3569 46.8621" stroke="#173366" stroke-width="2.19939" stroke-miterlimit="10" stroke-linecap="round" stroke-linejoin="round"/>
<path d="M52.0032 34.202H45.7173C45.5196 34.202 45.3592 34.042 45.3592 33.844V27.5581C45.3592 27.3608 45.1992 27.2004 45.0015 27.2004H37.8284C37.6307 27.2004 37.4707 27.3608 37.4707 27.5581V33.844C37.4707 34.042 37.3103 34.202 37.1127 34.202H30.8268C30.6291 34.202 30.4688 34.3621 30.4688 34.56V41.7329C30.4688 41.9305 30.6291 42.0909 30.8268 42.0909H37.1127C37.3103 42.0909 37.4707 42.2513 37.4707 42.4489V48.7345C37.4707 48.9322 37.6307 49.0925 37.8284 49.0925H45.0015C45.1992 49.0925 45.3592 48.9322 45.3592 48.7345V42.4489C45.3592 42.2513 45.5196 42.0909 45.7173 42.0909H52.0032C52.2008 42.0909 52.3612 41.9305 52.3612 41.7329V34.56C52.3612 34.3621 52.2008 34.202 52.0032 34.202Z" stroke="#173366" stroke-width="2.19939" stroke-miterlimit="10" stroke-linecap="round" stroke-linejoin="round"/>
<path d="M3.86759 29.3038C2.7357 31.8648 2 34.2501 2 36.0854C2 43.6577 8.13846 49.7961 15.7107 49.7961C18.3419 49.7961 20.7998 49.0549 22.8877 47.7697" stroke="#173366" stroke-width="2.19939" stroke-miterlimit="10" stroke-linecap="round" stroke-linejoin="round"/>
<path d="M25.3798 24.9663C21.6082 18.1694 16.4553 11.5783 15.7146 11.5783C15.1481 11.5783 11.9986 15.4366 8.86133 20.2931" stroke="#173366" stroke-width="2.19939" stroke-miterlimit="10" stroke-linecap="round" stroke-linejoin="round"/>
</svg>
