<svg width="61" height="60" viewBox="0 0 61 60" fill="none" xmlns="http://www.w3.org/2000/svg">
<path d="M43.9953 0.000344372C35.6479 0.0590889 28.795 6.8977 28.7194 15.2448C28.6777 19.8446 30.6335 24.1207 34.1099 27.0866C33.8754 27.7035 33.5811 28.2963 33.231 28.8558C32.2003 30.5029 33.2659 32.6642 35.1998 32.8541C35.746 32.9084 36.2384 32.509 36.2927 31.9567C36.3467 31.4072 35.945 30.9178 35.3953 30.8638C34.9379 30.819 34.6832 30.3049 34.9263 29.9164C35.4863 29.0214 35.9275 28.055 36.2372 27.0446C36.3589 26.6476 36.2228 26.2169 35.8951 25.962C32.5674 23.3742 30.6808 19.4744 30.7192 15.2627C30.785 8.00072 36.7472 2.05115 44.0096 2.00003C51.5008 1.95454 57.4938 7.99759 57.4938 15.3873C57.4938 26.6281 48.3668 29.7603 42.9262 30.627C42.3809 30.7138 42.0092 31.2264 42.096 31.7717C42.1828 32.3169 42.6941 32.6882 43.2408 32.6019C53.042 31.0406 59.4935 25.2612 59.4935 15.3874C59.4935 6.90695 52.6118 -0.0564003 43.9953 0.000344372Z" fill="#173366"/>
<path d="M44.6203 8.37402H43.6204C41.9664 8.37402 40.6207 9.71977 40.6207 11.3737V12.9986H38.9958C37.3418 12.9986 35.9961 14.3443 35.9961 15.9983V16.9982C35.9961 18.6522 37.3418 19.9979 38.9958 19.9979H40.6207V21.6228C40.6207 23.2768 41.9664 24.6225 43.6204 24.6225H44.6203C46.2743 24.6225 47.62 23.2768 47.62 21.6228V19.9979H49.2449C50.8988 19.9979 52.2446 18.6522 52.2446 16.9982V15.9983C52.2446 14.3443 50.8988 12.9986 49.2449 12.9986H47.62V11.3737C47.62 9.71965 46.2744 8.37402 44.6203 8.37402ZM49.2449 14.9984C49.7962 14.9984 50.2448 15.447 50.2448 15.9983V16.9982C50.2448 17.5495 49.7962 17.9981 49.2449 17.9981H46.6201C46.0679 17.9981 45.6202 18.4458 45.6202 18.998V21.6228C45.6202 22.1741 45.1716 22.6227 44.6203 22.6227H43.6204C43.0691 22.6227 42.6205 22.1741 42.6205 21.6228V18.998C42.6205 18.4458 42.1728 17.9981 41.6206 17.9981H38.9958C38.4445 17.9981 37.9959 17.5495 37.9959 16.9982V15.9983C37.9959 15.447 38.4445 14.9984 38.9958 14.9984H41.6206C42.1728 14.9984 42.6205 14.5507 42.6205 13.9985V11.3737C42.6205 10.8224 43.0691 10.3738 43.6204 10.3738H44.6203C45.1716 10.3738 45.6202 10.8224 45.6202 11.3737V13.9985C45.6202 14.5507 46.0679 14.9984 46.6201 14.9984H49.2449Z" fill="#173366"/>
<path d="M43.4766 39.0882C41.6219 38.028 39.2625 38.352 37.7388 39.8755C37.3776 40.2373 35.3624 43.9909 30.3432 42.1184C25.036 40.1384 20.3299 32.9936 24.1037 28.8247C24.8134 28.0517 25.2893 27.8328 25.4856 27.6371C27.0137 26.1089 27.3404 23.7463 26.2801 21.8918C24.5285 18.8272 21.9798 16.2793 18.9092 14.5231C17.0876 13.4813 14.733 13.8066 13.1831 15.3134C1.09811 27.039 11.3554 46.4601 25.6861 54.2421C22.627 58.187 17.304 58.8333 13.6394 57.0688C14.7816 55.9701 15.5051 54.5647 15.5841 53.0863C15.6817 51.2263 15.0032 49.7334 13.7223 48.9903C11.2987 47.585 7.91597 49.4422 8.27369 53.0476C8.4178 54.497 9.06599 55.8322 10.099 56.9374C9.85167 57.0248 9.59607 57.0978 9.33422 57.1543C8.1472 57.4103 5.19248 57.6319 3.39565 54.1664C3.14142 53.676 2.53773 53.4851 2.04765 53.7389C1.55744 53.9931 1.36609 54.5966 1.62019 55.0869C3.30716 58.3406 6.34812 59.8438 9.75605 59.1091C10.4979 58.9492 11.1988 58.6919 11.84 58.3571C12.7776 58.9417 13.8675 59.393 15.0718 59.6745C19.8579 60.7931 25.1209 59.025 28.0035 54.4091C28.3156 53.9096 28.13 53.2476 27.6009 52.9843C13.807 46.1195 3.38402 27.6077 14.5765 16.748C15.4914 15.8583 16.8648 15.6575 17.9164 16.259C20.6777 17.8383 22.9694 20.1292 24.544 22.8843C25.1444 23.9342 24.9718 25.2704 24.1296 26.1631C23.9348 26.2995 23.7491 26.4415 23.5704 26.5874C21.7406 23.7745 19.4941 21.2831 16.8774 19.1709C16.4477 18.8238 15.8181 18.891 15.4714 19.3209C15.1245 19.7506 15.1917 20.3802 15.6214 20.7269C18.1956 22.8049 20.3884 25.2738 22.1479 28.0727C15.8656 36.6138 32.1387 51.3129 39.2045 41.2393C40.0928 40.3949 41.431 40.2223 42.4844 40.8244C45.2394 42.3992 47.5303 44.6911 49.1094 47.452C49.7109 48.5038 49.5099 49.8771 48.6208 50.7917C48.4742 50.9424 48.3267 51.0883 48.1786 51.2303C46.536 48.687 44.5397 46.3902 42.231 44.3917C41.8135 44.0299 41.182 44.0757 40.8206 44.4931C40.459 44.9107 40.5047 45.5422 40.9221 45.9035C43.1542 47.8358 45.0737 50.0651 46.64 52.5379C42.0873 55.9457 37.08 55.8626 33.477 55.086C32.9369 54.97 32.4052 55.3129 32.2888 55.8528C32.1725 56.3928 32.5157 56.9246 33.0556 57.041C39.8051 58.4957 45.6534 56.7101 50.0546 52.1861C51.5621 50.6356 51.8872 48.2807 50.8455 46.4593C49.0894 43.3888 46.5414 40.8399 43.4766 39.0882ZM13.5872 52.9806C13.5291 54.068 12.8919 55.1271 11.9145 55.9237C10.9697 55.0669 10.3785 54.0044 10.2638 52.8501C10.0674 50.8723 11.7029 50.1307 12.719 50.7204C13.3366 51.0787 13.6448 51.8817 13.5872 52.9806Z" fill="#173366"/>
</svg>
