<svg width="61" height="60" viewBox="0 0 61 60" fill="none" xmlns="http://www.w3.org/2000/svg">
<path d="M40.2689 36.3001H33.5831L34.976 31.6715C35.402 30.2876 35.2681 28.7917 34.6029 27.5054C33.9378 26.2192 32.7945 25.2452 31.4189 24.793C31.0238 24.6628 30.6061 24.6155 30.1919 24.6542C29.7777 24.6929 29.376 24.8167 29.0119 25.0179C28.6478 25.2191 28.3291 25.4932 28.0759 25.8233C27.8227 26.1533 27.6403 26.5321 27.5403 26.9358L27.326 27.8358C26.5179 31.0789 24.844 34.0415 22.4831 36.4073L21.2617 37.6073C20.9513 37.2163 20.5574 36.8998 20.1087 36.681C19.66 36.4623 19.168 36.3467 18.6689 36.343H17.1046C16.2254 36.3429 15.3815 36.6892 14.7558 37.3069C14.1302 37.9245 13.773 38.7638 13.7617 39.643V53.443C13.7617 54.3296 14.1139 55.1798 14.7408 55.8067C15.3677 56.4336 16.218 56.7858 17.1046 56.7858H18.6689C19.2443 56.7845 19.8095 56.6337 20.3091 56.3482C20.8087 56.0627 21.2256 55.6523 21.5189 55.1573L21.8189 55.3073C23.7556 56.2744 25.8898 56.7805 28.0546 56.7858H35.7474C37.0192 56.792 38.2725 56.4819 39.3947 55.8834C40.5169 55.2849 41.4726 54.4168 42.176 53.3573C43.6731 51.1188 44.4712 48.4859 44.4689 45.793V40.4573C44.4689 39.9077 44.36 39.3636 44.1484 38.8564C43.9368 38.3492 43.6267 37.8891 43.2362 37.5025C42.8456 37.1159 42.3822 36.8106 41.8729 36.6042C41.3636 36.3978 40.8184 36.2945 40.2689 36.3001ZM19.7831 53.443C19.7831 53.7612 19.6567 54.0665 19.4317 54.2915C19.2066 54.5165 18.9014 54.643 18.5831 54.643H17.1046C16.7863 54.643 16.4811 54.5165 16.256 54.2915C16.031 54.0665 15.9046 53.7612 15.9046 53.443V39.643C15.9046 39.3247 16.031 39.0195 16.256 38.7944C16.4811 38.5694 16.7863 38.443 17.1046 38.443H18.6689C18.972 38.4647 19.2557 38.6006 19.4625 38.8234C19.6693 39.0461 19.7839 39.339 19.7831 39.643V53.443ZM42.2831 45.793C42.2921 48.0797 41.6208 50.3174 40.3546 52.2215C39.848 52.979 39.1626 53.6 38.3591 54.0297C37.5556 54.4595 36.6587 54.6849 35.7474 54.6858H28.0546C26.225 54.684 24.4208 54.2586 22.7831 53.443L21.926 53.0144V39.8573L23.8974 37.8858C26.5351 35.2486 28.4087 31.9458 29.3189 28.3287L29.5331 27.4501C29.5968 27.2151 29.7509 27.0148 29.9617 26.893C30.0699 26.8458 30.1866 26.8214 30.3046 26.8214C30.4226 26.8214 30.5393 26.8458 30.6474 26.893C31.0697 27.0334 31.4602 27.2557 31.7965 27.5472C32.1328 27.8386 32.4083 28.1935 32.6074 28.5916C32.8064 28.9896 32.925 29.423 32.9564 29.8669C32.9878 30.3108 32.9313 30.7566 32.7903 31.1787L30.9903 37.2001C30.9437 37.3598 30.935 37.5281 30.9647 37.6918C30.9945 37.8554 31.0619 38.0099 31.1617 38.143C31.2591 38.2786 31.388 38.3885 31.5373 38.4632C31.6867 38.5379 31.8519 38.575 32.0189 38.5715H40.1403C40.4048 38.5715 40.6667 38.6236 40.9111 38.7249C41.1555 38.8261 41.3776 38.9745 41.5646 39.1615C41.7516 39.3486 41.9 39.5706 42.0012 39.815C42.1025 40.0594 42.1546 40.3213 42.1546 40.5858L42.2831 45.793Z" fill="#173366"/>
<path d="M24.0711 15.6428L23.3854 19.6071C23.3029 20.0458 23.3479 20.499 23.515 20.9129C23.6821 21.3269 23.9643 21.6843 24.3282 21.9428C24.7311 22.2431 25.2187 22.4082 25.7211 22.4142C26.109 22.4081 26.4902 22.3128 26.8354 22.1357L30.4997 20.25L34.0782 22.1357C34.4717 22.3435 34.916 22.4356 35.3597 22.4015C35.8033 22.3674 36.2283 22.2083 36.5854 21.9428C36.9456 21.686 37.2254 21.3321 37.3923 20.9224C37.5593 20.5127 37.6064 20.064 37.5282 19.6285L36.9282 15.6428L39.7354 12.8571C40.0596 12.5505 40.2901 12.1582 40.4001 11.7257C40.5101 11.2933 40.4951 10.8385 40.3568 10.4142C40.2183 9.99044 39.9646 9.61359 39.6239 9.32594C39.2833 9.03828 38.8692 8.8512 38.4282 8.78567L34.4211 8.2071L32.6425 4.54282C32.4424 4.14614 32.1362 3.81278 31.7578 3.57987C31.3795 3.34696 30.944 3.22363 30.4997 3.22363C30.0554 3.22363 29.6198 3.34696 29.2415 3.57987C28.8631 3.81278 28.5569 4.14614 28.3568 4.54282L26.5782 8.16425L22.5711 8.74282C22.1301 8.80835 21.7161 8.99543 21.3754 9.28308C21.0348 9.57073 20.781 9.94759 20.6425 10.3714C20.4954 10.8015 20.4757 11.265 20.586 11.7061C20.6963 12.1471 20.9317 12.5468 21.264 12.8571L24.0711 15.6428ZM22.7854 10.8642L27.3497 10.2C27.5558 10.2133 27.7614 10.1655 27.9405 10.0626C28.1197 9.9597 28.2645 9.80622 28.3568 9.62139L30.4997 5.48567C30.5185 5.44464 30.5487 5.40987 30.5866 5.38549C30.6246 5.36112 30.6688 5.34816 30.714 5.34816C30.7591 5.34816 30.8033 5.36112 30.8413 5.38549C30.8792 5.40987 30.9094 5.44464 30.9282 5.48567L33.0711 9.62139C33.1481 9.77786 33.2629 9.9127 33.405 10.0137C33.5472 10.1147 33.7123 10.1787 33.8854 10.2L38.4497 10.8642C38.4941 10.8733 38.5353 10.8939 38.5692 10.924C38.603 10.9541 38.6283 10.9926 38.6425 11.0357C38.6632 11.0715 38.6741 11.1122 38.6741 11.1535C38.6741 11.1949 38.6632 11.2356 38.6425 11.2714L35.3425 14.4857C35.2177 14.6104 35.1237 14.7625 35.0679 14.9299C35.0121 15.0972 34.9961 15.2753 35.0211 15.45L35.814 19.9714C35.8285 20.017 35.8256 20.0663 35.8058 20.1099C35.786 20.1535 35.7507 20.1881 35.7068 20.2071C35.6697 20.2349 35.6246 20.25 35.5782 20.25C35.5319 20.25 35.4868 20.2349 35.4497 20.2071L31.3782 18.0642C31.2277 17.9798 31.058 17.9354 30.8854 17.9354C30.7128 17.9354 30.5431 17.9798 30.3925 18.0642L26.2997 20.2071C26.2659 20.2332 26.2245 20.2473 26.1818 20.2473C26.1392 20.2473 26.0977 20.2332 26.064 20.2071C26.02 20.1881 25.9847 20.1535 25.9649 20.1099C25.9451 20.0663 25.9422 20.017 25.9568 19.9714L26.7497 15.45C26.7747 15.2753 26.7586 15.0972 26.7029 14.9299C26.6471 14.7625 26.553 14.6104 26.4282 14.4857L23.1282 11.2714C23.1076 11.2356 23.0967 11.1949 23.0967 11.1535C23.0967 11.1122 23.1076 11.0715 23.1282 11.0357C23.0726 11.0388 23.0174 11.0238 22.971 10.9929C22.9247 10.962 22.8896 10.9168 22.8711 10.8642H22.7854Z" fill="#173366"/>
<path d="M16.2276 28.3928C16.5468 28.3987 16.8632 28.3331 17.1538 28.2009C17.4444 28.0688 17.7018 27.8733 17.9072 27.6289C18.1126 27.3845 18.2608 27.0973 18.3409 26.7883C18.421 26.4793 18.4311 26.1563 18.3704 25.8428L17.7919 22.5857L20.1919 20.25C20.4942 19.9725 20.7106 19.614 20.8151 19.2171C20.9197 18.8203 20.9081 18.4017 20.7817 18.0113C20.6553 17.6208 20.4194 17.2748 20.1021 17.0145C19.7848 16.7542 19.3995 16.5905 18.9919 16.5428L15.7133 16.0714L14.2347 13.0928C14.0374 12.7501 13.7533 12.4654 13.411 12.2675C13.0686 12.0696 12.6802 11.9653 12.2847 11.9653C11.8893 11.9653 11.5008 12.0696 11.1585 12.2675C10.8161 12.4654 10.532 12.7501 10.3347 13.0928L8.85614 16.0714L5.57757 16.5428C5.16994 16.5905 4.78457 16.7542 4.46728 17.0145C4.15 17.2748 3.91413 17.6208 3.78774 18.0113C3.66135 18.4017 3.64975 18.8203 3.75431 19.2171C3.85887 19.614 4.07519 19.9725 4.37757 20.25L6.75614 22.5857L6.17757 25.8428C6.10333 26.2466 6.14667 26.6633 6.30242 27.0432C6.45818 27.4231 6.71979 27.7502 7.05614 27.9857C7.38464 28.2258 7.77473 28.3674 8.18076 28.394C8.5868 28.4206 8.99201 28.331 9.349 28.1357L12.2847 26.5928L15.2204 28.1357C15.5299 28.3028 15.8758 28.3911 16.2276 28.3928ZM12.2847 24.3214C12.112 24.3203 11.942 24.3647 11.7919 24.45L8.299 26.2071L9.07042 22.3928C9.08235 22.2094 9.04958 22.0259 8.97493 21.8579C8.90028 21.6899 8.78599 21.5426 8.64185 21.4285L5.87757 18.6643L9.73471 18.1071C9.90524 18.0863 10.0676 18.0222 10.2064 17.921C10.3452 17.8197 10.4557 17.6846 10.5276 17.5285L12.3061 14.0357L14.0419 17.5285C14.1137 17.6846 14.2243 17.8197 14.363 17.921C14.5018 18.0222 14.6642 18.0863 14.8347 18.1071L18.6919 18.7285L15.9276 21.4285C15.8028 21.5533 15.7087 21.7053 15.653 21.8727C15.5972 22.0401 15.5811 22.2182 15.6061 22.3928L16.2276 26.25L12.7776 24.45C12.6274 24.3647 12.4574 24.3203 12.2847 24.3214Z" fill="#173366"/>
<path d="M57.1787 18.0214C57.0563 17.6336 56.826 17.2887 56.5149 17.0269C56.2038 16.765 55.8245 16.5972 55.4215 16.5428L52.143 16.0714L50.6644 13.0928C50.4671 12.7501 50.183 12.4654 49.8406 12.2675C49.4983 12.0696 49.1098 11.9653 48.7144 11.9653C48.319 11.9653 47.9305 12.0696 47.5881 12.2675C47.2458 12.4654 46.9617 12.7501 46.7644 13.0928L45.2858 16.0714L42.0073 16.5428C41.5996 16.5905 41.2143 16.7542 40.897 17.0145C40.5797 17.2748 40.3438 17.6208 40.2174 18.0113C40.091 18.4017 40.0794 18.8203 40.184 19.2171C40.2886 19.614 40.5049 19.9725 40.8073 20.25L43.1858 22.5857L42.6073 25.8428C42.533 26.2466 42.5764 26.6633 42.7321 27.0432C42.8879 27.4231 43.1495 27.7502 43.4858 27.9857C43.8143 28.2258 44.2044 28.3674 44.6104 28.394C45.0165 28.4206 45.4217 28.331 45.7787 28.1357L48.7144 26.5928L51.6501 28.1357C51.9596 28.3028 52.3055 28.3911 52.6573 28.3928C52.9764 28.3987 53.2929 28.3331 53.5835 28.2009C53.8741 28.0688 54.1315 27.8733 54.3369 27.6289C54.5423 27.3845 54.6904 27.0973 54.7706 26.7883C54.8507 26.4793 54.8608 26.1563 54.8001 25.8428L54.2215 22.5857L56.6001 20.25C56.8986 19.9721 57.1117 19.6148 57.2141 19.22C57.3166 18.8252 57.3043 18.4094 57.1787 18.0214ZM52.3573 21.4285C52.2325 21.5533 52.1384 21.7053 52.0826 21.8727C52.0269 22.0401 52.0108 22.2182 52.0358 22.3928L52.6573 26.25L49.2073 24.45C49.0567 24.3655 48.887 24.3211 48.7144 24.3211C48.5418 24.3211 48.3721 24.3655 48.2215 24.45L44.7287 26.2071L45.5001 22.3928C45.512 22.2094 45.4793 22.0259 45.4046 21.8579C45.33 21.6899 45.2157 21.5426 45.0715 21.4285L42.3073 18.6643L46.1644 18.1071C46.3349 18.0863 46.4973 18.0222 46.6361 17.921C46.7749 17.8197 46.8854 17.6846 46.9573 17.5285L48.7358 14.0357L50.4715 17.5285C50.5434 17.6846 50.6539 17.8197 50.7927 17.921C50.9315 18.0222 51.0939 18.0863 51.2644 18.1071L55.1215 18.7285L52.3573 21.4285Z" fill="#173366"/>
</svg>
