<svg width="61" height="60" viewBox="0 0 61 60" fill="none" xmlns="http://www.w3.org/2000/svg">
<path d="M14.5516 55.2361C14.7801 55.9864 15.2432 56.6436 15.8728 57.1112C16.5024 57.5788 17.2654 57.8322 18.0496 57.8341C18.405 57.8344 18.7586 57.7839 19.0996 57.6841L42.8716 50.5261L47.1496 49.9681C47.6253 49.9067 48.0843 49.7521 48.5001 49.5131C48.916 49.2742 49.2807 48.9555 49.5733 48.5754C49.8658 48.1953 50.0806 47.7613 50.2052 47.2981C50.3299 46.8349 50.362 46.3517 50.2996 45.8761L48.0436 28.6561L55.1476 17.7601L56.8996 15.1141L57.7396 13.8001C58.3292 12.8979 58.5362 11.7984 58.3151 10.7435C58.094 9.68858 57.4629 8.76473 56.5606 8.17515C55.6584 7.58557 54.5588 7.37857 53.504 7.59967C52.4491 7.82078 51.5252 8.45188 50.9356 9.35415L50.0716 10.6801L48.3436 13.3201L46.4056 16.2841L44.9596 5.27415C44.8975 4.79898 44.7424 4.3407 44.5031 3.92551C44.2638 3.51031 43.945 3.14634 43.565 2.85437C43.185 2.5624 42.7512 2.34816 42.2884 2.2239C41.8255 2.09964 41.3428 2.06778 40.8676 2.13015L15.6196 5.44815C14.7011 5.56676 13.8625 6.03139 13.2749 6.74723C12.6873 7.46306 12.395 8.37615 12.4576 9.30015L5.19763 11.4841C4.27174 11.763 3.49442 12.398 3.03652 13.2497C2.57862 14.1014 2.47759 15.1 2.75563 16.0261L14.5516 55.2361ZM51.0856 12.4141L52.9816 13.6501L54.8716 14.8861L54.1276 16.0261L50.3416 13.5541L51.0856 12.4141ZM52.4416 10.3321C52.7702 9.8293 53.2851 9.47758 53.8731 9.35437C54.461 9.23116 55.0738 9.34655 55.5766 9.67515C56.0795 10.0038 56.4312 10.5187 56.5544 11.1066C56.6776 11.6945 56.5622 12.3073 56.2336 12.8101L55.8616 13.3801L52.0996 10.9022L52.4416 10.3321ZM49.3576 15.0601L51.2536 16.2961L53.1436 17.5321L41.5936 35.2201L39.6976 33.9841L37.8076 32.7481L49.3576 15.0601ZM35.5576 39.2462L35.9176 38.0942C36.521 38.2502 37.0565 38.6001 37.4416 39.0901L36.5296 39.8821C36.4313 39.9715 36.306 40.0257 36.1735 40.0363C36.041 40.0468 35.9088 40.013 35.7976 39.9402C35.6864 39.8674 35.6024 39.7598 35.559 39.6342C35.5156 39.5086 35.5151 39.3721 35.5576 39.2462ZM38.7976 37.9081C38.1934 37.1629 37.3709 36.6258 36.4456 36.3721L37.0456 34.4101L40.3396 36.5641L38.7976 37.9081ZM14.6236 7.93815C14.7721 7.74514 14.9572 7.58328 15.1682 7.4618C15.3793 7.34032 15.6122 7.2616 15.8536 7.23015L41.1016 3.91815C41.1835 3.9122 41.2657 3.9122 41.3476 3.91815C41.7902 3.92714 42.215 4.0942 42.5451 4.38913C42.8753 4.68405 43.089 5.08737 43.1476 5.52615L44.8996 18.6001L40.3036 25.6261L31.2676 26.8261C31.0289 26.8413 30.806 26.9506 30.6479 27.1301C30.4898 27.3095 30.4095 27.5445 30.4246 27.7831C30.4397 28.0218 30.5491 28.2448 30.7285 28.4028C30.908 28.5609 31.1429 28.6413 31.3816 28.6261H31.5016L39.0076 27.6001L35.8096 32.5021C35.8086 32.5221 35.8086 32.5422 35.8096 32.5621C35.7867 32.5997 35.7686 32.6401 35.7556 32.6821L35.1976 34.4822L22.4056 36.2041C22.2874 36.212 22.172 36.2431 22.0658 36.2956C21.9596 36.3481 21.8648 36.421 21.7868 36.5102C21.7088 36.5993 21.6491 36.703 21.6112 36.8152C21.5732 36.9274 21.5578 37.046 21.5656 37.1641C21.5735 37.2823 21.6046 37.3978 21.6571 37.504C21.7096 37.6102 21.7825 37.705 21.8717 37.783C21.9608 37.861 22.0644 37.9207 22.1767 37.9586C22.2889 37.9966 22.4074 38.012 22.5256 38.0042H22.6396L34.5616 36.4441L33.8536 38.7361C33.6995 39.2339 33.7115 39.7684 33.8879 40.2588C34.0644 40.7491 34.3956 41.1687 34.8316 41.4541C35.2217 41.7112 35.6784 41.8489 36.1456 41.8501C36.7249 41.8464 37.2832 41.6333 37.7176 41.2501L42.4456 37.1581L42.4936 37.1041C42.5302 37.0703 42.5625 37.032 42.5896 36.9902L46.5016 30.9902L48.4996 46.1101C48.5319 46.351 48.5162 46.5959 48.4533 46.8307C48.3905 47.0655 48.2819 47.2855 48.1336 47.4781C47.9901 47.6689 47.8102 47.8292 47.6041 47.9497C47.3981 48.0702 47.1702 48.1485 46.9336 48.1801L21.6616 51.4981C21.4209 51.5293 21.1764 51.5127 20.9421 51.4494C20.7078 51.386 20.4882 51.2772 20.296 51.1289C20.1038 50.9807 19.9427 50.7961 19.8218 50.5856C19.7009 50.3751 19.6227 50.1429 19.5916 49.9021L14.2576 9.30615C14.1938 8.81968 14.3254 8.32776 14.6236 7.93815ZM5.71963 13.2001L12.6796 11.1061L17.8036 50.1361C17.9195 51.0106 18.3478 51.8137 19.0095 52.3971C19.6711 52.9804 20.5215 53.3048 21.4036 53.3101C21.5643 53.3101 21.7247 53.2981 21.8836 53.2741L31.7716 51.9781L18.5716 55.9501C18.1046 56.0902 17.6011 56.0394 17.1714 55.8089C16.7418 55.5783 16.4211 55.1868 16.2796 54.7201L4.47763 15.5101C4.40743 15.2769 4.38388 15.0321 4.40831 14.7898C4.43274 14.5475 4.50468 14.3123 4.62002 14.0978C4.73536 13.8833 4.89184 13.6936 5.08051 13.5396C5.26919 13.3856 5.48636 13.2702 5.71963 13.2001ZM23.8636 12.2401C23.833 12.0039 23.8972 11.7651 24.0423 11.5762C24.1874 11.3872 24.4015 11.2635 24.6376 11.2321L39.0376 9.33615C39.1558 9.32079 39.2759 9.32885 39.391 9.35988C39.506 9.39092 39.6139 9.44431 39.7083 9.51702C39.8027 9.58973 39.8819 9.68033 39.9413 9.78364C40.0008 9.88695 40.0393 10.001 40.0546 10.1192C40.07 10.2373 40.0619 10.3574 40.0309 10.4725C39.9999 10.5875 39.9465 10.6954 39.8738 10.7898C39.801 10.8843 39.7105 10.9634 39.6071 11.0229C39.5038 11.0823 39.3898 11.1208 39.2716 11.1361L24.8716 13.0261H24.7576C24.5388 13.0252 24.3278 12.9451 24.1634 12.8006C23.9991 12.6561 23.8926 12.457 23.8636 12.2401ZM19.5076 21.0361C19.4926 20.9178 19.5012 20.7977 19.533 20.6827C19.5647 20.5677 19.619 20.4602 19.6927 20.3664C19.7664 20.2727 19.858 20.1944 19.9622 20.1364C20.0664 20.0783 20.1811 20.0415 20.2996 20.0281L40.0996 17.4001C40.3383 17.3691 40.5796 17.4342 40.7703 17.581C40.961 17.7279 41.0856 17.9445 41.1166 18.1831C41.1477 18.4218 41.0826 18.6631 40.9358 18.8538C40.7889 19.0445 40.5723 19.1691 40.3336 19.2001L20.5156 21.8162H20.4016C20.1837 21.8154 19.9734 21.7361 19.8092 21.5928C19.645 21.4496 19.5379 21.2519 19.5076 21.0361ZM26.2336 28.3801C26.2505 28.498 26.2438 28.6181 26.214 28.7334C26.1841 28.8487 26.1317 28.9569 26.0597 29.0518C25.9877 29.1467 25.8976 29.2263 25.7946 29.2861C25.6916 29.3459 25.5777 29.3847 25.4596 29.4002L21.5776 29.9101H21.4636C21.2249 29.9261 20.9897 29.8465 20.8097 29.689C20.6296 29.5314 20.5195 29.3088 20.5036 29.0702C20.4877 28.8315 20.5673 28.5962 20.7248 28.4162C20.8823 28.2361 21.1049 28.1261 21.3436 28.1101L25.2256 27.6001C25.3431 27.585 25.4623 27.5932 25.5766 27.6242C25.6908 27.6553 25.7979 27.7085 25.8915 27.781C25.9851 27.8534 26.0635 27.9437 26.1223 28.0465C26.181 28.1493 26.2188 28.2627 26.2336 28.3801ZM22.6996 45.3001C22.669 45.0639 22.7332 44.8251 22.8783 44.6362C23.0234 44.4472 23.2375 44.3235 23.4736 44.2921L30.3796 43.3861C30.4978 43.3704 30.618 43.3781 30.7332 43.4087C30.8484 43.4394 30.9565 43.4925 31.0512 43.5649C31.1459 43.6373 31.2254 43.7277 31.2852 43.8309C31.345 43.934 31.3839 44.048 31.3996 44.1661C31.4154 44.2843 31.4077 44.4045 31.377 44.5197C31.3464 44.6349 31.2933 44.743 31.2209 44.8377C31.1484 44.9324 31.0581 45.0119 30.9549 45.0717C30.8517 45.1315 30.7378 45.1704 30.6196 45.1861L23.7016 46.0742H23.5876C23.3713 46.0734 23.1625 45.9948 22.9994 45.8526C22.8363 45.7105 22.7299 45.5143 22.6996 45.3001Z" fill="#173366"/>
</svg>
