<svg width="53" height="60" viewBox="0 0 53 60" fill="none" xmlns="http://www.w3.org/2000/svg">
<path d="M10.952 59.8C11.125 59.9298 11.3356 60 11.552 60H41.492C41.7083 60 41.9189 59.9298 42.092 59.8C49.5277 54.2304 53.4255 45.1156 52.316 35.8917C51.2065 26.6679 45.2584 18.7374 36.714 15.09C35.9797 14.7781 35.5026 14.0578 35.502 13.26V7.816C36.6963 7.39375 37.4967 6.26679 37.502 5V3C37.502 1.34315 36.1588 0 34.502 0H18.502C16.8451 0 15.502 1.34315 15.502 3V5C15.5072 6.26679 16.3076 7.39375 17.502 7.816V13.26C17.4941 14.0642 17.0097 14.787 16.269 15.1C7.71992 18.7451 1.77202 26.6826 0.674291 35.9113C-0.423441 45.1399 3.49652 54.2512 10.952 59.8ZM17.502 3C17.502 2.44772 17.9497 2 18.502 2H34.502C35.0542 2 35.502 2.44772 35.502 3V5C35.502 5.55228 35.0542 6 34.502 6H18.502C17.9497 6 17.502 5.55228 17.502 5V3ZM17.059 16.938C18.5343 16.3094 19.4946 14.8637 19.502 13.26V8H33.502V13.26C33.5018 14.8588 34.4568 16.303 35.928 16.929C43.7611 20.2725 49.2347 27.518 50.3099 35.9668C51.3852 44.4155 47.9009 52.801 41.155 58H11.889C5.1228 52.8211 1.61669 44.4381 2.68109 35.9842C3.7455 27.5303 9.22021 20.278 17.059 16.938Z" fill="#173366"/>
<path d="M12.3027 55.7631C12.4835 55.9162 12.7128 56.0002 12.9497 56.0001H40.0967C40.649 56.0001 41.0967 55.5523 41.0967 55.0001C41.0967 54.4478 40.649 54.0001 40.0967 54.0001H31.3967C33.4335 52.0116 34.0633 48.9877 32.9898 46.3513C31.9163 43.715 29.3532 41.9913 26.5067 41.9913C23.6602 41.9913 21.0971 43.715 20.0236 46.3513C18.9501 48.9877 19.5799 52.0116 21.6167 54.0001H13.3227C9.50764 50.6524 7.10226 45.9838 6.59071 40.9341C6.5625 40.5742 6.34257 40.2575 6.01525 40.1054C5.68794 39.9532 5.30405 39.9893 5.01079 40.1997C4.71753 40.4101 4.56042 40.7623 4.59971 41.1211C5.17472 46.815 7.93609 52.0639 12.3027 55.7631ZM21.5027 49.0001C21.5027 46.2386 23.7413 44.0001 26.5027 44.0001C29.2641 44.0001 31.5027 46.2386 31.5027 49.0001C31.5027 51.7615 29.2641 54.0001 26.5027 54.0001C23.7427 53.9968 21.506 51.7601 21.5027 49.0001Z" fill="#173366"/>
<path d="M26.5039 37.9999C28.7099 37.9999 30.5039 35.7569 30.5039 32.9999C30.5953 31.0612 29.5686 29.2413 27.8619 28.3169C28.259 27.2547 28.476 26.1336 28.5039 24.9999C28.4347 23.747 27.906 22.5635 27.0189 21.6759C26.83 21.4642 26.6578 21.2382 26.5039 20.9999C26.3743 20.1675 26.635 19.3218 27.2109 18.7069C27.5899 18.3145 27.5845 17.6908 27.1987 17.3051C26.813 16.9194 26.1893 16.9139 25.7969 17.2929C24.8371 18.2754 24.3633 19.6336 24.5039 20.9999C24.588 21.7454 24.9334 22.4369 25.4789 22.9519C26.052 23.4919 26.4152 24.2175 26.5039 24.9999C26.4627 26.0624 26.2282 27.1085 25.8119 28.0869C23.9359 28.4999 22.5039 30.5389 22.5039 32.9999C22.5039 35.7569 24.2979 37.9999 26.5039 37.9999ZM26.5039 29.9999C27.5879 29.9999 28.5039 31.3739 28.5039 32.9999C28.5039 34.6259 27.5879 35.9999 26.5039 35.9999C25.4199 35.9999 24.5039 34.6259 24.5039 32.9999C24.5039 31.3739 25.4199 29.9999 26.5039 29.9999Z" fill="#173366"/>
<path d="M15.5 41.9999C17.706 41.9999 19.5 39.7569 19.5 36.9999C19.5914 35.0612 18.5647 33.2413 16.858 32.3169C17.2551 31.2547 17.472 30.1336 17.5 28.9999C17.4308 27.747 16.9021 26.5635 16.015 25.6759C15.8261 25.4642 15.6539 25.2382 15.5 24.9999C15.3704 24.1675 15.6311 23.3218 16.207 22.7069C16.586 22.3145 16.5806 21.6908 16.1948 21.3051C15.8091 20.9194 15.1854 20.9139 14.793 21.2929C13.8331 22.2754 13.3594 23.6336 13.5 24.9999C13.5841 25.7454 13.9295 26.4369 14.475 26.9519C15.0481 27.4919 15.4113 28.2175 15.5 28.9999C15.4588 30.0624 15.2243 31.1085 14.808 32.0869C12.932 32.4999 11.5 34.5389 11.5 36.9999C11.5 39.7569 13.294 41.9999 15.5 41.9999ZM15.5 33.9999C16.584 33.9999 17.5 35.3739 17.5 36.9999C17.5 38.6259 16.584 39.9999 15.5 39.9999C14.416 39.9999 13.5 38.6259 13.5 36.9999C13.5 35.3739 14.416 33.9999 15.5 33.9999Z" fill="#173366"/>
<path d="M37.5039 41.9999C39.7099 41.9999 41.5039 39.7569 41.5039 36.9999C41.5953 35.0612 40.5686 33.2413 38.8619 32.3169C39.259 31.2547 39.476 30.1336 39.5039 28.9999C39.4347 27.747 38.906 26.5635 38.0189 25.6759C37.83 25.4642 37.6578 25.2382 37.5039 24.9999C37.3743 24.1675 37.635 23.3218 38.2109 22.7069C38.5899 22.3145 38.5845 21.6908 38.1987 21.3051C37.813 20.9194 37.1893 20.9139 36.7969 21.2929C35.8371 22.2754 35.3633 23.6336 35.5039 24.9999C35.588 25.7454 35.9334 26.4369 36.4789 26.9519C37.052 27.4919 37.4152 28.2175 37.5039 28.9999C37.4627 30.0624 37.2282 31.1085 36.8119 32.0869C34.9359 32.4999 33.5039 34.5389 33.5039 36.9999C33.5039 39.7569 35.2979 41.9999 37.5039 41.9999ZM37.5039 33.9999C38.5879 33.9999 39.5039 35.3739 39.5039 36.9999C39.5039 38.6259 38.5879 39.9999 37.5039 39.9999C36.4199 39.9999 35.5039 38.6259 35.5039 36.9999C35.5039 35.3739 36.4199 33.9999 37.5039 33.9999Z" fill="#173366"/>
<path d="M14.5039 49C15.0562 49 15.5039 48.5523 15.5039 48C15.5039 47.4477 15.0562 47 14.5039 47C13.9516 47 13.5039 47.4477 13.5039 48C13.5039 48.5523 13.9516 49 14.5039 49Z" fill="#173366"/>
<path d="M44.5039 44C45.0562 44 45.5039 43.5523 45.5039 43C45.5039 42.4477 45.0562 42 44.5039 42C43.9516 42 43.5039 42.4477 43.5039 43C43.5039 43.5523 43.9516 44 44.5039 44Z" fill="#173366"/>
<path d="M38.5039 49C39.0562 49 39.5039 48.5523 39.5039 48C39.5039 47.4477 39.0562 47 38.5039 47C37.9516 47 37.5039 47.4477 37.5039 48C37.5039 48.5523 37.9516 49 38.5039 49Z" fill="#173366"/>
<path d="M9.50391 32C10.0562 32 10.5039 31.5523 10.5039 31C10.5039 30.4477 10.0562 30 9.50391 30C8.95162 30 8.50391 30.4477 8.50391 31C8.50391 31.5523 8.95162 32 9.50391 32Z" fill="#173366"/>
<path d="M32.5039 25C33.0562 25 33.5039 24.5523 33.5039 24C33.5039 23.4477 33.0562 23 32.5039 23C31.9516 23 31.5039 23.4477 31.5039 24C31.5039 24.5523 31.9516 25 32.5039 25Z" fill="#173366"/>
</svg>
