<svg width="61" height="56" viewBox="0 0 61 56" fill="none" xmlns="http://www.w3.org/2000/svg">
<path d="M50.1325 55.2101C48.5685 55.1734 47.0277 54.8232 45.6014 54.1804C44.1752 53.5375 42.8924 52.6151 41.829 51.4676C39.2579 48.9125 37.4207 45.7135 36.5097 42.2051C35.6144 38.4682 36.294 35.2385 38.4222 33.1113C40.5503 30.9841 43.7809 30.2988 47.5159 31.1988C51.0243 32.1099 54.2234 33.9471 56.7784 36.5182C62.1334 41.8732 61.1753 48.4357 57.46 52.151C55.5183 54.0999 52.8835 55.1999 50.1325 55.2101ZM44.4137 32.7035C43.5597 32.6654 42.7068 32.7991 41.9053 33.0965C41.1039 33.3939 40.3702 33.8491 39.7478 34.4351C36.1253 38.0594 38.635 45.6251 43.1565 50.1419C47.6406 54.6241 53.0819 53.8788 56.1381 50.8235C59.1944 47.7682 59.9378 42.3269 55.4547 37.8438C52.4378 34.8251 48.0653 32.7035 44.4137 32.7035Z" fill="#173366"/>
<path d="M44.3256 45.3756C43.7286 45.3672 43.1395 45.2383 42.5936 44.9966C42.0476 44.755 41.5561 44.4056 41.1484 43.9694C38.9528 41.7728 38.1766 37.4415 40.4678 35.1503C42.7591 32.859 47.0894 33.6353 49.2869 35.8309C51.3775 37.9215 51.1159 40.779 48.6062 43.2887C48.0651 43.901 47.4084 44.4006 46.6738 44.7587C45.9393 45.1168 45.1413 45.3264 44.3256 45.3756ZM44.1381 35.6369C43.7111 35.6164 43.2843 35.6804 42.8821 35.8251C42.48 35.9699 42.1103 36.1927 41.7944 36.4806C40.3169 37.9581 40.9337 41.1062 42.475 42.6484C44.3369 44.5084 46.4565 42.7928 47.2806 41.9669C48.1047 41.1409 49.8231 39.0231 47.9622 37.1612C46.9225 36.1918 45.5568 35.6478 44.1353 35.6369H44.1381Z" fill="#173366"/>
<path d="M54.8967 45.4018C53.9498 45.3835 53.0486 44.992 52.3889 44.3125C51.7666 43.7723 51.3819 43.0089 51.318 42.1873C51.2542 41.3657 51.5163 40.552 52.0476 39.9222C52.3408 39.641 52.6932 39.4292 53.079 39.3022C53.4648 39.1751 53.8742 39.1362 54.277 39.1881C55.0987 39.2913 55.8612 39.67 56.4398 40.2625C57.0623 40.803 57.447 41.5668 57.5107 42.3888C57.5744 43.2107 57.312 44.0247 56.7801 44.6547C56.5314 44.8978 56.2367 45.089 55.9134 45.2173C55.5901 45.3456 55.2445 45.4083 54.8967 45.4018ZM53.9376 41.0453C53.7306 41.036 53.5283 41.1091 53.3751 41.2487C53.0001 41.6237 53.1623 42.4337 53.7164 42.9878C54.2704 43.5418 55.0851 43.7012 55.4564 43.329C55.8276 42.9568 55.6701 42.1431 55.1161 41.589C54.8374 41.2994 54.4703 41.1108 54.0726 41.0528C54.0278 41.0476 53.9827 41.0451 53.9376 41.0453Z" fill="#173366"/>
<path d="M53.5321 50.8526C52.5857 50.8342 51.6846 50.4434 51.0243 49.765C50.6842 49.519 50.4015 49.202 50.1959 48.836C49.9903 48.47 49.8666 48.0638 49.8333 47.6453C49.8001 47.2268 49.8581 46.8061 50.0034 46.4123C50.1486 46.0184 50.3777 45.6608 50.6747 45.3641C50.9717 45.0674 51.3296 44.8388 51.7236 44.694C52.1177 44.5492 52.5384 44.4916 52.9569 44.5254C53.3753 44.5591 53.7814 44.6833 54.1472 44.8893C54.5129 45.0954 54.8296 45.3784 55.0752 45.7188C55.6973 46.2594 56.0816 47.023 56.1453 47.8447C56.209 48.6663 55.9469 49.4801 55.4156 50.1101C55.1664 50.3523 54.8716 50.5427 54.5483 50.6702C54.225 50.7976 53.8796 50.8596 53.5321 50.8526ZM52.5637 46.496C52.4624 46.4915 52.3612 46.507 52.266 46.5418C52.1707 46.5765 52.0833 46.6298 52.0087 46.6985C51.6337 47.0735 51.7959 47.8844 52.3499 48.4394C52.904 48.9944 53.7168 49.1529 54.0899 48.7797C54.4631 48.4066 54.3037 47.5938 53.7496 47.0397C53.4379 46.7142 53.0138 46.5198 52.5637 46.496Z" fill="#173366"/>
<path d="M48.0821 52.2147C47.1355 52.1969 46.2342 51.8061 45.5743 51.1272C44.9818 50.5485 44.6031 49.7861 44.4999 48.9644C44.4466 48.5615 44.4849 48.1518 44.612 47.7658C44.7391 47.3797 44.9517 47.0274 45.234 46.735C45.8864 46.2586 46.6876 46.031 47.493 46.0934C48.2985 46.1557 49.0551 46.5039 49.6264 47.0751C50.1977 47.6463 50.5461 48.4029 50.6086 49.2083C50.6711 50.0137 50.4437 50.815 49.9674 51.4675C49.7182 51.7106 49.4232 51.9018 49.0996 52.03C48.776 52.1583 48.4301 52.221 48.0821 52.2147ZM47.1146 47.8591C47.0133 47.8542 46.9121 47.8695 46.8169 47.9041C46.7216 47.9388 46.6341 47.9919 46.5596 48.0606C46.4779 48.1555 46.4179 48.2671 46.3841 48.3876C46.3502 48.5081 46.3432 48.6346 46.3636 48.7581C46.4216 49.1558 46.6103 49.5229 46.8999 49.8016C47.4558 50.3575 48.2686 50.5159 48.6408 50.1419C49.013 49.7678 48.8527 48.9559 48.2986 48.4019C47.9875 48.0767 47.564 47.8825 47.1146 47.8591Z" fill="#173366"/>
<path d="M10.8673 55.21C8.11539 55.1998 5.47974 54.0991 3.53794 52.149C-0.177375 48.4375 -1.1355 41.875 4.2195 36.5162C6.77453 33.9451 9.97361 32.1079 13.482 31.1968C17.2179 30.3006 20.4495 30.9812 22.5758 33.1093C24.702 35.2375 25.3883 38.4681 24.4883 42.2031C23.5772 45.7115 21.74 48.9106 19.1689 51.4656C18.1059 52.6132 16.8235 53.5359 15.3976 54.1791C13.9716 54.8222 12.4311 55.1728 10.8673 55.21ZM16.5861 32.7034C12.9345 32.7034 8.56294 34.825 5.54513 37.8418C1.062 42.3268 1.812 47.7672 4.86356 50.8234C7.91513 53.8797 13.362 54.625 17.8433 50.1418C22.3648 45.625 24.8745 38.0593 21.252 34.435C20.6295 33.8491 19.8958 33.3941 19.0944 33.0966C18.293 32.7992 17.4401 32.6655 16.5861 32.7034Z" fill="#173366"/>
<path d="M16.6766 45.3756C15.8612 45.3269 15.0634 45.1179 14.3288 44.7604C13.5943 44.403 12.9375 43.9041 12.396 43.2925C9.88632 40.7828 9.62476 37.9253 11.7154 35.8347C13.9119 33.6391 18.2441 32.8628 20.5344 35.1541C22.8248 37.4453 22.0494 41.7766 19.8538 43.9731C19.4457 44.4085 18.954 44.7571 18.4081 44.9981C17.8622 45.2391 17.2733 45.3675 16.6766 45.3756ZM16.8641 35.6369C15.4431 35.6478 14.0778 36.1914 13.0382 37.1603C11.1773 39.0222 12.8948 41.1419 13.7198 41.966C14.5448 42.79 16.6635 44.5075 18.5254 42.6475C20.0666 41.1053 20.6816 37.96 19.206 36.4797C18.8906 36.1925 18.5216 35.9703 18.1203 35.8257C17.719 35.6811 17.2931 35.6169 16.8669 35.6369H16.8641Z" fill="#173366"/>
<path d="M6.10005 45.4019C5.7524 45.4086 5.40687 45.3462 5.08355 45.2182C4.76023 45.0903 4.46554 44.8994 4.21661 44.6566C3.68474 44.0265 3.42226 43.2123 3.48594 42.3902C3.54963 41.5681 3.93436 40.8041 4.55693 40.2634C5.13559 39.671 5.89803 39.2923 6.71974 39.1891C7.12257 39.1371 7.53193 39.1761 7.91772 39.3031C8.30352 39.4302 8.65595 39.642 8.94911 39.9231C9.48019 40.5529 9.74211 41.3664 9.67825 42.1878C9.6144 43.0091 9.2299 43.7724 8.60787 44.3125C7.94819 44.992 7.0469 45.3835 6.10005 45.4019ZM7.05911 41.0453C7.01432 41.0452 6.96955 41.0477 6.92505 41.0528C6.52736 41.1108 6.16026 41.2995 5.88161 41.5891C5.32755 42.1431 5.16818 42.9569 5.5413 43.33C5.91443 43.7031 6.7263 43.5428 7.2813 42.9878C7.8363 42.4328 7.99661 41.6209 7.62161 41.2488C7.46844 41.1092 7.26615 41.036 7.05911 41.0453Z" fill="#173366"/>
<path d="M7.46268 50.8525C7.1147 50.8586 6.76898 50.7954 6.44564 50.6666C6.1223 50.5379 5.82779 50.3461 5.57925 50.1025C5.05025 49.4729 4.78953 48.6609 4.85317 47.841C4.91681 47.0212 5.29974 46.2591 5.91956 45.7187C6.46034 45.0967 7.22402 44.7123 8.04575 44.6485C8.86749 44.5846 9.68138 44.8465 10.3117 45.3775C10.843 46.0078 11.105 46.8217 11.0411 47.6435C10.9773 48.4653 10.5927 49.229 9.9705 49.7697C9.30957 50.4465 8.40852 50.8355 7.46268 50.8525ZM7.24706 47.0397C6.693 47.5937 6.53362 48.4075 6.90675 48.7797C7.27987 49.1519 8.09268 48.9925 8.64675 48.4394C9.20081 47.8862 9.36018 47.0716 8.988 46.6984C8.61581 46.3253 7.80018 46.4856 7.24706 47.0397Z" fill="#173366"/>
<path d="M12.9157 52.2147C12.5676 52.2209 12.2217 52.1578 11.8981 52.029C11.5746 51.9003 11.28 51.7084 11.0313 51.4647C10.5002 50.8345 10.2384 50.0206 10.3025 49.1989C10.3665 48.3773 10.7512 47.6138 11.3735 47.0734C11.914 46.4516 12.6773 46.0672 13.4987 46.0033C14.3202 45.9395 15.1338 46.2013 15.7638 46.7322C16.0461 47.0246 16.2587 47.3769 16.3858 47.7629C16.5129 48.1489 16.5512 48.5587 16.4979 48.9616C16.3947 49.7833 16.0159 50.5457 15.4235 51.1244C14.764 51.8043 13.8627 52.1961 12.9157 52.2147ZM13.8832 47.8591C13.4337 47.8822 13.01 48.0764 12.6991 48.4019C12.1451 48.9559 11.9857 49.7697 12.3579 50.1419C12.7301 50.5141 13.5438 50.3556 14.0979 49.8016C14.3875 49.5229 14.5762 49.1558 14.6341 48.7581C14.6545 48.6346 14.6475 48.5081 14.6137 48.3876C14.5798 48.2671 14.5199 48.1554 14.4382 48.0606C14.3636 47.9919 14.2762 47.9387 14.1809 47.9041C14.0856 47.8695 13.9844 47.8542 13.8832 47.8591Z" fill="#173366"/>
<path d="M56.5878 33.9504L54.8281 33.2997C55.0414 32.7225 55.2198 32.133 55.3625 31.5344L57.1859 31.9657C57.0262 32.6385 56.8264 33.3013 56.5878 33.9504Z" fill="#173366"/>
<path d="M5.36661 36.0747C3.98792 33.4516 3.28242 30.5272 3.31348 27.5641C3.31348 14.9359 14.9385 0.8125 30.501 0.8125C46.0635 0.8125 57.6885 14.9359 57.6885 27.5641C57.689 28.3751 57.6399 29.1853 57.5413 29.9903L55.6804 29.7597C55.7696 29.0312 55.814 28.298 55.8135 27.5641C55.8135 13.5541 42.2066 2.6875 30.501 2.6875C18.7954 2.6875 5.18848 13.5541 5.18848 27.5641C5.15846 30.2195 5.78858 32.8408 7.02223 35.1925L5.36661 36.0747Z" fill="#173366"/>
<path d="M30.4978 49.5625C28.2404 49.5671 25.9871 49.3676 23.7656 48.9662L24.105 47.1221C26.2145 47.503 28.3542 47.6922 30.4978 47.6875C33.5791 47.7049 36.6484 47.3034 39.6216 46.494L40.1259 48.2987C36.9889 49.1554 33.7497 49.5805 30.4978 49.5625Z" fill="#173366"/>
<path d="M29.5636 29.875C28.8809 29.8758 28.2064 29.7265 27.5878 29.4377C26.9693 29.1488 26.4218 28.7274 25.9842 28.2034C25.3042 28.264 24.6192 28.1746 23.9775 27.9416C23.3357 27.7086 22.753 27.3377 22.2702 26.8549C21.7875 26.3722 21.4165 25.7894 21.1835 25.1477C20.9505 24.5059 20.8612 23.8209 20.9217 23.1409C20.3983 22.7028 19.9774 22.1552 19.6885 21.5368C19.3997 20.9183 19.25 20.2441 19.25 19.5615C19.25 18.879 19.3997 18.2047 19.6885 17.5863C19.9774 16.9678 20.3983 16.4203 20.9217 15.9821C20.8612 15.3021 20.9505 14.6171 21.1835 13.9754C21.4165 13.3337 21.7875 12.7509 22.2702 12.2681C22.753 11.7854 23.3357 11.4144 23.9775 11.1814C24.6192 10.9484 25.3042 10.8591 25.9842 10.9196C26.422 10.396 26.9693 9.97479 27.5876 9.68577C28.2059 9.39674 28.8801 9.24695 29.5627 9.24695C30.2452 9.24695 30.9194 9.39674 31.5377 9.68577C32.156 9.97479 32.7034 10.396 33.1411 10.9196C33.8212 10.8589 34.5062 10.9482 35.148 11.1811C35.7898 11.414 36.3727 11.785 36.8555 12.2678C37.3383 12.7506 37.7092 13.3334 37.9421 13.9752C38.1751 14.617 38.2643 15.3021 38.2036 15.9821C38.727 16.4203 39.148 16.9678 39.4368 17.5863C39.7256 18.2047 39.8753 18.879 39.8753 19.5615C39.8753 20.2441 39.7256 20.9183 39.4368 21.5368C39.148 22.1552 38.727 22.7028 38.2036 23.1409C38.264 23.8209 38.1745 24.5058 37.9415 25.1475C37.7084 25.7891 37.3374 26.3718 36.8547 26.8545C36.372 27.3372 35.7893 27.7082 35.1477 27.9413C34.506 28.1743 33.8211 28.2638 33.1411 28.2034C32.7037 28.7272 32.1566 29.1484 31.5383 29.4373C30.9201 29.7261 30.246 29.8755 29.5636 29.875ZM26.4033 26.2543C26.561 26.2543 26.7163 26.294 26.8546 26.3699C26.9929 26.4458 27.1098 26.5553 27.1945 26.6884C27.446 27.0898 27.7953 27.4207 28.2097 27.65C28.6241 27.8794 29.09 27.9998 29.5636 27.9998C30.0372 27.9998 30.5031 27.8794 30.9175 27.65C31.3319 27.4207 31.6812 27.0898 31.9327 26.6884C32.0362 26.5258 32.1873 26.399 32.3655 26.3253C32.5436 26.2517 32.7402 26.2347 32.9283 26.2768C33.39 26.3829 33.871 26.3698 34.3262 26.2389C34.7815 26.1079 35.1959 25.8634 35.5307 25.5284C35.8655 25.1933 36.1097 24.7786 36.2402 24.3232C36.3708 23.8679 36.3834 23.3869 36.277 22.9253C36.2355 22.7372 36.253 22.541 36.3269 22.3632C36.4009 22.1854 36.5278 22.0346 36.6905 21.9315C37.0916 21.6799 37.4223 21.3305 37.6515 20.9162C37.8808 20.5018 38.001 20.036 38.001 19.5625C38.001 19.0889 37.8808 18.6231 37.6515 18.2088C37.4223 17.7944 37.0916 17.445 36.6905 17.1934C36.5278 17.0903 36.4009 16.9396 36.3269 16.7618C36.253 16.584 36.2355 16.3877 36.277 16.1996C36.3835 15.7381 36.3709 15.2571 36.2404 14.8017C36.1098 14.3464 35.8657 13.9317 35.5308 13.5967C35.196 13.2617 34.7814 13.0173 34.3262 12.8865C33.8709 12.7557 33.3899 12.7428 32.9283 12.849C32.7401 12.891 32.5434 12.8739 32.3653 12.8001C32.1871 12.7263 32.036 12.5993 31.9327 12.4365C31.6812 12.0352 31.3319 11.7043 30.9175 11.4749C30.5031 11.2455 30.0372 11.1252 29.5636 11.1252C29.09 11.1252 28.6241 11.2455 28.2097 11.4749C27.7953 11.7043 27.446 12.0352 27.1945 12.4365C27.0912 12.5993 26.9401 12.7263 26.7619 12.8001C26.5837 12.8739 26.3871 12.891 26.1989 12.849C25.7373 12.7428 25.2563 12.7557 24.801 12.8865C24.3457 13.0173 23.9312 13.2617 23.5964 13.5967C23.2615 13.9317 23.0174 14.3464 22.8868 14.8017C22.7563 15.2571 22.7437 15.7381 22.8502 16.1996C22.8917 16.3877 22.8742 16.584 22.8003 16.7618C22.7263 16.9396 22.5994 17.0903 22.4367 17.1934C22.0356 17.445 21.7049 17.7944 21.4757 18.2088C21.2464 18.6231 21.1262 19.0889 21.1262 19.5625C21.1262 20.036 21.2464 20.5018 21.4757 20.9162C21.7049 21.3305 22.0356 21.6799 22.4367 21.9315C22.5994 22.0346 22.7263 22.1854 22.8003 22.3632C22.8742 22.541 22.8917 22.7372 22.8502 22.9253C22.7438 23.3869 22.7564 23.8679 22.887 24.3232C23.0175 24.7786 23.2617 25.1933 23.5965 25.5284C23.9313 25.8634 24.3457 26.1079 24.801 26.2389C25.2562 26.3698 25.7372 26.3829 26.1989 26.2768C26.266 26.262 26.3345 26.2545 26.4033 26.2543Z" fill="#173366"/>
</svg>
