<svg width="61" height="60" viewBox="0 0 61 60" fill="none" xmlns="http://www.w3.org/2000/svg">
<g clip-path="url(#clip0_32_16306)">
<path d="M20.867 20.5461L20.6549 20.6782C19.75 21.2415 18.7054 21.5401 17.6394 21.5401H15.4922" stroke="#173366" stroke-width="1.75781" stroke-miterlimit="10" stroke-linecap="round" stroke-linejoin="round"/>
<path d="M14.0977 24.7456H17.4224C18.3161 24.7456 19.2026 24.9036 20.0413 25.2121L20.7588 25.4762" stroke="#173366" stroke-width="1.75781" stroke-miterlimit="10" stroke-linecap="round" stroke-linejoin="round"/>
<path d="M40.6172 20.5461L40.8293 20.6782C41.7342 21.2415 42.7788 21.5401 43.8448 21.5401H45.9116" stroke="#173366" stroke-width="1.75781" stroke-miterlimit="10" stroke-linecap="round" stroke-linejoin="round"/>
<path d="M47.4885 24.7456H44.063C43.1693 24.7456 42.2828 24.9036 41.4441 25.2121L40.7266 25.4762" stroke="#173366" stroke-width="1.75781" stroke-miterlimit="10" stroke-linecap="round" stroke-linejoin="round"/>
<path d="M43.1166 7.58887L42.2985 8.35504C40.6438 9.90484 38.2813 10.4405 36.1199 9.75613C32.6202 8.64789 28.8636 8.64789 25.3639 9.75613C23.2025 10.4405 20.8401 9.90484 19.1853 8.35504L18.3672 7.58887" stroke="#173366" stroke-width="1.75781" stroke-miterlimit="10" stroke-linecap="round" stroke-linejoin="round"/>
<path d="M24.6384 40.075C24.6812 39.5843 24.7571 39.0948 24.8665 38.6098L25.2734 36.806C25.5793 35.4494 25.2946 34.0266 24.4898 32.8924L23.888 32.0439C22.0245 29.4171 21.0234 26.2759 21.0234 23.0551V18.207" stroke="#173366" stroke-width="1.75781" stroke-miterlimit="10" stroke-linecap="round" stroke-linejoin="round"/>
<path d="M36.8449 40.0749C36.8021 39.5842 36.7262 39.0947 36.6168 38.6097L36.21 36.8059C35.904 35.4493 36.1888 34.0265 36.9934 32.8923L37.5952 32.0438C39.4588 29.417 40.4598 26.2758 40.4598 23.055V18.0991" stroke="#173366" stroke-width="1.75781" stroke-miterlimit="10" stroke-linecap="round" stroke-linejoin="round"/>
<path d="M42.8464 15.1479C42.2623 15.9346 41.639 16.694 40.9776 17.4241L40.4722 17.9821L38.9142 19.7023C37.6711 21.0748 36.9766 22.857 36.9634 24.7088C36.9455 27.1903 35.9649 29.5678 34.2281 31.34L33.4614 32.1223C32.7051 32.8941 32.2814 33.9316 32.2813 35.0122C32.2811 35.7342 32.5032 36.4388 32.9172 37.0303L32.9176 37.0307C33.2124 37.4519 33.3512 37.9464 33.3345 38.4365" stroke="#173366" stroke-width="1.75781" stroke-miterlimit="10" stroke-linecap="round" stroke-linejoin="round"/>
<path d="M54.1806 14.5999C54.5895 13.9519 55.0655 13.1982 55.5334 12.4581C56.5481 10.8532 56.6517 8.8054 55.8061 7.10665C55.2282 5.94579 54.1859 5.08305 52.9532 4.68052L52.6184 4.57118C51.0828 4.07009 49.391 4.52044 48.3087 5.71973C47.642 6.45813 47.1049 7.29602 46.7122 8.20985L46.3416 9.07305C45.9714 9.9345 45.563 10.7757 45.1172 11.5947" stroke="#173366" stroke-width="1.75781" stroke-miterlimit="10" stroke-linecap="round" stroke-linejoin="round"/>
<path d="M4.16762 16.1719C3.80363 15.5952 3.39875 14.9543 2.99984 14.3233C1.32852 11.68 1.16504 8.3031 2.57305 5.51064C3.55367 3.56556 5.30387 2.06205 7.37469 1.38587L7.78156 1.2531C10.6261 0.32392 13.7602 1.15923 15.7657 3.38076C16.6896 4.40415 17.4339 5.56537 17.9783 6.83216L18.3489 7.69525C18.6988 8.50947 19.0875 9.3033 19.5137 10.0746C21.2077 13.1405 24.1201 15.347 27.5109 16.2252C29.6301 16.7741 31.8542 16.7741 33.9734 16.2252C37.3643 15.347 40.2767 13.1404 41.9707 10.0746C42.3969 9.3033 42.7855 8.50958 43.1354 7.69525L43.5061 6.83216C44.0503 5.56537 44.7948 4.40404 45.7187 3.38076C47.7241 1.15923 50.8583 0.32392 53.7028 1.2531L54.1096 1.38587C56.1806 2.06205 57.9307 3.56556 58.9113 5.51064C60.3193 8.3031 60.1558 11.68 58.4845 14.3234C58.0742 14.9724 57.6577 15.6318 57.2858 16.221" stroke="#173366" stroke-width="1.75781" stroke-miterlimit="10" stroke-linecap="round" stroke-linejoin="round"/>
<path d="M15.9669 10.8344C15.6738 10.2573 15.3987 9.67 15.1422 9.07281L14.7715 8.20961C14.3788 7.29578 13.8418 6.45789 13.1751 5.71949C12.0928 4.52019 10.4009 4.06984 8.86541 4.57093L8.5306 4.68027C7.29802 5.08281 6.25576 5.94554 5.67779 7.1064C4.83216 8.80515 4.93576 10.8531 5.95049 12.4579C6.41666 13.1952 6.8908 13.9461 7.29861 14.5923" stroke="#173366" stroke-width="1.75781" stroke-miterlimit="10" stroke-linecap="round" stroke-linejoin="round"/>
<path d="M24.8794 27.2394C24.6489 26.4225 24.5262 25.572 24.52 24.7088C24.5067 22.857 23.8123 21.0749 22.5691 19.7023L21.0111 17.9821L20.5057 17.424C19.6256 16.4524 18.8128 15.4289 18.0703 14.3584" stroke="#173366" stroke-width="1.75781" stroke-miterlimit="10" stroke-linecap="round" stroke-linejoin="round"/>
<path d="M28.1468 38.4364C28.1302 37.9464 28.2689 37.4518 28.5637 37.0307L28.5641 37.0302C28.9781 36.4386 29.2002 35.7341 29.2001 35.0121C29.1998 33.9315 28.7762 32.8941 28.0199 32.1223L27.2532 31.3399C27.1004 31.1839 26.9535 31.0233 26.8125 30.8584" stroke="#173366" stroke-width="1.75781" stroke-miterlimit="10" stroke-linecap="round" stroke-linejoin="round"/>
<path d="M4.14037 16.5465C5.25928 15.0101 7.08201 14.3687 8.51885 14.8967C8.93229 15.0487 9.36811 15.1342 9.80862 15.1339C10.6845 15.1331 11.6185 15.4258 12.4396 16.0238C13.2607 16.6218 13.8258 17.421 14.0937 18.2549C14.2285 18.6744 14.4436 19.0628 14.715 19.4098C15.6584 20.6153 15.6069 22.5471 14.488 24.0833C13.3691 25.6196 11.5464 26.2611 10.1096 25.733C9.69612 25.581 9.26029 25.4955 8.81979 25.4958C7.94393 25.4967 7.00994 25.2039 6.18881 24.6059C5.36768 24.0079 4.8026 23.2087 4.53471 22.3748C4.39994 21.9554 4.18479 21.5669 3.91338 21.2199C2.97002 20.0144 3.02147 18.0827 4.14037 16.5465Z" stroke="#173366" stroke-width="1.75781" stroke-miterlimit="10" stroke-linecap="round" stroke-linejoin="round"/>
<path d="M57.3474 16.5465C56.2285 15.0101 54.4058 14.3687 52.9689 14.8967C52.5555 15.0487 52.1197 15.1342 51.6792 15.1339C50.8033 15.1331 49.8693 15.4258 49.0482 16.0238C48.2271 16.6218 47.662 17.421 47.3941 18.2549C47.2593 18.6744 47.0442 19.0628 46.7728 19.4098C45.8294 20.6153 45.8808 22.5471 46.9997 24.0833C48.1187 25.6196 49.9414 26.2611 51.3782 25.733C51.7917 25.581 52.2275 25.4955 52.668 25.4958C53.5438 25.4967 54.4778 25.2039 55.299 24.6059C56.1201 24.0079 56.6852 23.2087 56.9531 22.3748C57.0878 21.9554 57.303 21.5669 57.5744 21.2199C58.5178 20.0144 58.4663 18.0827 57.3474 16.5465Z" stroke="#173366" stroke-width="1.75781" stroke-miterlimit="10" stroke-linecap="round" stroke-linejoin="round"/>
<path d="M36.6983 57.2628C35.0073 58.4345 32.9545 59.121 30.7414 59.121C24.958 59.121 20.2695 54.4326 20.2695 48.6491C20.2695 42.8657 24.958 38.1772 30.7414 38.1772C36.5248 38.1772 41.2133 42.8657 41.2133 48.6491C41.2133 50.7363 40.6026 52.6808 39.5503 54.314" stroke="#173366" stroke-width="1.75781" stroke-miterlimit="10" stroke-linecap="round" stroke-linejoin="round"/>
<path d="M33.2289 48.6492L35.2835 46.5944C35.97 45.9081 35.97 44.795 35.2835 44.1085C34.5971 43.4222 33.4841 43.4222 32.7976 44.1085L30.743 46.1633L28.6883 44.1086C28.0021 43.422 26.889 43.4223 26.2024 44.1086C25.5158 44.795 25.5159 45.9081 26.2024 46.5945L28.2571 48.6493L26.2024 50.7041C25.5159 51.3904 25.5159 52.5035 26.2024 53.19C26.5456 53.5332 26.9955 53.7049 27.4453 53.7049C27.8951 53.7049 28.3451 53.5332 28.6882 53.19L30.743 51.1351L32.7976 53.1897C33.1408 53.5331 33.5907 53.7047 34.0405 53.7047C34.4903 53.7047 34.9403 53.533 35.2834 53.1897C35.9699 52.5034 35.9699 51.3903 35.2834 50.7038L33.2289 48.6492Z" stroke="#173366" stroke-width="1.75781" stroke-miterlimit="10" stroke-linecap="round" stroke-linejoin="round"/>
</g>
<defs>
<clipPath id="clip0_32_16306">
<rect width="60" height="60" fill="white" transform="translate(0.742188)"/>
</clipPath>
</defs>
</svg>
