<svg width="37" height="28" viewBox="0 0 37 28" fill="none" xmlns="http://www.w3.org/2000/svg">
<path d="M25.5253 3.36369C21.9821 1.05352 20.2215 0.656494 19.3844 0.702779C18.9565 0.726333 18.5276 0.726333 18.0997 0.702779C17.2505 0.655979 15.4511 1.06535 11.8047 3.46501L18.3934 4.16786L25.5253 3.36369Z" stroke="#173366" stroke-width="1.2" stroke-linecap="round" stroke-linejoin="round"/>
<path d="M21.0709 26.4378C21.0709 26.4378 20.5648 25.8423 21.1026 24.0942C19.5667 24.5791 17.9189 24.5795 16.3828 24.0954C16.9201 25.8425 16.4142 26.4377 16.4142 26.4377" stroke="#173366" stroke-width="1.2" stroke-linecap="round" stroke-linejoin="round"/>
<path d="M14.9062 20.8446C15.1663 21.3992 15.4853 21.9848 15.8275 22.7034C16.0795 23.2326 16.2578 23.6943 16.3811 24.0954C17.9171 24.5794 19.565 24.579 21.1008 24.0942C21.2241 23.6934 21.4022 23.2321 21.654 22.7034C21.9969 21.9817 22.318 21.394 22.5785 20.8374C21.6251 21.3517 20.3172 21.826 18.7408 21.826C17.1715 21.8262 15.8637 21.3555 14.9062 20.8446Z" stroke="#173366" stroke-width="1.2" stroke-linecap="round" stroke-linejoin="round"/>
<path d="M14.2594 18.0555C14.235 19.1739 14.498 19.9709 14.9077 20.8446C15.8651 21.3555 17.173 21.8262 18.7422 21.8262C20.3194 21.8262 21.6265 21.3512 22.58 20.8376C22.9889 19.9642 23.2506 19.1667 23.2247 18.0468C22.2611 18.6781 20.7111 19.4192 18.7421 19.4192C16.7823 19.419 15.2303 18.6857 14.2594 18.0555Z" stroke="#173366" stroke-width="1.2" stroke-linecap="round" stroke-linejoin="round"/>
<path d="M24.4905 6.84388C22.4208 6.91143 21.791 10.7353 20.8905 11.4106C20.1674 11.953 19.9963 17.2602 19.957 19.3239C21.353 19.1041 22.4691 18.5418 23.2248 18.0466C23.2102 17.4142 23.1048 16.6791 22.8807 15.769C22.503 14.234 22.7241 12.6127 23.4989 11.2349C23.6361 10.9926 23.7891 10.7358 23.9618 10.4646C24.298 9.93758 24.5632 9.36843 24.7503 8.77194L25.0901 7.69091C25.1483 7.50572 25.2635 7.34363 25.4193 7.22776C25.5751 7.1119 25.7634 7.04816 25.9575 7.04565C25.6215 6.9128 25.1498 6.8228 24.4905 6.84388Z" stroke="#173366" stroke-width="1.2" stroke-linecap="round" stroke-linejoin="round"/>
<path d="M35.6291 10.3757C35.6291 8.98091 35.9215 7.18126 35.9215 4.66177C35.9215 3.03646 34.7795 2.87154 33.9688 2.95914C33.5287 3.00663 32.9364 3.25383 32.5802 3.51714C29.5769 5.7416 26.945 4.32423 26.945 4.32423C26.4437 3.97211 25.9716 3.65211 25.5285 3.36423L18.3971 4.16737L11.8084 3.46451C11.41 3.72668 10.9892 4.0132 10.546 4.32406C10.546 4.32406 7.9142 5.7416 4.91163 3.51714C4.55591 3.25366 3.96363 3.00663 3.52305 2.95914C2.71237 2.87154 1.57031 3.03646 1.57031 4.66177C1.57031 7.18177 1.70317 8.936 1.70317 10.3307" stroke="#173366" stroke-width="1.2" stroke-linecap="round" stroke-linejoin="round"/>
<path d="M3.9497 8.46027C3.83724 6.5257 3.53518 5.77519 3.90478 5.74159C4.89461 5.65159 4.8497 6.1465 7.36919 7.22633C8.88204 7.87467 10.2651 7.51776 11.1288 7.12827C11.2773 7.06098 11.441 7.03414 11.6033 7.05044C11.9414 6.91484 12.4164 6.8221 13.0831 6.84473C15.1527 6.91227 15.7826 10.7362 16.6831 11.4114C17.4339 11.9746 17.5896 17.5184 17.6204 19.3388C18.3954 19.4515 19.1828 19.4468 19.9563 19.3247C19.9956 17.2611 20.1667 11.9533 20.8898 11.4114C21.7896 10.7365 22.4194 6.91227 24.4898 6.84473C25.1489 6.8233 25.6212 6.9133 25.958 7.04667C26.0945 7.04464 26.2297 7.07273 26.354 7.12896C27.2177 7.5181 28.6008 7.87536 30.1136 7.22701C32.6336 6.14701 32.5882 5.65227 33.578 5.74227C33.9475 5.77656 33.803 6.6421 33.6905 8.57684" stroke="#173366" stroke-width="1.2" stroke-linecap="round" stroke-linejoin="round"/>
<path d="M16.6852 11.4106C15.7854 10.7356 15.1556 6.91141 13.0852 6.84387C12.4186 6.8221 11.9435 6.91484 11.6055 7.04958C11.7853 7.06723 11.9559 7.13737 12.0961 7.25128C12.2363 7.3652 12.3399 7.51784 12.394 7.69021L12.7338 8.77124C12.921 9.36773 13.1861 9.93688 13.5224 10.4639C13.6955 10.7351 13.8493 10.9919 13.9852 11.2342C14.7601 12.612 14.9811 14.2333 14.6034 15.7683C14.379 16.6825 14.2729 17.4202 14.2592 18.0546C15.0366 18.5588 16.1872 19.1296 17.6211 19.3371C17.5918 17.5174 17.4361 11.9737 16.6852 11.4106Z" stroke="#173366" stroke-width="1.2" stroke-linecap="round" stroke-linejoin="round"/>
<path d="M12.7796 9.46411C12.7796 9.46411 10.3698 10.1253 8.82422 11.2319" stroke="#173366" stroke-width="1.2" stroke-linecap="round" stroke-linejoin="round"/>
<path d="M8.71268 12.7921C9.29195 11.364 8.22693 9.58381 6.33391 8.81598C4.44089 8.04815 2.4367 8.58343 1.85744 10.0116C1.27818 11.4397 2.34319 13.2199 4.23622 13.9877C6.12924 14.7555 8.13342 14.2202 8.71268 12.7921Z" stroke="#173366" stroke-width="1.2" stroke-linecap="round" stroke-linejoin="round"/>
<path d="M24.5938 9.46411C24.5938 9.46411 27.0035 10.1253 28.5491 11.2319" stroke="#173366" stroke-width="1.2" stroke-linecap="round" stroke-linejoin="round"/>
<path d="M33.162 13.9942C35.0551 13.2264 36.1201 11.4462 35.5408 10.0181C34.9616 8.58994 32.9574 8.05466 31.0643 8.82249C29.1713 9.59032 28.1063 11.3705 28.6856 12.7986C29.2648 14.2268 31.269 14.762 33.162 13.9942Z" stroke="#173366" stroke-width="1.2" stroke-linecap="round" stroke-linejoin="round"/>
<path d="M3.98206 13.8663C3.98206 13.8663 3.7844 11.8949 5.2016 11.6242C6.6188 11.3535 7.0016 11.9391 7.0016 11.9391" stroke="#173366" stroke-width="1.2" stroke-linecap="round" stroke-linejoin="round"/>
<path d="M32.1043 8.54236C32.1043 8.54236 31.002 9.26236 31.8343 10.6338" stroke="#173366" stroke-width="1.2" stroke-linecap="round" stroke-linejoin="round"/>
<path d="M33.4002 13.8772C33.4002 13.8772 33.1626 12.2315 30.9805 12.2541" stroke="#173366" stroke-width="1.2" stroke-linecap="round" stroke-linejoin="round"/>
<path d="M4.66855 8.4707C4.66855 8.4707 4.7942 9.21727 3.98438 10.0496" stroke="#173366" stroke-width="1.2" stroke-linecap="round" stroke-linejoin="round"/>
</svg>
