<svg width="61" height="60" viewBox="0 0 61 60" fill="none" xmlns="http://www.w3.org/2000/svg">
<mask id="mask0_32_16082" style="mask-type:alpha" maskUnits="userSpaceOnUse" x="0" y="0" width="61" height="60">
<rect x="0.742188" width="60" height="60" fill="#D9D9D9"/>
</mask>
<g mask="url(#mask0_32_16082)">
<mask id="path-2-outside-1_32_16082" maskUnits="userSpaceOnUse" x="4.53906" y="3.80017" width="52" height="52" fill="black">
<rect fill="white" x="4.53906" y="3.80017" width="52" height="52"/>
<path fill-rule="evenodd" clip-rule="evenodd" d="M26.0587 13.1715C27.9184 15.6883 29.2085 18.3427 30.0511 21.3552C30.0773 21.4404 30.1144 21.5408 30.1515 21.6281V50.4132C30.1515 53.0545 32.3103 55.2002 34.9384 55.2002H40.5678C43.2091 55.2002 45.3548 53.0545 45.3548 50.4132V48.8132C46.1493 48.5032 46.695 47.8331 46.695 46.9535V43.5679C48.319 42.7733 49.3733 41.1995 49.3733 39.3638L49.3712 27.7054H51.4165C52.246 27.7054 52.246 26.4394 51.4165 26.4394H46.9766V22.8945H48.9979C49.8296 22.8945 49.8296 21.6284 48.9979 21.6284H40.4432C39.6115 21.6284 39.6115 22.8945 40.4432 22.8945H42.4645V26.4394H38.0246C37.193 26.4394 37.193 27.7054 38.0246 27.7054H40.083V39.3638C40.083 41.1996 41.1243 42.7734 42.7614 43.5679V46.9535C42.7614 47.8331 43.294 48.5032 44.0886 48.8132C44.0886 49.3589 44.0995 49.8806 44.0995 50.4132C44.0995 52.3603 42.5126 53.9472 40.5655 53.9472L34.9361 53.945C33.0021 53.945 31.4152 52.3582 31.4152 50.4111C31.4152 40.8242 31.4021 31.2262 31.4021 21.6259C31.4523 21.5386 31.4894 21.4382 31.5134 21.353C32.3429 18.3386 33.6329 15.684 35.4927 13.1694C35.89 12.6717 35.6433 12.2504 35.1565 12.0038C32.2686 10.454 29.2779 10.4649 26.39 12.0038C25.9098 12.2766 25.6876 12.7001 26.0587 13.1715ZM41.3493 36.0015H44.2393C45.0841 36.0015 45.0841 37.2654 44.2393 37.2654H41.3493V39.3631C41.3493 43.8007 48.1097 43.8007 48.1097 39.3631L48.1075 27.7047H41.3493V30.2608H44.2394C45.0841 30.2608 45.0841 31.5246 44.2394 31.5246H41.3493V33.1377H44.2394C45.0841 33.1377 45.0841 34.4038 44.2394 34.4038H41.3493L41.3493 36.0015ZM44.0276 43.9622V46.9506C44.0276 47.8695 45.429 47.8695 45.429 46.9506V43.9622C44.9073 44.0103 44.5362 44.0103 44.0276 43.9622ZM45.7149 22.8936H43.7307V26.4386H45.7149V22.8936ZM30.7842 19.4208C29.8543 16.9782 28.9004 15.042 27.4117 12.8856C29.9285 11.8072 31.6529 11.8204 34.1459 12.8856C32.6681 15.0422 31.701 16.9783 30.7842 19.4208ZM39.1534 9.98424C41.0023 11.2852 40.3933 11.8069 39.1403 13.4069C36.3005 17.0413 34.7267 20.5993 33.6963 25.0893C33.3755 26.5409 33.3493 27.2721 34.1547 28.5621C35.9774 31.45 32.9389 37.6382 32.2338 41.0129C32.0592 41.8183 33.2881 42.0803 33.4606 41.2726C33.9081 39.1662 34.552 37.4658 35.185 35.4443C35.9163 33.0999 36.6235 30.1357 35.2221 27.8915C34.6022 26.9005 34.6764 26.4792 34.9253 25.3747C35.9053 21.057 37.4049 17.6716 40.1335 14.1768C40.8407 13.26 41.4105 12.627 41.6091 11.4483C45.0819 10.9877 45.8634 8.62151 48.3801 6.92106C52.211 4.31692 56.5264 8.08885 54.0229 12.1555C53.0428 13.7293 51.6174 14.5107 49.9432 15.1831L49.7947 15.0085C48.9522 14.0284 47.4897 13.7686 46.2608 14.0175C44.6978 14.3406 42.9734 15.7179 43.3358 17.4903C43.7068 19.265 45.8417 19.8478 47.3914 19.5247C48.8037 19.2388 50.3164 18.1364 50.3666 16.5713V16.3596C52.3137 15.5912 53.9639 14.6483 55.0924 12.8125C58.2925 7.61515 52.6106 2.52041 47.6771 5.88218C45.2083 7.55424 44.6386 9.89859 41.2291 10.2238C40.8209 9.68902 40.4367 9.35504 39.8779 8.95779C34.0127 4.82789 27.5646 4.82789 21.6837 8.95779C21.1271 9.35507 20.7408 9.68904 20.3326 10.2238C16.9229 9.90076 16.3533 7.55642 13.8951 5.88218C8.94446 2.51628 3.26498 7.61319 6.47588 12.8086C7.60438 14.6444 9.24152 15.5873 11.1886 16.3557L11.2017 16.5674C11.2519 18.1325 12.7515 19.2348 14.166 19.5208C15.7289 19.8417 17.8616 19.2589 18.2217 17.4864C18.5928 15.714 16.8705 14.3366 15.2967 14.0136C14.0808 13.7669 12.6183 14.0267 11.7736 15.0046L11.6121 15.1792C9.94872 14.5069 8.51243 13.7254 7.54548 12.1516C5.03958 8.085 9.35505 4.31323 13.1883 6.91715C15.692 8.61759 16.4865 10.9837 19.9593 11.4444C20.158 12.6231 20.7168 13.2561 21.4218 14.1729C24.1525 17.6698 25.65 21.0551 26.6432 25.3708C26.892 26.4753 26.9662 26.8966 26.3463 27.8876C24.9319 30.1315 25.6522 33.0958 26.3834 35.4404C27.0034 37.4617 27.6604 39.1599 28.1078 41.2687C28.2694 42.0764 29.4983 41.8144 29.3346 41.009C28.6164 37.6365 25.591 31.4484 27.4006 28.5582C28.2191 27.2682 28.1952 26.5369 27.859 25.0854C26.8418 20.5975 25.2549 17.0375 22.415 13.403C21.1751 11.8052 20.5553 11.2813 22.4019 9.98033C27.8437 6.15162 33.7224 6.15117 39.1534 9.98424ZM47.1404 18.292C47.9961 18.1195 49.2993 17.3381 49.0875 16.3078C48.878 15.2666 47.3631 15.0679 46.5096 15.2404C45.667 15.4259 44.3529 16.1964 44.5625 17.2376C44.7851 18.268 46.2847 18.4644 47.1404 18.292ZM14.4135 18.292C13.5709 18.1195 12.2568 17.3381 12.4664 16.3078C12.689 15.2666 14.1908 15.0679 15.0465 15.2404C15.9021 15.4259 17.2053 16.1964 16.9936 17.2376C16.7819 18.268 15.2692 18.4644 14.4135 18.292Z"/>
</mask>
<path fill-rule="evenodd" clip-rule="evenodd" d="M26.0587 13.1715C27.9184 15.6883 29.2085 18.3427 30.0511 21.3552C30.0773 21.4404 30.1144 21.5408 30.1515 21.6281V50.4132C30.1515 53.0545 32.3103 55.2002 34.9384 55.2002H40.5678C43.2091 55.2002 45.3548 53.0545 45.3548 50.4132V48.8132C46.1493 48.5032 46.695 47.8331 46.695 46.9535V43.5679C48.319 42.7733 49.3733 41.1995 49.3733 39.3638L49.3712 27.7054H51.4165C52.246 27.7054 52.246 26.4394 51.4165 26.4394H46.9766V22.8945H48.9979C49.8296 22.8945 49.8296 21.6284 48.9979 21.6284H40.4432C39.6115 21.6284 39.6115 22.8945 40.4432 22.8945H42.4645V26.4394H38.0246C37.193 26.4394 37.193 27.7054 38.0246 27.7054H40.083V39.3638C40.083 41.1996 41.1243 42.7734 42.7614 43.5679V46.9535C42.7614 47.8331 43.294 48.5032 44.0886 48.8132C44.0886 49.3589 44.0995 49.8806 44.0995 50.4132C44.0995 52.3603 42.5126 53.9472 40.5655 53.9472L34.9361 53.945C33.0021 53.945 31.4152 52.3582 31.4152 50.4111C31.4152 40.8242 31.4021 31.2262 31.4021 21.6259C31.4523 21.5386 31.4894 21.4382 31.5134 21.353C32.3429 18.3386 33.6329 15.684 35.4927 13.1694C35.89 12.6717 35.6433 12.2504 35.1565 12.0038C32.2686 10.454 29.2779 10.4649 26.39 12.0038C25.9098 12.2766 25.6876 12.7001 26.0587 13.1715ZM41.3493 36.0015H44.2393C45.0841 36.0015 45.0841 37.2654 44.2393 37.2654H41.3493V39.3631C41.3493 43.8007 48.1097 43.8007 48.1097 39.3631L48.1075 27.7047H41.3493V30.2608H44.2394C45.0841 30.2608 45.0841 31.5246 44.2394 31.5246H41.3493V33.1377H44.2394C45.0841 33.1377 45.0841 34.4038 44.2394 34.4038H41.3493L41.3493 36.0015ZM44.0276 43.9622V46.9506C44.0276 47.8695 45.429 47.8695 45.429 46.9506V43.9622C44.9073 44.0103 44.5362 44.0103 44.0276 43.9622ZM45.7149 22.8936H43.7307V26.4386H45.7149V22.8936ZM30.7842 19.4208C29.8543 16.9782 28.9004 15.042 27.4117 12.8856C29.9285 11.8072 31.6529 11.8204 34.1459 12.8856C32.6681 15.0422 31.701 16.9783 30.7842 19.4208ZM39.1534 9.98424C41.0023 11.2852 40.3933 11.8069 39.1403 13.4069C36.3005 17.0413 34.7267 20.5993 33.6963 25.0893C33.3755 26.5409 33.3493 27.2721 34.1547 28.5621C35.9774 31.45 32.9389 37.6382 32.2338 41.0129C32.0592 41.8183 33.2881 42.0803 33.4606 41.2726C33.9081 39.1662 34.552 37.4658 35.185 35.4443C35.9163 33.0999 36.6235 30.1357 35.2221 27.8915C34.6022 26.9005 34.6764 26.4792 34.9253 25.3747C35.9053 21.057 37.4049 17.6716 40.1335 14.1768C40.8407 13.26 41.4105 12.627 41.6091 11.4483C45.0819 10.9877 45.8634 8.62151 48.3801 6.92106C52.211 4.31692 56.5264 8.08885 54.0229 12.1555C53.0428 13.7293 51.6174 14.5107 49.9432 15.1831L49.7947 15.0085C48.9522 14.0284 47.4897 13.7686 46.2608 14.0175C44.6978 14.3406 42.9734 15.7179 43.3358 17.4903C43.7068 19.265 45.8417 19.8478 47.3914 19.5247C48.8037 19.2388 50.3164 18.1364 50.3666 16.5713V16.3596C52.3137 15.5912 53.9639 14.6483 55.0924 12.8125C58.2925 7.61515 52.6106 2.52041 47.6771 5.88218C45.2083 7.55424 44.6386 9.89859 41.2291 10.2238C40.8209 9.68902 40.4367 9.35504 39.8779 8.95779C34.0127 4.82789 27.5646 4.82789 21.6837 8.95779C21.1271 9.35507 20.7408 9.68904 20.3326 10.2238C16.9229 9.90076 16.3533 7.55642 13.8951 5.88218C8.94446 2.51628 3.26498 7.61319 6.47588 12.8086C7.60438 14.6444 9.24152 15.5873 11.1886 16.3557L11.2017 16.5674C11.2519 18.1325 12.7515 19.2348 14.166 19.5208C15.7289 19.8417 17.8616 19.2589 18.2217 17.4864C18.5928 15.714 16.8705 14.3366 15.2967 14.0136C14.0808 13.7669 12.6183 14.0267 11.7736 15.0046L11.6121 15.1792C9.94872 14.5069 8.51243 13.7254 7.54548 12.1516C5.03958 8.085 9.35505 4.31323 13.1883 6.91715C15.692 8.61759 16.4865 10.9837 19.9593 11.4444C20.158 12.6231 20.7168 13.2561 21.4218 14.1729C24.1525 17.6698 25.65 21.0551 26.6432 25.3708C26.892 26.4753 26.9662 26.8966 26.3463 27.8876C24.9319 30.1315 25.6522 33.0958 26.3834 35.4404C27.0034 37.4617 27.6604 39.1599 28.1078 41.2687C28.2694 42.0764 29.4983 41.8144 29.3346 41.009C28.6164 37.6365 25.591 31.4484 27.4006 28.5582C28.2191 27.2682 28.1952 26.5369 27.859 25.0854C26.8418 20.5975 25.2549 17.0375 22.415 13.403C21.1751 11.8052 20.5553 11.2813 22.4019 9.98033C27.8437 6.15162 33.7224 6.15117 39.1534 9.98424ZM47.1404 18.292C47.9961 18.1195 49.2993 17.3381 49.0875 16.3078C48.878 15.2666 47.3631 15.0679 46.5096 15.2404C45.667 15.4259 44.3529 16.1964 44.5625 17.2376C44.7851 18.268 46.2847 18.4644 47.1404 18.292ZM14.4135 18.292C13.5709 18.1195 12.2568 17.3381 12.4664 16.3078C12.689 15.2666 14.1908 15.0679 15.0465 15.2404C15.9021 15.4259 17.2053 16.1964 16.9936 17.2376C16.7819 18.268 15.2692 18.4644 14.4135 18.292Z" fill="#173366"/>
<path fill-rule="evenodd" clip-rule="evenodd" d="M26.0587 13.1715C27.9184 15.6883 29.2085 18.3427 30.0511 21.3552C30.0773 21.4404 30.1144 21.5408 30.1515 21.6281V50.4132C30.1515 53.0545 32.3103 55.2002 34.9384 55.2002H40.5678C43.2091 55.2002 45.3548 53.0545 45.3548 50.4132V48.8132C46.1493 48.5032 46.695 47.8331 46.695 46.9535V43.5679C48.319 42.7733 49.3733 41.1995 49.3733 39.3638L49.3712 27.7054H51.4165C52.246 27.7054 52.246 26.4394 51.4165 26.4394H46.9766V22.8945H48.9979C49.8296 22.8945 49.8296 21.6284 48.9979 21.6284H40.4432C39.6115 21.6284 39.6115 22.8945 40.4432 22.8945H42.4645V26.4394H38.0246C37.193 26.4394 37.193 27.7054 38.0246 27.7054H40.083V39.3638C40.083 41.1996 41.1243 42.7734 42.7614 43.5679V46.9535C42.7614 47.8331 43.294 48.5032 44.0886 48.8132C44.0886 49.3589 44.0995 49.8806 44.0995 50.4132C44.0995 52.3603 42.5126 53.9472 40.5655 53.9472L34.9361 53.945C33.0021 53.945 31.4152 52.3582 31.4152 50.4111C31.4152 40.8242 31.4021 31.2262 31.4021 21.6259C31.4523 21.5386 31.4894 21.4382 31.5134 21.353C32.3429 18.3386 33.6329 15.684 35.4927 13.1694C35.89 12.6717 35.6433 12.2504 35.1565 12.0038C32.2686 10.454 29.2779 10.4649 26.39 12.0038C25.9098 12.2766 25.6876 12.7001 26.0587 13.1715ZM41.3493 36.0015H44.2393C45.0841 36.0015 45.0841 37.2654 44.2393 37.2654H41.3493V39.3631C41.3493 43.8007 48.1097 43.8007 48.1097 39.3631L48.1075 27.7047H41.3493V30.2608H44.2394C45.0841 30.2608 45.0841 31.5246 44.2394 31.5246H41.3493V33.1377H44.2394C45.0841 33.1377 45.0841 34.4038 44.2394 34.4038H41.3493L41.3493 36.0015ZM44.0276 43.9622V46.9506C44.0276 47.8695 45.429 47.8695 45.429 46.9506V43.9622C44.9073 44.0103 44.5362 44.0103 44.0276 43.9622ZM45.7149 22.8936H43.7307V26.4386H45.7149V22.8936ZM30.7842 19.4208C29.8543 16.9782 28.9004 15.042 27.4117 12.8856C29.9285 11.8072 31.6529 11.8204 34.1459 12.8856C32.6681 15.0422 31.701 16.9783 30.7842 19.4208ZM39.1534 9.98424C41.0023 11.2852 40.3933 11.8069 39.1403 13.4069C36.3005 17.0413 34.7267 20.5993 33.6963 25.0893C33.3755 26.5409 33.3493 27.2721 34.1547 28.5621C35.9774 31.45 32.9389 37.6382 32.2338 41.0129C32.0592 41.8183 33.2881 42.0803 33.4606 41.2726C33.9081 39.1662 34.552 37.4658 35.185 35.4443C35.9163 33.0999 36.6235 30.1357 35.2221 27.8915C34.6022 26.9005 34.6764 26.4792 34.9253 25.3747C35.9053 21.057 37.4049 17.6716 40.1335 14.1768C40.8407 13.26 41.4105 12.627 41.6091 11.4483C45.0819 10.9877 45.8634 8.62151 48.3801 6.92106C52.211 4.31692 56.5264 8.08885 54.0229 12.1555C53.0428 13.7293 51.6174 14.5107 49.9432 15.1831L49.7947 15.0085C48.9522 14.0284 47.4897 13.7686 46.2608 14.0175C44.6978 14.3406 42.9734 15.7179 43.3358 17.4903C43.7068 19.265 45.8417 19.8478 47.3914 19.5247C48.8037 19.2388 50.3164 18.1364 50.3666 16.5713V16.3596C52.3137 15.5912 53.9639 14.6483 55.0924 12.8125C58.2925 7.61515 52.6106 2.52041 47.6771 5.88218C45.2083 7.55424 44.6386 9.89859 41.2291 10.2238C40.8209 9.68902 40.4367 9.35504 39.8779 8.95779C34.0127 4.82789 27.5646 4.82789 21.6837 8.95779C21.1271 9.35507 20.7408 9.68904 20.3326 10.2238C16.9229 9.90076 16.3533 7.55642 13.8951 5.88218C8.94446 2.51628 3.26498 7.61319 6.47588 12.8086C7.60438 14.6444 9.24152 15.5873 11.1886 16.3557L11.2017 16.5674C11.2519 18.1325 12.7515 19.2348 14.166 19.5208C15.7289 19.8417 17.8616 19.2589 18.2217 17.4864C18.5928 15.714 16.8705 14.3366 15.2967 14.0136C14.0808 13.7669 12.6183 14.0267 11.7736 15.0046L11.6121 15.1792C9.94872 14.5069 8.51243 13.7254 7.54548 12.1516C5.03958 8.085 9.35505 4.31323 13.1883 6.91715C15.692 8.61759 16.4865 10.9837 19.9593 11.4444C20.158 12.6231 20.7168 13.2561 21.4218 14.1729C24.1525 17.6698 25.65 21.0551 26.6432 25.3708C26.892 26.4753 26.9662 26.8966 26.3463 27.8876C24.9319 30.1315 25.6522 33.0958 26.3834 35.4404C27.0034 37.4617 27.6604 39.1599 28.1078 41.2687C28.2694 42.0764 29.4983 41.8144 29.3346 41.009C28.6164 37.6365 25.591 31.4484 27.4006 28.5582C28.2191 27.2682 28.1952 26.5369 27.859 25.0854C26.8418 20.5975 25.2549 17.0375 22.415 13.403C21.1751 11.8052 20.5553 11.2813 22.4019 9.98033C27.8437 6.15162 33.7224 6.15117 39.1534 9.98424ZM47.1404 18.292C47.9961 18.1195 49.2993 17.3381 49.0875 16.3078C48.878 15.2666 47.3631 15.0679 46.5096 15.2404C45.667 15.4259 44.3529 16.1964 44.5625 17.2376C44.7851 18.268 46.2847 18.4644 47.1404 18.292ZM14.4135 18.292C13.5709 18.1195 12.2568 17.3381 12.4664 16.3078C12.689 15.2666 14.1908 15.0679 15.0465 15.2404C15.9021 15.4259 17.2053 16.1964 16.9936 17.2376C16.7819 18.268 15.2692 18.4644 14.4135 18.292Z" stroke="#173366" stroke-width="0.4" mask="url(#path-2-outside-1_32_16082)"/>
</g>
</svg>
