<svg width="61" height="60" viewBox="0 0 61 60" fill="none" xmlns="http://www.w3.org/2000/svg">
<mask id="mask0_32_16095" style="mask-type:alpha" maskUnits="userSpaceOnUse" x="0" y="0" width="61" height="60">
<rect x="0.742188" width="60" height="60" fill="#D9D9D9"/>
</mask>
<g mask="url(#mask0_32_16095)">
<path d="M53.3418 34.6149C52.8599 34.4834 52.378 34.7463 52.2466 35.1844C49.8809 42.9382 42.8274 48.1518 34.6797 48.1518C25.3046 48.1518 17.4632 41.1424 16.4118 31.8549C16.3242 31.1978 15.8861 30.7159 15.448 30.3216C15.3166 30.1464 15.0537 29.9273 14.9661 29.7959C15.0537 29.6645 15.2728 29.4016 15.448 29.2702C15.8423 28.8321 16.3242 28.3502 16.4118 27.7369C17.4632 18.3618 25.3053 11.3524 34.6797 11.3524C42.7839 11.3524 49.8816 16.5657 52.2466 24.3198C52.378 24.8017 52.8599 25.0208 53.3418 24.8893C53.8237 24.7579 54.0428 24.276 53.9113 23.7941C51.3266 15.2952 43.5725 9.6001 34.679 9.6001C25.5233 9.6001 17.7247 15.6895 15.3155 24.188C14.0889 23.2681 12.5994 22.7424 11.0223 22.7424H4.01289C3.531 22.7424 3.13672 23.1366 3.13672 23.6185C3.13672 24.1004 3.531 24.4947 4.01289 24.4947H11.0223C12.468 24.4947 13.8698 25.108 14.8336 26.1594C14.746 26.5537 14.7022 26.9918 14.6584 27.4299C14.6146 27.5613 14.3517 27.8242 14.1765 27.9994C13.7384 28.4813 13.2127 29.007 13.2127 29.7517C13.2127 30.4965 13.7384 31.0222 14.1765 31.5041C14.3517 31.6793 14.6146 31.9422 14.6584 32.0298C14.7022 32.4679 14.7898 32.906 14.8336 33.3441C13.8698 34.3955 12.468 35.0088 11.0223 35.0088H4.01289C3.531 35.0088 3.13672 35.4031 3.13672 35.885C3.13672 36.3669 3.531 36.7611 4.01289 36.7611H11.0223C12.5994 36.7611 14.0889 36.2354 15.3155 35.3155C17.725 43.8143 25.5226 49.9034 34.679 49.9034C43.5725 49.9034 51.3263 44.2083 53.9548 35.7094C54.0862 35.2275 53.8234 34.7456 53.3415 34.6142L53.3418 34.6149Z" fill="#173366"/>
<path d="M37.4837 30.1455C37.1332 30.4084 36.7827 30.6274 35.9942 30.5398C35.5999 30.496 35.2056 30.1017 34.7675 29.6636C34.1104 29.0503 33.278 28.2179 32.0076 28.0427C32.0076 27.9551 32.0076 27.8237 31.9638 27.736C31.9638 27.6922 31.92 27.6046 31.92 27.5608C31.4381 26.2465 30.2552 25.4142 28.8534 25.4142C27.4077 25.3704 22.8516 26.6408 22.8516 28.8751C22.8516 31.1093 27.4077 32.3798 28.8534 32.3798C30.2552 32.3798 31.4381 31.5474 31.92 30.2331C31.92 30.1893 31.9638 30.1455 31.9638 30.0579C31.9638 29.9703 32.0076 29.8827 32.0076 29.7951C32.5771 29.9265 33.0152 30.3208 33.5409 30.8903C34.1104 31.4598 34.7675 32.1169 35.7751 32.2483C35.9942 32.2921 36.1694 32.2921 36.3446 32.2921C37.3522 32.2921 38.0532 31.8979 38.5351 31.5474C38.9294 31.2407 39.017 30.715 38.7103 30.3208C38.4036 29.9265 37.8779 29.8389 37.4837 30.1455ZM30.2556 29.7074C30.0803 30.1017 29.7299 30.6274 28.8537 30.6274C27.4518 30.6274 24.8671 29.4446 24.6043 28.8751C24.8233 28.2617 27.4518 27.1227 28.8537 27.1227C29.7299 27.1227 30.0803 27.6922 30.2556 28.0427C30.2994 28.6122 30.2994 29.1817 30.2556 29.7074Z" fill="#173366"/>
<path d="M58.3386 27.1231C58.3386 26.6412 57.9443 26.247 57.4624 26.247H45.8093C46.0721 25.546 46.4664 24.7575 47.0359 24.188C48.2626 22.8737 48.3064 20.8147 47.2112 19.4566C46.4664 18.5366 45.5902 17.7043 44.6703 16.9595C38.5808 12.2282 29.6435 12.5348 23.9049 17.7043C20.444 20.7709 18.4727 25.1959 18.4727 29.7955C18.4727 34.395 20.444 38.8201 23.9049 41.8867C26.9277 44.6028 30.8267 45.9609 34.6819 45.9609C38.2742 45.9609 41.8665 44.778 44.802 42.4124C45.4592 41.8867 46.1163 41.2733 46.6858 40.66C47.9124 39.302 47.9563 37.2429 46.7296 35.7973C46.1163 35.0525 45.722 34.1325 45.4592 33.2564H57.4627C57.9446 33.2564 58.3389 32.8621 58.3389 32.3802C58.3389 31.8983 57.9446 31.504 57.4627 31.504H43.05L40.7282 27.9993H57.4631C57.945 27.9993 58.3386 27.605 58.3386 27.1231ZM38.3183 27.605L41.823 32.8621C41.9983 33.1249 42.2611 33.2564 42.5678 33.2564H43.663C43.9697 34.3954 44.4516 35.7973 45.3715 36.9363C46.0287 37.681 45.9849 38.7762 45.3715 39.4772C44.8458 40.0467 44.3201 40.5724 43.7068 41.0543C38.2745 45.4352 30.2572 45.2161 25.0443 40.5724C22.0215 37.8125 20.2254 33.8697 20.2254 29.7955C20.2254 25.7213 21.9777 21.7347 25.0443 19.0185C30.1699 14.4186 38.0993 14.1558 43.5316 18.3614C44.3639 19.0185 45.1525 19.7633 45.8096 20.5956C46.3791 21.2966 46.3353 22.348 45.722 23.0489C44.802 24.0127 44.2763 25.2832 43.9259 26.3346H39.0631C38.7564 26.3346 38.4498 26.5098 38.2745 26.8165C38.1431 26.9917 38.1431 27.3422 38.3183 27.605Z" fill="#173366"/>
<path d="M11.4604 30.6279H9.62041C8.569 30.6279 7.60521 31.0222 6.90427 31.767C6.50999 32.1612 5.98428 32.3803 5.41477 32.3803H4.01289C3.531 32.3803 3.13672 32.7746 3.13672 33.2565C3.13672 33.7383 3.531 34.1326 4.01289 34.1326H5.41477C6.46618 34.1326 7.42997 33.7383 8.13091 32.9936C8.52519 32.5993 9.05089 32.3803 9.62041 32.3803H11.4604C11.9423 32.3803 12.3365 31.986 12.3365 31.5041C12.3365 31.0222 11.9423 30.6279 11.4604 30.6279Z" fill="#173366"/>
<path d="M11.4604 27.123H9.62041C9.05089 27.123 8.52519 26.9039 8.13091 26.5096C7.38616 25.7649 6.42237 25.3706 5.41477 25.3706H4.01289C3.531 25.3706 3.13672 25.7649 3.13672 26.2468C3.13672 26.7287 3.531 27.123 4.01289 27.123H5.41477C5.98428 27.123 6.50999 27.342 6.90427 27.7363C7.64901 28.481 8.61281 28.8753 9.62041 28.8753H11.4604C11.9423 28.8753 12.3365 28.481 12.3365 27.9991C12.3365 27.5172 11.9423 27.123 11.4604 27.123Z" fill="#173366"/>
</g>
</svg>
