<svg width="59" height="60" viewBox="0 0 59 60" fill="none" xmlns="http://www.w3.org/2000/svg">
<path d="M10.9907 1.17188C13.0109 8.71116 11.6629 14.9136 9.68756 20.9237M7.25813 27.9217C6.36118 30.5625 5.54883 33.252 5.04938 36.0856M4.92188 46.5937C5.51578 50.3028 6.84341 54.3352 9.23275 58.8281" stroke="#173366" stroke-width="2.34376" stroke-miterlimit="22.9256" stroke-linecap="round" stroke-linejoin="round"/>
<path d="M48.4928 1.17188C47.0847 6.42717 47.3136 11.0327 48.25 15.3765M50.2632 22.3121C53.8542 32.77 58.7163 42.9097 50.2508 58.8281" stroke="#173366" stroke-width="2.34376" stroke-miterlimit="22.9256" stroke-linecap="round" stroke-linejoin="round"/>
<path d="M37.008 45.1172L29.7423 50.8593L22.4766 45.1172" stroke="#173366" stroke-width="2.34376" stroke-miterlimit="22.9256" stroke-linecap="round" stroke-linejoin="round"/>
<path d="M29.7422 50.8591V58.828" stroke="#173366" stroke-width="2.34376" stroke-miterlimit="22.9256" stroke-linecap="round" stroke-linejoin="round"/>
<path fill-rule="evenodd" clip-rule="evenodd" d="M2.08594 23.1383L7.05773 18.1665L14.1012 26.0386L9.95801 30.1817L2.08594 23.1383Z" stroke="#173366" stroke-width="2.34376" stroke-miterlimit="22.9256" stroke-linecap="round" stroke-linejoin="round"/>
<path d="M12.4453 28.5244L19.4474 35.5264" stroke="#173366" stroke-width="2.34376" stroke-miterlimit="22.9256" stroke-linecap="round" stroke-linejoin="round"/>
<path fill-rule="evenodd" clip-rule="evenodd" d="M57.398 15.7751L52.4263 10.8032L45.3828 18.6753L49.526 22.8186L57.398 15.7751Z" stroke="#173366" stroke-width="2.34376" stroke-miterlimit="22.9256" stroke-linecap="round" stroke-linejoin="round"/>
<path d="M47.0411 21.1611L40.0391 28.1632" stroke="#173366" stroke-width="2.34376" stroke-miterlimit="22.9256" stroke-linecap="round" stroke-linejoin="round"/>
<path d="M17.875 38.1921C18.8109 36.5711 20.157 35.2249 21.778 34.2891" stroke="#173366" stroke-width="2.34376" stroke-miterlimit="22.9256" stroke-linecap="round" stroke-linejoin="round"/>
<path d="M41.3484 30.6921C40.4125 29.0711 39.0664 27.7249 37.4453 26.7891" stroke="#173366" stroke-width="2.34376" stroke-miterlimit="22.9256" stroke-linecap="round" stroke-linejoin="round"/>
<path d="M4.53906 41.3342H4.53988" stroke="#173366" stroke-width="2.34376" stroke-miterlimit="2.6131" stroke-linecap="round" stroke-linejoin="round"/>
</svg>
