<svg width="46" height="44" viewBox="0 0 46 44" fill="none" xmlns="http://www.w3.org/2000/svg">
<path d="M24.1867 4.83293C24.6285 4.83293 24.9867 4.47473 24.9867 4.03293V2.43293C24.9867 1.99113 24.6285 1.63293 24.1867 1.63293C23.7449 1.63293 23.3867 1.99113 23.3867 2.43293V4.03293C23.3867 4.47473 23.7449 4.83293 24.1867 4.83293Z" fill="#173366"/>
<path d="M24.1867 6.43298C23.7449 6.43298 23.3867 6.79118 23.3867 7.23298V8.83298C23.3867 9.27478 23.7449 9.63298 24.1867 9.63298C24.6285 9.63298 24.9867 9.27478 24.9867 8.83298V7.23298C24.9867 6.79118 24.6285 6.43298 24.1867 6.43298Z" fill="#173366"/>
<path d="M20.9875 6.43301H22.5875C23.0293 6.43301 23.3875 6.07481 23.3875 5.63301C23.3875 5.19121 23.0293 4.83301 22.5875 4.83301H20.9875C20.5457 4.83301 20.1875 5.19121 20.1875 5.63301C20.1875 6.07481 20.5457 6.43301 20.9875 6.43301Z" fill="#173366"/>
<path d="M25.7883 6.43301H27.3883C27.8301 6.43301 28.1883 6.07481 28.1883 5.63301C28.1883 5.19121 27.8301 4.83301 27.3883 4.83301H25.7883C25.3465 4.83301 24.9883 5.19121 24.9883 5.63301C24.9883 6.07481 25.3465 6.43301 25.7883 6.43301Z" fill="#173366"/>
<path d="M45.3052 17.2207C45.3052 11.5257 40.6724 6.89294 34.9774 6.89294C33.7066 6.89294 32.513 7.07414 31.4294 7.43114C28.4196 8.42374 26.4172 11.4037 26.447 14.8475C26.4602 16.3611 25.704 16.8757 25.1342 17.1311C25.0452 17.1709 24.9642 17.2269 24.8956 17.2955C24.8746 17.3163 24.851 17.3435 24.8328 17.3665C24.7274 17.4981 24.666 17.6603 24.6582 17.8289C24.5798 19.5159 25.0776 21.1433 25.9044 22.5967C25.3494 22.7667 24.3958 23.1001 23.3602 23.6269C23.2458 22.1035 22.7854 19.5131 21.0452 17.7069C19.7592 16.3729 18.0202 15.7011 15.8952 15.7463C14.0796 15.7791 12.6854 15.2819 11.8062 14.2807C10.2566 12.5163 10.6448 9.67715 10.6516 9.63195C10.7164 9.19555 10.4156 8.78854 9.97943 8.72294C9.54463 8.65414 9.13483 8.95774 9.06923 9.39474C9.04743 9.54054 8.55443 12.9919 10.5962 15.3271C11.7986 16.7029 13.584 17.3779 15.9204 17.3463C17.5926 17.3155 18.9232 17.8135 19.8884 18.8123C21.667 20.6525 21.795 23.7137 21.7948 24.5619C20.9498 25.1617 20.1744 25.9109 19.631 26.8155C19.4216 25.9271 19.1202 25.1149 18.709 24.4721C17.8488 23.1267 16.7636 22.8827 16.0058 22.8705C14.293 22.8971 12.8662 23.8293 11.7822 24.9037C10.8814 24.0557 9.73143 23.2055 8.53943 23.5563C7.32103 23.9145 6.53163 25.3133 5.81403 28.3853C5.41983 30.0717 5.96763 31.1005 6.49643 31.6669C7.57963 32.8271 9.48863 33.0817 10.9582 33.0817C11.4784 33.0817 11.941 33.0497 12.2948 33.0147C12.078 35.5137 12.3346 38.7563 14.532 40.8863C15.8304 42.1449 17.8362 42.7921 20.3394 42.7921C21.3852 42.7921 22.5176 42.6793 23.721 42.4503C27.2054 41.7885 30.896 40.1957 33.3522 38.2929C39.5352 33.5041 39.6762 28.8625 39.504 27.2611C42.9196 25.3083 45.3052 21.2715 45.3052 17.2207ZM37.8446 26.3109C37.4372 26.4823 37.2462 26.9515 37.418 27.3585C37.5162 27.5913 37.7144 27.7417 37.9396 27.8061C37.9912 29.3257 37.5054 33.0531 32.3724 37.0289C27.5884 40.7331 18.754 42.7503 15.6454 39.7383C12.4294 36.6207 14.477 29.9519 14.4982 29.8851C14.6306 29.4637 14.397 29.0143 13.976 28.8819C13.5518 28.7487 13.1056 28.9827 12.9724 29.4033C12.9422 29.4987 12.7082 30.2611 12.511 31.3767C11.3546 31.5355 8.66903 31.6517 7.66463 30.5743C7.27783 30.1591 7.18183 29.5621 7.37163 28.7497C8.06623 25.7771 8.68383 25.1821 8.99043 25.0919C9.18043 25.0359 9.66583 25.1063 10.7286 26.1103C9.93083 27.1575 9.47643 28.0771 9.43363 28.1659C9.24263 28.5635 9.40983 29.0409 9.80743 29.2327C10.205 29.4253 10.6836 29.2573 10.8754 28.8601C10.8962 28.8163 13.0102 24.5175 16.0304 24.4711C16.2198 24.4645 16.8004 24.4589 17.3608 25.3347C18.698 27.4253 18.633 32.3187 17.837 33.9733C17.6456 34.3717 17.8132 34.8495 18.2112 35.0413C18.3234 35.0949 18.4412 35.1203 18.5576 35.1203C18.8552 35.1203 19.1412 34.9535 19.279 34.6671C19.5878 34.0251 19.813 33.0441 19.9252 31.9187C19.9686 31.9603 20.0006 32.0067 20.0466 32.0471C21.8024 33.5873 25.2598 33.9267 27.968 33.9267C29.8278 33.9267 31.3344 33.7665 31.6926 33.7247C32.1316 33.6739 32.4462 33.2771 32.3954 32.8383C32.345 32.3993 31.9474 32.0855 31.509 32.1355C29.3136 32.3891 23.163 32.6527 21.1016 30.8437C20.6798 30.4737 20.4794 30.0593 20.4716 29.5395C20.4216 26.3063 25.0106 24.4509 26.7834 24.0087C26.802 24.0041 26.8152 23.9909 26.8332 23.9851C27.5152 24.8721 28.3054 25.6661 29.135 26.3287C27.489 26.7939 26.1662 27.5111 26.0904 27.5529C25.7028 27.7651 25.5604 28.2509 25.7728 28.6385C25.9182 28.9041 26.1924 29.0545 26.4752 29.0545C26.6048 29.0545 26.7366 29.0229 26.8584 28.9561C26.881 28.9439 29.153 27.7119 31.2474 27.5519C31.6306 27.5227 31.9286 27.2219 31.9712 26.8397C32.008 26.5107 31.8314 26.1971 31.547 26.0439C28.9244 24.5471 26.3482 21.4751 26.2524 18.3489C27.4426 17.6317 28.0606 16.4267 28.0466 14.8333C28.0232 12.0883 29.5838 9.72434 31.9298 8.95054C32.8516 8.64654 33.8766 8.49274 34.977 8.49274C39.7894 8.49274 43.7048 12.4079 43.7048 17.2205C43.7052 21.0567 41.2404 24.8793 37.8446 26.3109Z" fill="#173366"/>
<path d="M29.5891 18.7304C30.0309 18.7304 30.3891 18.3722 30.3891 17.9304C30.3891 17.4885 30.0309 17.1304 29.5891 17.1304C29.1472 17.1304 28.7891 17.4885 28.7891 17.9304C28.7891 18.3722 29.1472 18.7304 29.5891 18.7304Z" fill="#173366"/>
<path d="M35.1794 2.47757C35.6518 2.47757 36.0346 2.09457 36.0346 1.62237C36.0346 1.15017 35.6516 0.766968 35.1794 0.766968C34.7072 0.766968 34.3242 1.14997 34.3242 1.62237C34.3242 2.09477 34.707 2.47757 35.1794 2.47757Z" fill="#173366"/>
<path d="M14.3786 6.47757C14.851 6.47757 15.2338 6.09457 15.2338 5.62237C15.2338 5.15017 14.8508 4.76697 14.3786 4.76697C13.9064 4.76697 13.5234 5.14997 13.5234 5.62237C13.5234 6.09477 13.9062 6.47757 14.3786 6.47757Z" fill="#173366"/>
<path d="M2.9875 37.6329C1.4437 37.6329 0.1875 38.8891 0.1875 40.4329C0.1875 41.9767 1.4437 43.2329 2.9875 43.2329C4.5313 43.2329 5.7875 41.9767 5.7875 40.4329C5.7875 38.8891 4.5313 37.6329 2.9875 37.6329ZM2.9875 41.6329C2.3257 41.6329 1.7875 41.0947 1.7875 40.4329C1.7875 39.7711 2.3257 39.2329 2.9875 39.2329C3.6493 39.2329 4.1875 39.7711 4.1875 40.4329C4.1875 41.0947 3.6493 41.6329 2.9875 41.6329Z" fill="#173366"/>
</svg>
