<svg width="51" height="60" viewBox="0 0 51 60" fill="none" xmlns="http://www.w3.org/2000/svg">
<path d="M19.6484 7.6273C23.6362 5.80773 27.8738 5.81113 31.8607 7.63726" stroke="#173366" stroke-width="1.75781" stroke-miterlimit="10" stroke-linecap="round" stroke-linejoin="round"/>
<path d="M24.2421 40.4719V51.1107C24.2421 51.8887 24.1216 52.6672 23.8341 53.3901C23.6952 53.7394 23.6172 54.1325 23.6172 54.548C23.6172 54.8771 23.6662 55.1921 23.7555 55.4825C24.0696 56.5033 24.2421 57.5621 24.2421 58.63" stroke="#173366" stroke-width="1.75781" stroke-miterlimit="10" stroke-linecap="round" stroke-linejoin="round"/>
<path d="M27.2461 58.6301C27.2461 57.5621 27.4186 56.5033 27.7328 55.4826C27.8222 55.1922 27.8711 54.8772 27.8711 54.5481C27.8711 54.1326 27.793 53.7395 27.6541 53.3902C27.3667 52.6673 27.2461 51.8888 27.2461 51.1108V40.4719" stroke="#173366" stroke-width="1.75781" stroke-miterlimit="10" stroke-linecap="round" stroke-linejoin="round"/>
<path d="M20.2422 39.1287V45.2552" stroke="#173366" stroke-width="1.75781" stroke-miterlimit="10" stroke-linecap="round" stroke-linejoin="round"/>
<path d="M31.2461 45.2552V39.1287" stroke="#173366" stroke-width="1.75781" stroke-miterlimit="10" stroke-linecap="round" stroke-linejoin="round"/>
<path d="M20.9904 45.2554C20.1587 45.2554 19.361 45.5857 18.773 46.1739C18.0253 46.9215 17.9026 48.0904 18.4788 48.977C19.2703 50.1949 19.6915 51.6162 19.6915 53.0686C19.6915 56.4113 22.4013 59.1211 25.744 59.1211C29.0866 59.1211 31.7965 56.4113 31.7965 53.0686C31.7965 51.6162 32.2178 50.1949 33.0091 48.977C33.5854 48.0904 33.4627 46.9215 32.715 46.1739C32.1268 45.5857 31.3293 45.2554 30.4976 45.2554" stroke="#173366" stroke-width="1.75781" stroke-miterlimit="10" stroke-linecap="round" stroke-linejoin="round"/>
<path d="M15.3216 5.60109L14.2266 0.878906" stroke="#173366" stroke-width="1.75781" stroke-miterlimit="10" stroke-linecap="round" stroke-linejoin="round"/>
<path d="M24.0508 19.6283V19.4971C24.0508 17.8935 23.0687 16.4676 21.5868 15.8546C21.1306 15.6658 20.6844 15.4446 20.2516 15.1909L20.2179 15.1711C18.2418 14.0134 16.8294 12.0937 16.312 9.86276L16.2969 9.79761" stroke="#173366" stroke-width="1.75781" stroke-miterlimit="10" stroke-linecap="round" stroke-linejoin="round"/>
<path d="M11.7656 8.72192L12.2483 10.8038C13.0243 14.1505 15.1433 17.0306 18.1075 18.7676L18.1386 18.7859C19.084 19.34 20.4717 19.9604 21.4897 20.291" stroke="#173366" stroke-width="1.75781" stroke-miterlimit="10" stroke-linecap="round" stroke-linejoin="round"/>
<path d="M39.7241 8.72192L39.2414 10.8038C38.4654 14.1505 36.3464 17.0306 33.3823 18.7676L33.3511 18.7859C32.4057 19.34 31.018 19.9604 30 20.291" stroke="#173366" stroke-width="1.75781" stroke-miterlimit="10" stroke-linecap="round" stroke-linejoin="round"/>
<path d="M9.94531 0.878906L10.9432 5.18238" stroke="#173366" stroke-width="1.75781" stroke-miterlimit="10" stroke-linecap="round" stroke-linejoin="round"/>
<path d="M36.168 5.60109L37.263 0.878906" stroke="#173366" stroke-width="1.75781" stroke-miterlimit="10" stroke-linecap="round" stroke-linejoin="round"/>
<path d="M27.4375 19.5476V19.4971C27.4375 17.8935 28.4196 16.4676 29.9015 15.8546C30.3577 15.6658 30.8039 15.4446 31.2367 15.1909L31.2705 15.1711C33.2465 14.0134 34.6589 12.0937 35.1763 9.86276L35.1914 9.79761" stroke="#173366" stroke-width="1.75781" stroke-miterlimit="10" stroke-linecap="round" stroke-linejoin="round"/>
<path d="M41.5408 0.878906L40.543 5.18238" stroke="#173366" stroke-width="1.75781" stroke-miterlimit="10" stroke-linecap="round" stroke-linejoin="round"/>
<path d="M4.94531 10.0789C5.29605 9.51563 5.69332 8.97492 6.13652 8.4627L6.33082 8.23816C7.91953 6.40242 10.223 5.34961 12.6506 5.34961C14.4904 5.34961 16.2442 5.99215 17.6999 7.11703C18.2064 7.10848 18.6991 7.27289 19.0734 7.60781C19.278 7.79086 19.4324 8.00519 19.5383 8.23758C19.7439 8.6884 20.1524 9.00012 20.6446 9.12023C21.1395 9.24094 21.5931 9.50309 21.9409 9.90551C22.2887 10.3078 22.4825 10.7946 22.5304 11.3018C22.5779 11.8062 22.8274 12.2555 23.2437 12.5241C23.4582 12.6626 23.648 12.8463 23.7995 13.0752C24.3216 13.864 24.1846 14.9805 23.4738 15.7316C23.1906 16.0309 22.8561 16.2418 22.5053 16.3654" stroke="#173366" stroke-width="1.75781" stroke-miterlimit="10" stroke-linecap="round" stroke-linejoin="round"/>
<path d="M5.00958 38.2383C5.09677 38.0012 5.19228 37.7662 5.29599 37.5337C7.33951 32.9531 7.09365 27.6074 4.63833 23.2337C3.01365 20.3398 2.60747 16.9953 3.34951 13.8953" stroke="#173366" stroke-width="1.75781" stroke-miterlimit="10" stroke-linecap="round" stroke-linejoin="round"/>
<path d="M16.2949 9.79771L15.912 9.48423C14.9824 8.76599 13.8234 8.37036 12.6486 8.37036C11.0984 8.37036 9.62731 9.04267 8.61282 10.215L8.41852 10.4395C5.69825 13.5829 5.23782 18.1302 7.27278 21.755C10.1159 26.8194 10.4684 32.9797 8.24262 38.3292" stroke="#173366" stroke-width="1.75781" stroke-miterlimit="10" stroke-linecap="round" stroke-linejoin="round"/>
<path d="M46.4781 38.238C46.3909 38.001 46.2954 37.766 46.1917 37.5336C44.1481 32.953 44.394 27.6073 46.8493 23.2336C49.5057 18.5019 48.9045 12.5659 45.3537 8.4627L45.1594 8.23816C43.5706 6.40242 41.2672 5.34961 38.8395 5.34961C36.9998 5.34961 35.246 5.99215 33.7903 7.11703C33.2838 7.10848 32.791 7.27289 32.4167 7.60781C32.2121 7.79086 32.0578 8.00519 31.9519 8.23758C31.7463 8.6884 31.3378 9.00012 30.8456 9.12023C30.3507 9.24094 29.8971 9.50309 29.5493 9.90551C29.2015 10.3078 29.0076 10.7946 28.9598 11.3018C28.9122 11.8062 28.6627 12.2555 28.2465 12.5241C28.0319 12.6626 27.8422 12.8463 27.6907 13.0752C27.1686 13.864 27.3056 14.9805 28.0163 15.7316C28.2996 16.0309 28.634 16.2418 28.9849 16.3654" stroke="#173366" stroke-width="1.75781" stroke-miterlimit="10" stroke-linecap="round" stroke-linejoin="round"/>
<path d="M44.6815 20.8081C44.5441 21.1294 44.3886 21.4456 44.2149 21.7549C41.3684 26.8253 41.0185 32.9943 43.2531 38.3484" stroke="#173366" stroke-width="1.75781" stroke-miterlimit="10" stroke-linecap="round" stroke-linejoin="round"/>
<path d="M35.1953 9.79771L35.5783 9.48423C36.5078 8.76599 37.6668 8.37036 38.8416 8.37036C40.3919 8.37036 41.8629 9.04267 42.8774 10.215L43.0717 10.4395C44.6225 12.2315 45.4388 14.4796 45.4771 16.753" stroke="#173366" stroke-width="1.75781" stroke-miterlimit="10" stroke-linecap="round" stroke-linejoin="round"/>
<path d="M9.49219 39.5938C12.3434 39.5938 14.6546 42.5001 14.6546 46.0854C14.6546 49.6706 12.3434 52.577 9.49219 52.577" stroke="#173366" stroke-width="1.75781" stroke-miterlimit="10" stroke-linecap="round" stroke-linejoin="round"/>
<path d="M8.8357 52.5777C6.66305 52.5777 4.90172 49.6709 4.90172 46.0851C4.90172 42.4993 6.66305 39.5924 8.8357 39.5924L9.49477 39.5935C8.6625 38.544 7.62258 37.9202 6.49418 37.9202C3.76184 37.9202 1.54688 41.5757 1.54688 46.0851C1.54688 50.5945 3.76184 54.25 6.49418 54.25C7.62246 54.25 8.66238 53.6262 9.49477 52.5767L8.8357 52.5777Z" stroke="#173366" stroke-width="1.75781" stroke-miterlimit="10" stroke-linecap="round" stroke-linejoin="round"/>
<path d="M41.9945 39.5938C39.1433 39.5938 36.832 42.5001 36.832 46.0854C36.832 49.6706 39.1433 52.577 41.9945 52.577" stroke="#173366" stroke-width="1.75781" stroke-miterlimit="10" stroke-linecap="round" stroke-linejoin="round"/>
<path d="M48.4401 51.9476C47.5495 53.3727 46.3352 54.25 44.9967 54.25C43.8684 54.25 42.8285 53.6262 41.9961 52.5767L42.6552 52.5777C44.8278 52.5777 46.5891 49.6709 46.5891 46.0851C46.5891 42.4993 44.8278 39.5924 42.6552 39.5924L41.9961 39.5935C42.8284 38.544 43.8683 37.9202 44.9967 37.9202C47.729 37.9202 49.944 41.5757 49.944 46.0851C49.944 46.7681 49.8931 47.4316 49.7974 48.0657" stroke="#173366" stroke-width="1.75781" stroke-miterlimit="10" stroke-linecap="round" stroke-linejoin="round"/>
<path d="M15.4727 27.9491C16.426 23.1475 20.6622 19.5281 25.7438 19.5281C31.5272 19.5281 36.2157 24.2165 36.2157 30C36.2157 35.7834 31.5272 40.4718 25.7438 40.4718C20.6622 40.4718 16.426 36.8524 15.4727 32.0509" stroke="#173366" stroke-width="1.75781" stroke-miterlimit="10" stroke-linecap="round" stroke-linejoin="round"/>
<path d="M28.2289 30L30.2835 27.9453C30.97 27.2589 30.97 26.1458 30.2835 25.4594C29.5971 24.773 28.4841 24.773 27.7976 25.4594L25.743 27.5141L23.6883 25.4595C23.0021 24.7729 21.889 24.7731 21.2024 25.4595C20.5158 26.1458 20.5159 27.2589 21.2024 27.9454L23.2571 30L21.2024 32.0548C20.5159 32.7412 20.5159 33.8542 21.2024 34.5407C21.5456 34.8839 21.9955 35.0556 22.4453 35.0556C22.8951 35.0556 23.3451 34.8839 23.6882 34.5407L25.743 32.4859L27.7976 34.5406C28.1408 34.8839 28.5907 35.0555 29.0405 35.0555C29.4903 35.0555 29.9403 34.8838 30.2834 34.5406C30.9699 33.8542 30.9699 32.7412 30.2834 32.0547L28.2289 30Z" stroke="#173366" stroke-width="1.75781" stroke-miterlimit="10" stroke-linecap="round" stroke-linejoin="round"/>
</svg>
