<svg width="72" height="60" viewBox="0 0 72 60" fill="none" xmlns="http://www.w3.org/2000/svg">
<g clip-path="url(#clip0_32_16220)">
<mask id="path-1-inside-1_32_16220" fill="white">
<path d="M18.2734 17.4393C20.7985 15.1583 24.1682 13.3537 24.6713 13.0891C24.5764 13.5265 24.4853 13.9911 24.4025 14.4827C24.3062 15.0519 24.2193 15.6549 24.1473 16.2877C21.9185 17.4244 19.9028 19.4821 18.6535 20.9342"/>
</mask>
<path d="M16.9328 15.9552C16.1131 16.6956 16.0489 17.9603 16.7893 18.78C17.5297 19.5996 18.7944 19.6639 19.6141 18.9235L16.9328 15.9552ZM24.6713 13.0891L26.6258 13.5133C26.7906 12.7538 26.5006 11.9676 25.882 11.4971C25.2633 11.0267 24.4282 10.9572 23.7404 11.319L24.6713 13.0891ZM24.4025 14.4827L26.3745 14.8164L26.3748 14.8147L24.4025 14.4827ZM24.1473 16.2877L25.056 18.0694C25.6537 17.7646 26.0587 17.1804 26.1345 16.5137L24.1473 16.2877ZM17.1374 19.6297C16.417 20.4671 16.5118 21.7298 17.3491 22.4502C18.1864 23.1707 19.4492 23.0759 20.1696 22.2386L17.1374 19.6297ZM19.6141 18.9235C21.9387 16.8235 25.1141 15.116 25.6023 14.8592L23.7404 11.319C23.2223 11.5915 19.6583 13.4931 16.9328 15.9552L19.6141 18.9235ZM22.7168 12.665C22.6159 13.1301 22.5187 13.6255 22.4303 14.1508L26.3748 14.8147C26.4519 14.3567 26.5369 13.923 26.6258 13.5133L22.7168 12.665ZM22.4306 14.1491C22.3285 14.7521 22.2364 15.391 22.1601 16.0617L26.1345 16.5137C26.2022 15.9188 26.2839 15.3518 26.3745 14.8164L22.4306 14.1491ZM23.2387 14.506C20.6505 15.826 18.4272 18.1307 17.1374 19.6297L20.1696 22.2386C21.3785 20.8335 23.1865 19.0228 25.056 18.0694L23.2387 14.506Z" fill="#173366" mask="url(#path-1-inside-1_32_16220)"/>
<mask id="path-3-inside-2_32_16220" fill="white">
<path d="M52.8323 20.9342C51.584 19.4822 49.5683 17.4244 47.3385 16.2878C47.2665 15.6549 47.1796 15.0517 47.0832 14.4828C47.0071 14.0388 46.9257 13.6135 46.8398 13.2144C47.6893 13.673 50.2217 15.0989 52.3848 16.9029"/>
</mask>
<path d="M51.3157 22.238C52.0357 23.0756 53.2985 23.1709 54.1361 22.4509C54.9737 21.7308 55.069 20.468 54.3489 19.6304L51.3157 22.238ZM47.3385 16.2878L45.3513 16.5138C45.4271 17.1806 45.8323 17.7649 46.4302 18.0696L47.3385 16.2878ZM47.0832 14.4828L49.0552 14.1489L49.0545 14.1447L47.0832 14.4828ZM46.8398 13.2144L47.79 11.4545C47.1033 11.0837 46.2635 11.1463 45.6393 11.6147C45.0151 12.0832 44.7204 12.872 44.8846 13.635L46.8398 13.2144ZM51.1039 18.4389C51.9522 19.1463 53.2133 19.0321 53.9208 18.1838C54.6282 17.3355 54.514 16.0743 53.6657 15.3669L51.1039 18.4389ZM54.3489 19.6304C53.0597 18.1308 50.8362 15.8259 48.2467 14.5059L46.4302 18.0696C48.3004 19.023 50.1083 20.8336 51.3157 22.238L54.3489 19.6304ZM49.3256 16.0618C49.2494 15.3912 49.1573 14.7519 49.0552 14.1489L45.1113 14.8167C45.2018 15.3514 45.2836 15.9187 45.3513 16.5138L49.3256 16.0618ZM49.0545 14.1447C48.9742 13.677 48.8877 13.2239 48.7951 12.7937L44.8846 13.635C44.9638 14.0032 45.0399 14.4006 45.112 14.8209L49.0545 14.1447ZM45.8897 14.9742C46.7049 15.4144 49.0967 16.7649 51.1039 18.4389L53.6657 15.3669C51.3467 13.433 48.6737 11.9316 47.79 11.4545L45.8897 14.9742Z" fill="#173366" mask="url(#path-3-inside-2_32_16220)"/>
<mask id="path-5-inside-3_32_16220" fill="white">
<path d="M4.94453 24.7252C4.94453 24.7252 3.66773 26.1554 2.93858 24.7252C2.20943 23.2951 4.76267 24.4196 2.30018 18.5996C-0.162308 12.7796 1.02339 9.00104 4.03248 5.32539C7.04157 1.64973 11.5111 0.730385 14.9756 2.56804C18.4402 4.40569 20.9031 5.83444 24.9164 4.8146C28.6369 3.86778 29.4557 0.989778 35.444 0.575654V0.542969C35.5445 0.547141 35.645 0.550964 35.7427 0.556528C35.8404 0.550964 35.9409 0.547141 36.0414 0.542969V0.575654C42.0297 0.989778 42.8489 3.86813 46.569 4.8146C50.5827 5.83478 53.0438 4.40569 56.5098 2.56804C59.9757 0.730385 64.4445 1.64869 67.455 5.32539C70.4655 9.00209 71.6505 12.7793 69.188 18.5993C66.7255 24.4193 69.2791 23.2961 68.5496 24.7249"/>
</mask>
<path d="M6.43646 26.0572C7.17208 25.2332 7.10046 23.9689 6.27649 23.2333C5.45252 22.4977 4.18822 22.5693 3.45259 23.3933L6.43646 26.0572ZM24.9164 4.8146L25.4089 6.75299L25.4096 6.75282L24.9164 4.8146ZM35.444 0.575654L35.582 2.57089C36.6305 2.49838 37.444 1.62667 37.444 0.575654H35.444ZM35.444 0.542969L35.527 -1.45531C34.9826 -1.47791 34.4526 -1.27746 34.0594 -0.900282C33.6663 -0.523107 33.444 -0.00185943 33.444 0.542969L35.444 0.542969ZM35.7427 0.556528L35.629 2.55329C35.7047 2.55761 35.7807 2.55761 35.8564 2.55329L35.7427 0.556528ZM36.0414 0.542969H38.0414C38.0414 -0.00185943 37.8191 -0.523107 37.426 -0.900282C37.0328 -1.27746 36.5028 -1.47791 35.9584 -1.45531L36.0414 0.542969ZM36.0414 0.575654H34.0414C34.0414 1.62667 34.8549 2.49838 35.9034 2.57089L36.0414 0.575654ZM46.569 4.8146L46.0759 6.75285L46.0763 6.75296L46.569 4.8146ZM66.7684 23.8154C66.2661 24.7992 66.6564 26.0038 67.6401 26.5061C68.6239 27.0084 69.8286 26.6181 70.3308 25.6344L66.7684 23.8154ZM4.94453 24.7252C3.45259 23.3933 3.4531 23.3927 3.4536 23.3921C3.45376 23.392 3.45425 23.3914 3.45458 23.3911C3.45522 23.3903 3.45585 23.3896 3.45646 23.3889C3.45769 23.3876 3.45886 23.3863 3.45996 23.3851C3.46217 23.3826 3.46414 23.3805 3.46588 23.3786C3.46934 23.3748 3.47189 23.372 3.47359 23.3702C3.47693 23.3667 3.47709 23.3666 3.4745 23.3692C3.46866 23.375 3.45488 23.3884 3.43631 23.4042C3.38357 23.4491 3.37109 23.4476 3.41619 23.428C3.45579 23.4107 3.74034 23.2941 4.13721 23.4138C4.33678 23.474 4.49287 23.5749 4.59912 23.6741C4.69798 23.7664 4.72886 23.8335 4.72036 23.8168L1.1568 25.6337C1.5095 26.3255 2.09522 26.9759 2.98203 27.2434C3.82337 27.4972 4.56383 27.2911 5.01378 27.0951C5.46923 26.8967 5.82151 26.627 6.03096 26.4485C6.14348 26.3526 6.23514 26.2654 6.30198 26.1986C6.33572 26.1649 6.36403 26.1355 6.38643 26.1117C6.39766 26.0997 6.40747 26.0891 6.41581 26.08C6.41998 26.0755 6.42379 26.0713 6.42723 26.0675C6.42895 26.0656 6.43058 26.0638 6.43212 26.062C6.43289 26.0612 6.43364 26.0604 6.43436 26.0596C6.43472 26.0592 6.43525 26.0586 6.43543 26.0584C6.43595 26.0578 6.43646 26.0572 4.94453 24.7252ZM4.72036 23.8168C4.70477 23.7862 4.79011 23.9372 4.80115 24.2089C4.81414 24.5282 4.71738 24.7818 4.64684 24.9156C4.63271 24.9425 4.56929 25.0433 4.73039 24.8013C4.84266 24.6326 5.00355 24.3727 5.13716 24.0238C5.68131 22.6026 5.38791 20.7647 4.1421 17.8203L0.458269 19.3789C1.67494 22.2545 1.33617 22.7644 1.40161 22.5935C1.41554 22.5571 1.42966 22.5412 1.40051 22.585C1.34012 22.6757 1.39737 22.5878 1.3039 22.7268C1.25872 22.7939 1.18268 22.9094 1.10817 23.0508C0.939285 23.3712 0.781919 23.817 0.804454 24.3714C0.825053 24.8781 0.990104 25.3067 1.1568 25.6337L4.72036 23.8168ZM4.1421 17.8203C3.01807 15.1637 2.80156 13.157 3.08583 11.4957C3.37183 9.82432 4.20311 8.27423 5.58004 6.5923L2.48492 4.05847C0.852752 6.0522 -0.41336 8.22923 -0.85686 10.821C-1.30208 13.4229 -0.880199 16.2155 0.458269 19.3789L4.1421 17.8203ZM5.58004 6.5923C8.06511 3.55674 11.5216 2.99989 14.0385 4.33488L15.9128 0.801192C11.5005 -1.53912 6.01803 -0.257272 2.48492 4.05847L5.58004 6.5923ZM14.0385 4.33488C17.4251 6.13119 20.5512 7.98743 25.4089 6.75299L24.4238 2.87621C21.255 3.68145 19.4553 2.68019 15.9128 0.801192L14.0385 4.33488ZM25.4096 6.75282C27.6689 6.17787 29.2119 4.9302 30.3925 4.18966C31.5877 3.43999 32.976 2.75111 35.582 2.57089L35.306 -1.41958C31.9237 -1.18568 29.9085 -0.228495 28.2671 0.801075C26.6111 1.83978 25.8843 2.50452 24.4231 2.87638L25.4096 6.75282ZM37.444 0.575654V0.542969H33.444V0.575654H37.444ZM35.361 2.54125C35.472 2.54585 35.5511 2.54886 35.629 2.55329L35.8564 -1.44024C35.7389 -1.44693 35.617 -1.45157 35.527 -1.45531L35.361 2.54125ZM35.8564 2.55329C35.9343 2.54886 36.0134 2.54585 36.1244 2.54125L35.9584 -1.45531C35.8684 -1.45157 35.7465 -1.44693 35.629 -1.44024L35.8564 2.55329ZM34.0414 0.542969V0.575654H38.0414V0.542969H34.0414ZM35.9034 2.57089C38.5094 2.75111 39.8978 3.44005 41.093 4.18978C42.2737 4.93035 43.8167 6.17807 46.0759 6.75285L47.0622 2.87635C45.6012 2.50465 44.8745 1.83997 43.2185 0.801214C41.577 -0.228385 39.5617 -1.18567 36.1794 -1.41958L35.9034 2.57089ZM46.0763 6.75296C50.9346 7.98784 54.0593 6.13099 57.4466 4.33504L55.5729 0.801036C52.0282 2.6804 50.2307 3.68173 47.0617 2.87624L46.0763 6.75296ZM57.4466 4.33504C59.9654 2.99961 63.4213 3.55599 65.9076 6.59244L69.0024 4.05834C65.4677 -0.258611 59.9861 -1.53884 55.5729 0.801036L57.4466 4.33504ZM65.9076 6.59244C67.2852 8.27498 68.1166 9.82494 68.4025 11.496C68.6868 13.1569 68.4702 15.1632 67.3461 17.8199L71.0299 19.3786C72.3683 16.2153 72.7905 13.4231 72.3452 10.8212C71.9017 8.22947 70.6353 6.05249 69.0024 4.05834L65.9076 6.59244ZM67.3461 17.8199C66.1002 20.7646 65.807 22.6026 66.3511 24.0239C66.4847 24.3728 66.6456 24.6327 66.7579 24.8015C66.9191 25.0437 66.8556 24.9427 66.8416 24.916C66.771 24.7822 66.6741 24.5283 66.6871 24.2085C66.6983 23.9363 66.7839 23.785 66.7684 23.8154L70.3308 25.6344C70.4977 25.3076 70.6631 24.8789 70.6838 24.3719C70.7065 23.8172 70.549 23.3712 70.3801 23.0509C70.3056 22.9095 70.2296 22.7941 70.1844 22.727C70.0915 22.5889 70.1477 22.6752 70.0879 22.5853C70.0587 22.5416 70.0728 22.5574 70.0867 22.5937C70.152 22.7643 69.8133 22.2539 71.0299 19.3786L67.3461 17.8199Z" fill="#173366" mask="url(#path-5-inside-3_32_16220)"/>
<mask id="path-7-inside-4_32_16220" fill="white">
<path d="M28.7479 58.83C27.2875 55.1533 23.8229 51.6818 24.1883 44.3305C24.5538 36.9792 27.9262 34.4263 27.9262 34.4263C23.9752 27.8159 23.6017 21.151 24.149 16.2886C24.221 15.6558 24.3079 15.0525 24.4043 14.4836C24.487 13.992 24.5781 13.5274 24.673 13.09C25.2259 10.5284 25.898 8.95224 25.9199 8.90113C25.84 8.95016 22.0395 11.3243 17.1663 8.90113C12.2413 6.44942 7.13449 7.67614 6.31389 12.0653C5.96166 13.9485 6.5486 15.0991 7.5354 15.775"/>
</mask>
<path d="M26.8891 59.5683C27.2969 60.5949 28.4596 61.0965 29.4862 60.6888C30.5127 60.281 31.0144 59.1183 30.6066 58.0917L26.8891 59.5683ZM27.9262 34.4263L29.1334 36.0209C29.9468 35.4052 30.1664 34.2759 29.643 33.4002L27.9262 34.4263ZM24.149 16.2886L22.1619 16.0626L22.1616 16.0649L24.149 16.2886ZM24.4043 14.4836L26.3762 14.8175L26.3765 14.8156L24.4043 14.4836ZM24.673 13.09L26.6276 13.5142L26.628 13.5119L24.673 13.09ZM25.9199 8.90113L27.7582 9.68897C28.1013 8.88838 27.8869 7.95779 27.2279 7.38815C26.569 6.8185 25.6172 6.7408 24.8746 7.19603L25.9199 8.90113ZM17.1663 8.90113L16.275 10.6915L16.2758 10.6919L17.1663 8.90113ZM6.31389 12.0653L8.2798 12.433L8.27983 12.4329L6.31389 12.0653ZM6.40516 17.425C7.31644 18.0493 8.5612 17.8166 9.18542 16.9053C9.80963 15.994 9.57692 14.7492 8.66565 14.125L6.40516 17.425ZM30.6066 58.0917C28.8463 53.6598 25.8486 51.2138 26.1859 44.4298L22.1908 44.2312C21.7972 52.1497 25.7287 56.6468 26.8891 59.5683L30.6066 58.0917ZM26.1859 44.4298C26.3534 41.0593 27.2024 38.8901 27.9313 37.6131C28.2985 36.9697 28.6435 36.5384 28.8737 36.2851C28.989 36.1582 29.076 36.0754 29.1232 36.0327C29.1468 36.0114 29.1604 36 29.1626 35.9982C29.1637 35.9973 29.1619 35.9988 29.1571 36.0026C29.1547 36.0045 29.1515 36.007 29.1476 36.01C29.1456 36.0116 29.1434 36.0132 29.1411 36.015C29.1399 36.0159 29.1386 36.0169 29.1374 36.0179C29.1367 36.0183 29.1357 36.0191 29.1354 36.0194C29.1344 36.0201 29.1334 36.0209 27.9262 34.4263C26.7191 32.8316 26.7181 32.8324 26.717 32.8332C26.7166 32.8335 26.7155 32.8343 26.7148 32.8349C26.7133 32.836 26.7118 32.8372 26.7102 32.8384C26.707 32.8409 26.7036 32.8435 26.7 32.8463C26.6928 32.8518 26.6848 32.8581 26.676 32.865C26.6584 32.8789 26.6377 32.8956 26.614 32.9152C26.5666 32.9544 26.5074 33.0051 26.438 33.0679C26.2993 33.1935 26.12 33.3676 25.9134 33.5949C25.4999 34.05 24.9789 34.7165 24.4574 35.6302C23.4087 37.4675 22.3887 40.2503 22.1908 44.2312L26.1859 44.4298ZM29.643 33.4002C25.9802 27.2722 25.6222 21.0819 26.1365 16.5123L22.1616 16.0649C21.5813 21.2201 21.9701 28.3596 26.2095 35.4524L29.643 33.4002ZM26.1362 16.5146C26.2039 15.9195 26.2857 15.3523 26.3762 14.8175L22.4323 14.1498C22.3302 14.7527 22.2381 15.392 22.1619 16.0626L26.1362 16.5146ZM26.3765 14.8156C26.4536 14.3576 26.5386 13.9239 26.6276 13.5142L22.7185 12.6659C22.6176 13.131 22.5204 13.6264 22.432 14.1517L26.3765 14.8156ZM26.628 13.5119C27.1472 11.1066 27.7727 9.6552 27.7582 9.68897L24.0816 8.11329C24.0234 8.24928 23.3046 9.9502 22.7181 12.6681L26.628 13.5119ZM24.8746 7.19603C24.8686 7.19971 24.8664 7.20116 24.8544 7.20819C24.8405 7.21629 24.8142 7.2313 24.7762 7.25168C24.6999 7.29257 24.5764 7.35495 24.4108 7.42648C24.078 7.57019 23.5849 7.74656 22.9689 7.86305C21.756 8.09242 20.042 8.09744 18.0568 7.11031L16.2758 10.6919C19.1638 12.128 21.7866 12.1575 23.7122 11.7934C24.6655 11.6131 25.4421 11.3382 25.9967 11.0987C26.2747 10.9786 26.4994 10.8664 26.6653 10.7775C26.7483 10.733 26.8166 10.6944 26.8696 10.6635C26.8961 10.648 26.9184 10.6347 26.9365 10.6238C26.9531 10.6137 26.9704 10.603 26.9652 10.6062L24.8746 7.19603ZM18.0576 7.11071C15.2579 5.71697 12.2409 5.28232 9.67041 5.98954C7.01562 6.71996 4.91307 8.6751 4.34796 11.6977L8.27983 12.4329C8.53531 11.0663 9.39648 10.2135 10.7315 9.84623C12.1508 9.45573 14.1498 9.63358 16.275 10.6915L18.0576 7.11071ZM4.34799 11.6976C4.12187 12.9065 4.16707 14.0464 4.54806 15.0703C4.9349 16.11 5.61368 16.8829 6.40516 17.425L8.66565 14.125C8.47033 13.9912 8.36223 13.8509 8.29696 13.6754C8.22584 13.4843 8.15368 13.1073 8.2798 12.433L4.34799 11.6976Z" fill="#173366" mask="url(#path-7-inside-4_32_16220)"/>
<mask id="path-9-inside-5_32_16220" fill="white">
<path d="M59.1559 16.5564C61.7095 16.8634 65.9961 16.4545 65.1741 12.0633C64.3521 7.672 59.2466 6.44702 54.322 8.89908C49.4488 11.3237 45.6484 8.9495 45.5684 8.89908C45.5899 8.95054 46.2843 10.5778 46.8424 13.2128C46.9265 13.6133 47.0083 14.0372 47.0858 14.4812C47.1821 15.0504 47.269 15.6534 47.341 16.2862C47.8883 21.1486 47.5149 27.8135 43.5638 34.4239C43.5638 34.4239 46.9366 36.9775 47.3017 44.3281C47.6668 51.6787 44.2022 55.1516 42.7422 58.8276"/>
</mask>
<path d="M59.3946 14.5707C58.298 14.4388 57.3021 15.221 57.1702 16.3176C57.0383 17.4143 57.8205 18.4102 58.9171 18.5421L59.3946 14.5707ZM54.322 8.89908L55.2129 10.6897L55.2135 10.6894L54.322 8.89908ZM45.5684 8.89908L46.635 7.20723C45.8968 6.74186 44.9421 6.8088 44.2761 7.37262C43.6101 7.93645 43.3865 8.867 43.7237 9.67185L45.5684 8.89908ZM46.8424 13.2128L48.7997 12.8016L48.799 12.7984L46.8424 13.2128ZM47.0858 14.4812L49.0578 14.1475L49.056 14.1372L47.0858 14.4812ZM47.341 16.2862L49.3285 16.0625L49.3282 16.0602L47.341 16.2862ZM43.5638 34.4239L41.8471 33.3978C41.3237 34.2734 41.5433 35.4026 42.3566 36.0184L43.5638 34.4239ZM40.8834 58.0894C40.4757 59.1159 40.9774 60.2786 42.0039 60.6864C43.0305 61.0941 44.1932 60.5924 44.6009 59.5659L40.8834 58.0894ZM58.9171 18.5421C60.3288 18.7118 62.4928 18.7326 64.29 17.8777C65.2381 17.4267 66.1581 16.6939 66.7278 15.5569C67.2959 14.4229 67.4045 13.1084 67.1399 11.6953L63.2082 12.4312C63.3547 13.2137 63.2357 13.5971 63.1515 13.7652C63.0688 13.9303 62.9117 14.1039 62.5717 14.2656C61.7927 14.6362 60.5366 14.708 59.3946 14.5707L58.9171 18.5421ZM67.1399 11.6953C66.5741 8.67229 64.472 6.71683 61.8169 5.98654C59.2464 5.27951 56.2299 5.71491 53.4306 7.10873L55.2135 10.6894C57.3388 9.63119 59.3373 9.45305 60.7561 9.84331C62.0904 10.2103 62.9521 11.063 63.2082 12.4312L67.1399 11.6953ZM53.4311 7.10846C49.5103 9.05921 46.5194 7.13433 46.635 7.20723L44.5018 10.5909C44.7774 10.7647 49.3874 13.5881 55.2129 10.6897L53.4311 7.10846ZM43.7237 9.67185C43.7262 9.67791 43.7643 9.76679 43.83 9.93861C43.8968 10.1133 43.9928 10.3754 44.1057 10.7161C44.3317 11.3982 44.6241 12.3918 44.8858 13.6272L48.799 12.7984C48.5026 11.3989 48.1688 10.2613 47.9027 9.4581C47.7695 9.05618 47.653 8.73712 47.5661 8.50991C47.5227 8.39626 47.4867 8.30564 47.4597 8.2392C47.4462 8.20595 47.4351 8.17896 47.4265 8.15841C47.4198 8.14223 47.4097 8.11825 47.4131 8.12631L43.7237 9.67185ZM44.8851 13.6239C44.9645 14.0018 45.0419 14.4032 45.1156 14.8253L49.056 14.1372C48.9746 13.6712 48.8886 13.2249 48.7997 12.8016L44.8851 13.6239ZM45.1138 14.8149C45.2044 15.3503 45.2862 15.9173 45.3538 16.5122L49.3282 16.0602C49.2519 15.3895 49.1598 14.7506 49.0578 14.1476L45.1138 14.8149ZM45.3536 16.5099C45.8679 21.0795 45.5098 27.2698 41.8471 33.3978L45.2805 35.45C49.5199 28.3572 49.9087 21.2177 49.3285 16.0625L45.3536 16.5099ZM43.5638 34.4239C42.3566 36.0184 42.3556 36.0176 42.3545 36.0169C42.3542 36.0166 42.3532 36.0159 42.3526 36.0154C42.3513 36.0144 42.3501 36.0134 42.3489 36.0125C42.3465 36.0107 42.3443 36.0091 42.3424 36.0075C42.3384 36.0045 42.3353 36.002 42.3329 36.0001C42.3281 35.9963 42.3263 35.9948 42.3274 35.9957C42.3296 35.9976 42.3432 36.0089 42.3668 36.0303C42.414 36.073 42.501 36.1558 42.6164 36.2827C42.8466 36.5361 43.1916 36.9675 43.5589 37.6109C44.2878 38.888 45.1368 41.0572 45.3042 44.4273L49.2993 44.2289C49.1015 40.2483 48.0816 37.4654 47.0328 35.6281C46.5113 34.7143 45.9903 34.0478 45.5767 33.5927C45.3702 33.3654 45.1908 33.1913 45.0521 33.0656C44.9828 33.0028 44.9236 32.9521 44.8762 32.9129C44.8525 32.8933 44.8318 32.8766 44.8142 32.8627C44.8054 32.8558 44.7974 32.8495 44.7902 32.844C44.7866 32.8412 44.7832 32.8386 44.78 32.8361C44.7784 32.8349 44.7769 32.8337 44.7754 32.8326C44.7746 32.832 44.7736 32.8312 44.7732 32.8309C44.7721 32.8301 44.7711 32.8293 43.5638 34.4239ZM45.3042 44.4273C45.6411 51.2107 42.6434 53.6583 40.8834 58.0894L44.6009 59.5659C45.7611 56.6449 49.6925 52.1466 49.2993 44.2289L45.3042 44.4273Z" fill="#173366" mask="url(#path-9-inside-5_32_16220)"/>
<path d="M61.1708 26.4937L61.1712 26.4936C62.6425 26.2692 63.6731 25.5313 64.0253 24.7444L61.1708 26.4937ZM61.1708 26.4937C60.2585 26.6333 58.9751 26.6772 57.712 26.392M61.1708 26.4937L57.712 26.392M58.1912 20.1779L58.19 20.1778C57.7119 20.1561 57.2329 20.1657 56.756 20.2065L56.7518 20.2068L56.7518 20.2068C56.3797 20.2371 56.0112 20.3016 55.6509 20.3994L58.1912 20.1779ZM58.1912 20.1779C59.9882 20.2574 62.2437 20.7725 63.5354 22.4698M58.1912 20.1779L63.5354 22.4698M54.0276 21.4527L54.027 21.4536C53.5477 22.239 53.7256 23.4577 54.4594 24.4289L54.0276 21.4527ZM54.0276 21.4527C54.2673 21.0589 54.7378 20.6475 55.6508 20.3994L54.0276 21.4527ZM57.712 26.392C56.4556 26.1083 55.2804 25.5151 54.4595 24.429L57.712 26.392ZM63.5354 22.4698C64.2774 23.4449 64.2685 24.2001 64.0254 24.7441L63.5354 22.4698Z" stroke="#173366" stroke-width="2" stroke-linecap="round" stroke-linejoin="round"/>
<mask id="path-12-inside-6_32_16220" fill="white">
<path d="M38.3758 59.4566C41.1575 57.532 39.969 55.46 39.969 55.46C42.249 54.7451 41.1547 52.6011 41.1547 52.6011C43.9058 51.8361 43.0136 49.197 43.0136 49.197C45.3846 46.9505 43.1029 45.0453 43.1029 45.0453C44.7445 44.3304 44.5633 43.0032 44.4708 41.982C44.3783 40.9608 42.8293 39.3272 41.098 41.2671C39.3668 43.207 37.3591 42.5947 37.1765 39.225C37.0941 37.7034 36.8817 35.7448 36.7909 33.9127C36.6807 31.6873 36.7499 29.6497 37.4516 28.8097C38.7284 27.2797 40.3699 23.602 39.549 19.62C38.728 15.638 38.4547 13.0851 40.0963 10.5322C41.7378 7.97933 40.3877 6.41602 35.7443 6.41602C31.101 6.41602 29.7508 7.98072 31.3924 10.5322C33.0339 13.0837 32.7603 15.6377 31.9397 19.62C31.1191 23.6023 32.7603 27.278 34.0371 28.8097C35.3139 30.3413 34.4929 35.855 34.3107 39.2247C34.1285 42.5943 32.1219 43.207 30.3892 41.2668C28.6566 39.3265 27.1061 40.9604 27.0164 41.9817C26.9267 43.0029 26.7428 44.3301 28.3843 45.045C28.3843 45.045 26.1026 46.8145 28.4737 49.0611C28.4737 49.0611 27.684 51.6904 30.4685 52.6011C30.4685 52.6011 29.3743 54.7454 31.6542 55.46C31.6542 55.46 30.1938 57.5317 32.9755 59.4566"/>
</mask>
<path d="M37.2379 57.8119C36.3295 58.4403 36.1026 59.6862 36.7311 60.5945C37.3596 61.5029 38.6054 61.7298 39.5137 61.1013L37.2379 57.8119ZM39.969 55.46L39.3706 53.5516C38.7924 53.7329 38.3275 54.1667 38.1066 54.731C37.8857 55.2953 37.9326 55.9294 38.2341 56.4551L39.969 55.46ZM41.1547 52.6011L40.6189 50.6742C40.0405 50.835 39.565 51.2472 39.3235 51.7969C39.0821 52.3465 39.1004 52.9756 39.3733 53.5103L41.1547 52.6011ZM43.0136 49.197L41.638 47.7452C41.0717 48.2817 40.8691 49.0986 41.1189 49.8376L43.0136 49.197ZM43.1029 45.0453L42.3044 43.2117C41.6686 43.4886 41.2217 44.075 41.1232 44.7613C41.0247 45.4477 41.2888 46.1361 41.8211 46.5806L43.1029 45.0453ZM37.1765 39.225L35.1795 39.3332L35.1795 39.3332L37.1765 39.225ZM36.7909 33.9127L34.7934 34.0116L34.7934 34.0116L36.7909 33.9127ZM37.4516 28.8097L38.9866 30.0918L38.9871 30.0911L37.4516 28.8097ZM28.3843 45.045L29.61 46.6254C30.1681 46.1926 30.4565 45.4975 30.3689 44.7967C30.2812 44.0959 29.8304 43.4933 29.1829 43.2113L28.3843 45.045ZM28.4737 49.0611L30.3892 49.6363C30.6064 48.9129 30.3976 48.1288 29.8493 47.6092L28.4737 49.0611ZM30.4685 52.6011L32.25 53.5102C32.5157 52.9894 32.5403 52.3785 32.3172 51.8381C32.0942 51.2977 31.6459 50.8819 31.0902 50.7002L30.4685 52.6011ZM31.6542 55.46L33.2889 56.6123C33.6569 56.0902 33.7534 55.4236 33.5485 54.8185C33.3436 54.2134 32.8619 53.7426 32.2523 53.5515L31.6542 55.46ZM31.8374 61.1012C32.7457 61.7297 33.9916 61.503 34.6201 60.5947C35.2487 59.6864 35.0219 58.4405 34.1136 57.812L31.8374 61.1012ZM39.5137 61.1013C41.3418 59.8365 42.115 58.3102 42.2111 56.8697C42.2557 56.201 42.1475 55.6371 42.0253 55.234C41.9639 55.0311 41.8972 54.8631 41.8399 54.7351C41.8111 54.6709 41.7843 54.6159 41.7612 54.5709C41.7497 54.5484 41.739 54.5282 41.7294 54.5105C41.7246 54.5017 41.72 54.4935 41.7158 54.4859C41.7136 54.4821 41.7116 54.4784 41.7096 54.4749C41.7086 54.4732 41.7076 54.4715 41.7067 54.4698C41.7062 54.469 41.7055 54.4677 41.7053 54.4673C41.7046 54.4661 41.7039 54.4649 39.969 55.46C38.2341 56.4551 38.2335 56.4539 38.2328 56.4527C38.2326 56.4523 38.2319 56.4512 38.2315 56.4504C38.2306 56.4488 38.2297 56.4473 38.2289 56.4458C38.2272 56.4428 38.2255 56.4399 38.224 56.4371C38.2208 56.4315 38.218 56.4263 38.2153 56.4214C38.21 56.4117 38.2057 56.4035 38.2021 56.3966C38.1951 56.3828 38.1911 56.3743 38.1894 56.3704C38.1862 56.3633 38.1906 56.3722 38.1972 56.3937C38.2109 56.4392 38.226 56.5136 38.22 56.6035C38.2149 56.6801 38.1915 57.1521 37.2379 57.8119L39.5137 61.1013ZM40.5674 57.3684C41.4625 57.0877 42.2181 56.601 42.7368 55.8836C43.2499 55.174 43.4053 54.4132 43.4165 53.799C43.4275 53.1996 43.3042 52.6841 43.1973 52.3453C43.1417 52.1692 43.0846 52.0224 43.0384 51.9134C43.0151 51.8585 42.9941 51.8121 42.9767 51.7751C42.968 51.7565 42.9601 51.7403 42.9533 51.7264C42.9499 51.7195 42.9468 51.7131 42.9439 51.7074C42.9425 51.7045 42.9411 51.7018 42.9398 51.6992C42.9391 51.6979 42.9385 51.6966 42.9379 51.6954C42.9376 51.6948 42.9371 51.6939 42.937 51.6936C42.9365 51.6928 42.9361 51.6919 41.1547 52.6011C39.3733 53.5103 39.3729 53.5094 39.3725 53.5086C39.3723 53.5083 39.3719 53.5075 39.3716 53.507C39.3711 53.5059 39.3705 53.5048 39.37 53.5038C39.369 53.5018 39.368 53.4998 39.3671 53.498C39.3652 53.4943 39.3636 53.491 39.3622 53.4882C39.3594 53.4824 39.3574 53.4783 39.3562 53.4756C39.3537 53.4704 39.354 53.4707 39.3562 53.4758C39.3608 53.4869 39.3714 53.5132 39.3828 53.5492C39.4098 53.6348 39.4177 53.7 39.4172 53.7259C39.417 53.7371 39.4184 53.6463 39.4954 53.5398C39.5781 53.4254 39.6155 53.4748 39.3706 53.5516L40.5674 57.3684ZM41.6905 54.528C42.7038 54.2463 43.5283 53.7459 44.1265 53.0455C44.7179 52.3531 44.9855 51.586 45.0907 50.9281C45.194 50.2821 45.1478 49.7067 45.0859 49.3116C45.0541 49.1087 45.0158 48.9386 44.983 48.8118C44.9665 48.748 44.9512 48.6941 44.9384 48.6514C44.9319 48.63 44.9261 48.6113 44.921 48.5955C44.9185 48.5875 44.9161 48.5803 44.914 48.5738C44.9129 48.5706 44.9119 48.5675 44.911 48.5646C44.9105 48.5632 44.91 48.5618 44.9096 48.5604C44.9093 48.5597 44.909 48.5587 44.9089 48.5584C44.9086 48.5574 44.9082 48.5565 43.0136 49.197C41.1189 49.8376 41.1186 49.8366 41.1183 49.8357C41.1182 49.8354 41.1179 49.8345 41.1177 49.8339C41.1173 49.8327 41.1169 49.8315 41.1165 49.8304C41.1158 49.8281 41.1151 49.826 41.1144 49.824C41.1131 49.8201 41.112 49.8167 41.1111 49.8138C41.1092 49.8079 41.1081 49.8042 41.1075 49.8023C41.1064 49.7986 41.1075 49.8022 41.1101 49.812C41.1154 49.8325 41.1253 49.8746 41.1341 49.9311C41.1535 50.0547 41.1584 50.1869 41.1409 50.2963C41.1253 50.3938 41.1001 50.4299 41.085 50.4475C41.0768 50.4571 40.9812 50.5735 40.6189 50.6742L41.6905 54.528ZM44.3892 50.6488C45.2045 49.8763 45.7446 49.0107 45.9719 48.0704C46.1997 47.1278 46.0732 46.2754 45.828 45.598C45.5893 44.9386 45.2352 44.4317 44.9632 44.103C44.8234 43.9341 44.6946 43.7994 44.5947 43.7016C44.5443 43.6525 44.5005 43.6118 44.465 43.5799C44.4473 43.5639 44.4316 43.5501 44.4181 43.5385C44.4114 43.5327 44.4052 43.5274 44.3997 43.5227C44.3969 43.5203 44.3943 43.5181 44.3918 43.516C44.3905 43.515 44.3893 43.5139 44.3882 43.513C44.3876 43.5125 44.3867 43.5118 44.3864 43.5115C44.3856 43.5108 44.3848 43.5101 43.1029 45.0453C41.8211 46.5806 41.8203 46.5799 41.8195 46.5792C41.8192 46.579 41.8184 46.5783 41.8179 46.5779C41.8169 46.577 41.8159 46.5762 41.8149 46.5754C41.813 46.5738 41.8112 46.5722 41.8095 46.5708C41.8061 46.5679 41.8032 46.5654 41.8007 46.5632C41.7958 46.559 41.7926 46.5561 41.7909 46.5547C41.7878 46.5518 41.7906 46.5542 41.798 46.5615C41.8136 46.5767 41.8445 46.6084 41.8816 46.6533C41.9633 46.752 42.0315 46.8618 42.0668 46.9594C42.0957 47.0392 42.095 47.0842 42.0838 47.1307C42.072 47.1794 42.0082 47.3944 41.638 47.7452L44.3892 50.6488ZM43.9015 46.879C45.2503 46.2916 46.0529 45.3157 46.3679 44.1504C46.6296 43.1822 46.4982 42.1934 46.4627 41.8016L42.479 42.1624C42.5057 42.4575 42.5243 42.6372 42.5272 42.822C42.5299 42.9931 42.515 43.0752 42.5064 43.1067C42.5022 43.1223 42.507 43.1031 42.522 43.086C42.5333 43.0733 42.4913 43.1303 42.3044 43.2117L43.9015 46.879ZM46.4627 41.8016C46.3528 40.5889 45.5136 39.3071 44.2602 38.7091C43.5605 38.3752 42.7154 38.2482 41.8287 38.4839C40.9658 38.7133 40.225 39.2417 39.6059 39.9354L42.5902 42.5988C42.8367 42.3226 42.9387 42.3278 42.8562 42.3497C42.8157 42.3604 42.7567 42.3675 42.6887 42.3602C42.6229 42.3531 42.5713 42.3352 42.5377 42.3192C42.4811 42.2922 42.4844 42.277 42.5063 42.3085C42.5138 42.3194 42.5139 42.3227 42.5095 42.3114C42.5062 42.3032 42.4873 42.254 42.479 42.1624L46.4627 41.8016ZM39.6059 39.9354C39.3237 40.2516 39.1301 40.3482 39.0791 40.3673C39.0552 40.3763 39.1895 40.3292 39.3737 40.4117C39.5383 40.4854 39.5167 40.5618 39.4252 40.3716C39.3303 40.1744 39.2096 39.7808 39.1736 39.1168L35.1795 39.3332C35.2822 41.2285 35.9328 43.2538 37.7393 44.0626C39.6746 44.929 41.5011 43.8192 42.5902 42.5988L39.6059 39.9354ZM39.1736 39.1168C39.1305 38.3212 39.0538 37.4171 38.9801 36.5213C38.9053 35.611 38.8321 34.6932 38.7885 33.8137L34.7934 34.0116C34.8406 34.9642 34.919 35.9418 34.9936 36.8492C35.0694 37.7712 35.1402 38.6072 35.1795 39.3332L39.1736 39.1168ZM38.7885 33.8137C38.735 32.7332 38.7307 31.7864 38.8064 31.045C38.8926 30.2023 39.0487 30.0174 38.9866 30.0918L35.9166 27.5275C35.1528 28.442 34.9235 29.6959 34.8272 30.6383C34.7205 31.6821 34.7367 32.8668 34.7934 34.0116L38.7885 33.8137ZM38.9871 30.0911C40.5821 28.1799 42.4729 23.8975 41.5078 19.2162L37.5902 20.0238C38.267 23.3065 36.8746 26.3796 35.9161 27.5282L38.9871 30.0911ZM41.5078 19.2162C40.6812 15.2067 40.6198 13.416 41.7785 11.6139L38.414 9.45052C36.2897 12.7543 36.7749 16.0693 37.5902 20.0238L41.5078 19.2162ZM41.7785 11.6139C42.2877 10.8221 42.6967 9.91241 42.7579 8.93727C42.8245 7.8742 42.4643 6.87246 41.6885 6.09976C40.9778 5.39183 40.0377 4.99199 39.0942 4.75867C38.1317 4.52061 37.0035 4.41602 35.7443 4.41602V8.41602C36.8069 8.41602 37.5887 8.50684 38.1339 8.64168C38.4027 8.70815 38.5887 8.7792 38.7107 8.83933C38.8323 8.89924 38.8702 8.93827 38.8657 8.9338C38.8559 8.92401 38.8186 8.88077 38.7909 8.80627C38.7636 8.73304 38.7659 8.68435 38.7657 8.68685C38.7634 8.72283 38.7256 8.96593 38.414 9.45052L41.7785 11.6139ZM35.7443 4.41602C34.4851 4.41602 33.3568 4.52071 32.3942 4.75893C31.4506 4.99241 30.5106 5.39246 29.7999 6.10046C29.0244 6.87315 28.6641 7.87482 28.7308 8.93787C28.792 9.91309 29.2011 10.8227 29.7104 11.6143L33.0743 9.4501C32.7629 8.96602 32.7252 8.7232 32.7229 8.68742C32.7228 8.68499 32.7251 8.73368 32.6978 8.80684C32.6701 8.88127 32.6329 8.92442 32.6231 8.93415C32.6187 8.93856 32.6567 8.89949 32.7782 8.83955C32.9003 8.77939 33.0863 8.70831 33.355 8.64181C33.9002 8.50691 34.6819 8.41602 35.7443 8.41602V4.41602ZM29.7104 11.6143C30.8687 13.4147 30.8072 15.2058 29.9808 19.2164L33.8985 20.0236C34.7133 16.0695 35.1991 12.7527 33.0743 9.4501L29.7104 11.6143ZM29.9808 19.2164C29.0161 23.8982 30.9068 28.1781 32.5008 30.0903L35.5733 27.5291C34.6137 26.3779 33.2221 23.3065 33.8985 20.0236L29.9808 19.2164ZM32.5008 30.0903C32.4349 30.0112 32.57 30.1525 32.66 30.8614C32.7399 31.4898 32.755 32.3044 32.7222 33.2592C32.6897 34.2037 32.6135 35.2158 32.531 36.2288C32.4501 37.2219 32.3611 38.2388 32.3136 39.1167L36.3078 39.3326C36.3514 38.5257 36.4334 37.5897 36.5178 36.5535C36.6005 35.5371 36.6839 34.4432 36.7198 33.3966C36.7554 32.3603 36.7478 31.2987 36.6281 30.3572C36.5187 29.4962 36.2776 28.374 35.5733 27.5291L32.5008 30.0903ZM32.3136 39.1167C32.2777 39.7808 32.157 40.1744 32.0622 40.3717C31.9707 40.562 31.9492 40.4854 32.114 40.4116C32.2984 40.329 32.4328 40.3761 32.4087 40.3671C32.3575 40.3479 32.1636 40.2511 31.881 39.9346L28.8975 42.5989C29.9868 43.8188 31.8135 44.9289 33.7488 44.0622C35.5553 43.2532 36.2053 41.2275 36.3078 39.3326L32.3136 39.1167ZM31.881 39.9346C31.2614 39.2408 30.5202 38.7126 29.6574 38.4834C28.7707 38.2478 27.9255 38.3746 27.2255 38.7086C25.9721 39.3066 25.131 40.5897 25.0241 41.8066L29.0088 42.1567C29.0006 42.2493 28.9815 42.2995 28.978 42.3084C28.9733 42.3204 28.9731 42.3176 28.9804 42.307C29.0017 42.2763 29.0046 42.2917 28.9479 42.3188C28.9143 42.3348 28.8627 42.3527 28.7972 42.3597C28.7294 42.3669 28.6705 42.3599 28.6304 42.3493C28.5484 42.3275 28.6507 42.3226 28.8975 42.5989L31.881 39.9346ZM25.0241 41.8066C24.9901 42.1931 24.8596 43.1829 25.1201 44.1489C25.4343 45.3141 26.236 46.2908 27.5858 46.8787L29.1829 43.2113C28.9962 43.13 28.9547 43.0732 28.9663 43.0864C28.9817 43.1039 28.9865 43.1234 28.9822 43.1075C28.9736 43.0755 28.9586 42.993 28.9612 42.8208C28.9641 42.6339 28.9826 42.4548 29.0088 42.1567L25.0241 41.8066ZM28.3843 45.045C27.1587 43.4646 27.1578 43.4652 27.1569 43.4659C27.1566 43.4662 27.1557 43.4669 27.1551 43.4673C27.1539 43.4683 27.1526 43.4693 27.1513 43.4703C27.1487 43.4723 27.1459 43.4745 27.143 43.4768C27.1372 43.4814 27.1308 43.4865 27.1238 43.4921C27.1099 43.5034 27.0936 43.5167 27.0753 43.532C27.0387 43.5626 26.9935 43.6017 26.9419 43.6489C26.8392 43.7427 26.707 43.8722 26.5634 44.0354C26.2845 44.3523 25.9176 44.8474 25.6696 45.5019C25.4134 46.178 25.2852 47.0276 25.5183 47.9673C25.7492 48.8981 26.2929 49.75 27.0981 50.5129L29.8493 47.6092C29.4689 47.2489 29.4087 47.0371 29.4006 47.0042C29.3947 46.9804 29.3922 46.9664 29.4101 46.9193C29.4361 46.8506 29.4915 46.7628 29.5663 46.6778C29.5996 46.64 29.6271 46.6137 29.64 46.6019C29.646 46.5964 29.6476 46.5952 29.6433 46.5988C29.6411 46.6007 29.6374 46.6038 29.6319 46.6082C29.6292 46.6104 29.626 46.6129 29.6223 46.6158C29.6205 46.6172 29.6186 46.6187 29.6165 46.6203C29.6155 46.6211 29.6144 46.622 29.6133 46.6228C29.6128 46.6232 29.612 46.6239 29.6117 46.6241C29.6108 46.6248 29.61 46.6254 28.3843 45.045ZM28.4737 49.0611C26.5582 48.4858 26.5579 48.4868 26.5576 48.4878C26.5575 48.4882 26.5572 48.4892 26.557 48.4899C26.5565 48.4914 26.5561 48.4928 26.5557 48.4943C26.5548 48.4974 26.5538 48.5006 26.5528 48.5039C26.5509 48.5107 26.5487 48.5182 26.5464 48.5264C26.5418 48.5428 26.5365 48.562 26.5308 48.5839C26.5193 48.6277 26.5058 48.6826 26.4916 48.7475C26.4633 48.8765 26.4314 49.0486 26.4074 49.2536C26.3604 49.6551 26.3383 50.2294 26.464 50.873C26.7412 52.292 27.7059 53.8019 29.8468 54.502L31.0902 50.7002C30.7029 50.5735 30.5583 50.4302 30.5077 50.3705C30.4517 50.3044 30.4127 50.2231 30.3898 50.1061C30.3649 49.9786 30.3662 49.8386 30.3802 49.7187C30.3868 49.6629 30.3948 49.6225 30.3988 49.6042C30.4007 49.5953 30.4015 49.5929 30.4002 49.5977C30.3996 49.6001 30.3984 49.6045 30.3966 49.6109C30.3957 49.6141 30.3946 49.6178 30.3934 49.622C30.3928 49.6241 30.3921 49.6264 30.3914 49.6287C30.3911 49.6299 30.3907 49.6312 30.3903 49.6324C30.3901 49.6331 30.3899 49.634 30.3898 49.6343C30.3895 49.6353 30.3892 49.6363 28.4737 49.0611ZM30.4685 52.6011C28.687 51.692 28.6866 51.6929 28.6862 51.6938C28.686 51.6941 28.6856 51.6949 28.6853 51.6956C28.6846 51.6968 28.684 51.698 28.6834 51.6993C28.6821 51.7019 28.6807 51.7046 28.6792 51.7075C28.6764 51.7132 28.6732 51.7196 28.6698 51.7265C28.663 51.7404 28.6552 51.7566 28.6465 51.7752C28.6291 51.8122 28.6081 51.8586 28.5848 51.9135C28.5385 52.0225 28.4814 52.1693 28.4259 52.3454C28.319 52.6842 28.1957 53.1997 28.2067 53.7991C28.2179 54.4133 28.3733 55.1742 28.8864 55.8838C29.4052 56.6013 30.1609 57.0879 31.0561 57.3685L32.2523 53.5515C32.0075 53.4748 32.045 53.4254 32.1278 53.5399C32.2048 53.6464 32.2062 53.7373 32.206 53.726C32.2056 53.7 32.2134 53.6349 32.2404 53.5492C32.2518 53.5131 32.2624 53.4868 32.2671 53.4758C32.2693 53.4706 32.2695 53.4703 32.2671 53.4755C32.2658 53.4782 32.2639 53.4823 32.2611 53.488C32.2596 53.4909 32.258 53.4942 32.2562 53.4978C32.2553 53.4997 32.2543 53.5016 32.2533 53.5037C32.2527 53.5047 32.2522 53.5058 32.2517 53.5069C32.2514 53.5074 32.251 53.5082 32.2508 53.5085C32.2504 53.5093 32.25 53.5102 30.4685 52.6011ZM31.6542 55.46C30.0195 54.3077 30.0188 54.3087 30.018 54.3098C30.0178 54.3102 30.017 54.3113 30.0165 54.312C30.0154 54.3135 30.0143 54.3151 30.0132 54.3166C30.011 54.3198 30.0088 54.3231 30.0064 54.3265C30.0016 54.3335 29.9965 54.341 29.991 54.3491C29.9801 54.3654 29.9677 54.3841 29.9542 54.4052C29.9272 54.4474 29.8952 54.4995 29.8602 54.5609C29.7904 54.6831 29.706 54.846 29.6233 55.0446C29.4599 55.4368 29.288 56.0038 29.2722 56.6906C29.2375 58.2076 29.9681 59.8076 31.8374 61.1012L34.1136 57.812C33.2012 57.1806 33.2712 56.7823 33.2712 56.7823C33.2728 56.7105 33.2922 56.6393 33.3157 56.5829C33.3264 56.5572 33.3344 56.5432 33.3336 56.5446C33.333 56.5457 33.3297 56.5514 33.3228 56.5622C33.3192 56.5677 33.3148 56.5746 33.3092 56.5829C33.3064 56.587 33.3033 56.5916 33.2999 56.5965C33.2982 56.5989 33.2965 56.6015 33.2946 56.6041C33.2937 56.6054 33.2928 56.6068 33.2918 56.6081C33.2913 56.6088 33.2906 56.6099 33.2903 56.6102C33.2896 56.6113 33.2889 56.6123 31.6542 55.46Z" fill="#173366" mask="url(#path-12-inside-6_32_16220)"/>
<path d="M19.9508 26.3836C19.9508 31.0072 16.2025 34.7554 11.5789 34.7554C6.95524 34.7554 3.20703 31.0072 3.20703 26.3836C3.20703 21.7599 6.95524 18.0117 11.5789 18.0117C16.2025 18.0117 19.9508 21.7599 19.9508 26.3836Z" stroke="#173366" stroke-width="2" stroke-linecap="round" stroke-linejoin="round"/>
<path d="M11.5547 40.3955V48.6356" stroke="#173366" stroke-width="2" stroke-linecap="round" stroke-linejoin="round"/>
<path d="M15.3125 40.3955L18.0288 48.6356" stroke="#173366" stroke-width="2" stroke-linecap="round" stroke-linejoin="round"/>
<path d="M7.84132 40.3955L5.125 48.6356" stroke="#173366" stroke-width="2" stroke-linecap="round" stroke-linejoin="round"/>
</g>
<defs>
<clipPath id="clip0_32_16220">
<rect width="70.6288" height="60" fill="white" transform="translate(0.429688)"/>
</clipPath>
</defs>
</svg>
