<svg width="60" height="58" viewBox="0 0 60 58" fill="none" xmlns="http://www.w3.org/2000/svg">
<path d="M42.4587 10.8432C42.4587 7.84641 40.0293 5.41699 37.0324 5.41699C34.0356 5.41699 31.6062 7.84641 31.6062 10.8432C31.6062 10.8432 28.5743 11.3564 28.9118 14.6637C28.9118 14.6637 27.9669 10.5465 25.2672 10.2765C22.5674 10.0065 19.4627 13.1113 19.4627 13.1113C19.4627 13.1113 18.7879 11.2215 17.7754 11.7614C16.763 12.3014 15.953 17.0934 21.0825 17.5658C21.0825 17.5658 19.9351 25.5301 28.8443 24.9901C37.7535 24.4501 38.3429 19.3384 38.6557 16.0223C40.8595 15.3323 42.4587 13.2746 42.4587 10.8432Z" stroke="#173366" stroke-width="1.17188" stroke-miterlimit="10" stroke-linecap="round" stroke-linejoin="round"/>
<path d="M33.9979 15.3428C32.5545 14.3677 31.6055 12.7163 31.6055 10.8432C31.6055 7.84641 34.0349 5.41699 37.0317 5.41699" stroke="#173366" stroke-width="1.17188" stroke-miterlimit="10" stroke-linecap="round" stroke-linejoin="round"/>
<path d="M28.9102 14.6636C28.9102 14.6636 29.2612 16.7585 30.4781 17.5698" stroke="#173366" stroke-width="1.17188" stroke-miterlimit="10" stroke-linecap="round" stroke-linejoin="round"/>
<path d="M22.3815 14.9055C22.3815 14.9055 21.2923 15.7575 21.082 17.5659" stroke="#173366" stroke-width="1.17188" stroke-miterlimit="10" stroke-linecap="round" stroke-linejoin="round"/>
<path d="M15.0514 21.0161L25.4563 31.1292C27.8428 33.4487 31.6414 33.4487 34.0277 31.1292L47.3848 18.1466C51.4958 14.151 51.4478 7.53483 47.2795 3.59921C43.9634 0.468191 38.9575 -0.0441522 35.0759 2.35011L29.742 5.64003L24.4081 2.34999C20.5265 -0.0442693 15.5206 0.468191 12.2046 3.59909C8.03619 7.53483 7.98826 14.1509 12.0992 18.1465" stroke="#173366" stroke-width="1.17188" stroke-miterlimit="10" stroke-linecap="round" stroke-linejoin="round"/>
<path d="M20.1961 0.907959C20.1961 0.907959 17.3929 4.03136 18.5424 6.12819C19.9488 8.69378 24.2953 4.94495 25.2665 10.2764" stroke="#173366" stroke-width="1.17188" stroke-miterlimit="10" stroke-linecap="round" stroke-linejoin="round"/>
<path d="M16.6301 57.1495L16.643 49.7515L6.4043 41.2179C5.7 40.6308 5.15742 39.8749 4.82813 39.0195L0.775781 28.5054C0.671484 28.2335 0.621094 27.9511 0.621094 27.6734C0.621094 26.9281 0.98086 26.2085 1.62188 25.7656C2.74805 24.9898 4.29727 25.3519 4.96172 26.5484L9.56719 34.8417L16.0207 37.1785" stroke="#173366" stroke-width="1.17188" stroke-miterlimit="10" stroke-linecap="round" stroke-linejoin="round"/>
<path d="M17.1633 40.3006C16.7145 39.5382 16.3834 38.7124 16.1813 37.851L15.0107 32.8625C14.7331 31.6795 15.4872 30.5007 16.6776 30.2569C17.6243 30.063 18.5844 30.5225 19.0273 31.3813L20.749 34.7205L25.6238 39.2377C27.244 40.7391 28.2678 42.7749 28.5069 44.9708L28.9009 48.5883L29.7441 57.1497" stroke="#173366" stroke-width="1.17188" stroke-miterlimit="10" stroke-linecap="round" stroke-linejoin="round"/>
<path d="M47.5257 35.708L49.9195 34.8412L54.525 26.5479C55.1895 25.3514 56.7387 24.9893 57.8648 25.7651C58.5059 26.208 58.8656 26.9276 58.8656 27.6729C58.8656 27.9506 58.8152 28.233 58.7109 28.5049L54.6586 39.019C54.3293 39.8744 53.7867 40.6303 53.0824 41.2174L42.8438 49.751L42.8566 57.1491" stroke="#173366" stroke-width="1.17188" stroke-miterlimit="10" stroke-linecap="round" stroke-linejoin="round"/>
<path d="M42.323 40.3004C42.7718 39.5379 43.1029 38.7121 43.305 37.8508L44.4756 32.8622C44.7532 31.6792 43.9991 30.5004 42.8087 30.2567C41.862 30.0627 40.9018 30.5222 40.459 31.3811L38.7373 34.7202L33.8625 39.2375C32.2423 40.7389 31.2185 42.7747 30.9793 44.9705L30.5854 48.5881L29.7422 57.1495" stroke="#173366" stroke-width="1.17188" stroke-miterlimit="10" stroke-linecap="round" stroke-linejoin="round"/>
</svg>
