<svg width="20" height="20" viewBox="0 0 20 20" fill="none" xmlns="http://www.w3.org/2000/svg">
<g clip-path="url(#clip0_193_7266)">
<path d="M15 4.16667H0.833333C0.375 4.16667 0 3.79167 0 3.33333C0 2.875 0.375 2.5 0.833333 2.5H15C15.4583 2.5 15.8333 2.875 15.8333 3.33333C15.8333 3.79167 15.4583 4.16667 15 4.16667ZM15.8333 16.6667C15.8333 16.2083 15.4583 15.8333 15 15.8333H0.833333C0.375 15.8333 0 16.2083 0 16.6667C0 17.125 0.375 17.5 0.833333 17.5H15C15.4583 17.5 15.8333 17.125 15.8333 16.6667ZM20 10C20 9.54167 19.625 9.16667 19.1667 9.16667H5C4.54167 9.16667 4.16667 9.54167 4.16667 10C4.16667 10.4583 4.54167 10.8333 5 10.8333H19.1667C19.625 10.8333 20 10.4583 20 10Z" fill="white"/>
</g>
<defs>
<clipPath id="clip0_193_7266">
<rect width="20" height="20" fill="white"/>
</clipPath>
</defs>
</svg>
