<svg width="24" height="24" viewBox="0 0 24 24" fill="none" xmlns="http://www.w3.org/2000/svg">
<path d="M14.5666 19.152C10.332 17.3541 6.92077 14.0406 5.0006 9.86003V9.85803L4.4816 8.71803C4.13856 7.96322 4.07462 7.11115 4.30115 6.3136C4.52769 5.51604 5.03 4.82481 5.7186 4.36303L7.0516 3.46903C7.25924 3.32992 7.51145 3.2736 7.75854 3.31117C8.00563 3.34875 8.2297 3.47748 8.3866 3.67203L10.8166 6.68403C10.9012 6.78893 10.9637 6.90983 11.0003 7.03949C11.037 7.16914 11.0471 7.30487 11.03 7.43853C11.0129 7.57218 10.969 7.701 10.9009 7.81725C10.8328 7.93351 10.7418 8.03479 10.6336 8.11503L9.3766 9.04703C10.5582 11.4394 12.495 13.3759 14.8876 14.557L15.8196 13.301C15.8998 13.1928 16.0011 13.1019 16.1174 13.0337C16.2336 12.9656 16.3625 12.9217 16.4961 12.9046C16.6298 12.8875 16.7655 12.8976 16.8951 12.9343C17.0248 12.971 17.1457 13.0335 17.2506 13.118L20.2626 15.548C20.4571 15.7049 20.5859 15.929 20.6235 16.1761C20.661 16.4232 20.6047 16.6754 20.4656 16.883L19.5776 18.207C19.1182 18.8917 18.4319 19.3923 17.6395 19.6204C16.8472 19.8485 15.9997 19.7896 15.2466 19.454L14.5666 19.152Z" fill="white"/>
<path d="M13.75 8.99997C13.75 9.19889 13.829 9.38965 13.9697 9.5303C14.1103 9.67096 14.3011 9.74997 14.5 9.74997H18.328C18.5269 9.74997 18.7177 9.67096 18.8583 9.5303C18.999 9.38965 19.078 9.19889 19.078 8.99997C19.078 8.80106 18.999 8.6103 18.8583 8.46965C18.7177 8.32899 18.5269 8.24997 18.328 8.24997H16.311L19.47 5.09098C19.5416 5.02176 19.5987 4.93897 19.638 4.84745C19.6772 4.75593 19.6979 4.6575 19.6987 4.55792C19.6995 4.45833 19.6805 4.35958 19.6427 4.26743C19.605 4.17528 19.5492 4.09156 19.4788 4.02118C19.4083 3.95079 19.3246 3.89514 19.2324 3.85747C19.1402 3.81981 19.0414 3.80088 18.9418 3.80179C18.8423 3.8027 18.7439 3.82344 18.6524 3.86279C18.5609 3.90214 18.4782 3.95931 18.409 4.03098L15.25 7.18798V5.17197C15.25 4.97306 15.171 4.7823 15.0303 4.64164C14.8897 4.50099 14.6989 4.42197 14.5 4.42197C14.3011 4.42197 14.1103 4.50099 13.9697 4.64164C13.829 4.7823 13.75 4.97306 13.75 5.17197V8.99997Z" fill="white"/>
</svg>
