<svg width="66" height="66" viewBox="0 0 66 66" fill="none" xmlns="http://www.w3.org/2000/svg">
<mask id="mask0_2631_914" style="mask-type:alpha" maskUnits="userSpaceOnUse" x="15" y="15" width="36" height="36">
<rect x="15" y="15" width="36" height="36" fill="#D9D9D9"/>
</mask>
<g mask="url(#mask0_2631_914)">
<mask id="path-2-outside-1_2631_914" maskUnits="userSpaceOnUse" x="16.8789" y="16.8804" width="32" height="32" fill="black">
<rect fill="white" x="16.8789" y="16.8804" width="32" height="32"/>
<path fill-rule="evenodd" clip-rule="evenodd" d="M30.1907 22.9032C31.3065 24.4133 32.0806 26.0059 32.5861 27.8134C32.6018 27.8645 32.6241 27.9247 32.6463 27.9771V45.2482C32.6463 46.833 33.9417 48.1204 35.5185 48.1204H38.8962C40.4809 48.1204 41.7683 46.833 41.7683 45.2482V44.2882C42.2451 44.1022 42.5725 43.7001 42.5725 43.1723V41.141C43.5469 40.6643 44.1795 39.72 44.1795 38.6185L44.1782 31.6235H45.4054C45.9031 31.6235 45.9031 30.8639 45.4054 30.8639H42.7414V28.7369H43.9542C44.4532 28.7369 44.4532 27.9773 43.9542 27.9773H38.8214C38.3224 27.9773 38.3224 28.7369 38.8214 28.7369H40.0342V30.8639H37.3702C36.8712 30.8639 36.8712 31.6235 37.3702 31.6235H38.6053V38.6185C38.6053 39.72 39.23 40.6643 40.2123 41.141V43.1723C40.2123 43.7001 40.5319 44.1022 41.0086 44.2882C41.0086 44.6156 41.0152 44.9287 41.0152 45.2482C41.0152 46.4165 40.063 47.3686 38.8948 47.3686L35.5171 47.3673C34.3567 47.3673 33.4046 46.4152 33.4046 45.2469C33.4046 39.4948 33.3967 33.736 33.3967 27.9758C33.4268 27.9234 33.4491 27.8632 33.4635 27.8121C33.9612 26.0034 34.7352 24.4107 35.8511 22.9019C36.0895 22.6033 35.9415 22.3505 35.6494 22.2025C33.9167 21.2727 32.1222 21.2792 30.3895 22.2025C30.1013 22.3662 29.968 22.6203 30.1907 22.9032ZM39.365 36.6012H41.0991C41.6059 36.6012 41.6059 37.3595 41.0991 37.3595H39.365V38.6181C39.365 41.2807 43.4213 41.2807 43.4213 38.6181L43.42 31.6231H39.3651V33.1568H41.0991C41.6059 33.1568 41.6059 33.9151 41.0991 33.9151H39.3651V34.8829H41.0991C41.6059 34.8829 41.6059 35.6425 41.0991 35.6425H39.3651L39.365 36.6012ZM40.972 41.3776V43.1706C40.972 43.722 41.8129 43.722 41.8129 43.1706V41.3776C41.4998 41.4064 41.2772 41.4064 40.972 41.3776ZM41.9844 28.7364H40.7939V30.8634H41.9844V28.7364ZM33.026 26.6527C32.4681 25.1872 31.8957 24.0255 31.0025 22.7316C32.5126 22.0846 33.5472 22.0925 35.043 22.7316C34.1563 24.0256 33.5761 25.1873 33.026 26.6527ZM38.0475 20.9908C39.1568 21.7714 38.7915 22.0844 38.0397 23.0444C36.3358 25.2251 35.3915 27.3598 34.7733 30.0538C34.5807 30.9248 34.565 31.3635 35.0483 32.1376C36.1419 33.8703 34.3188 37.5832 33.8958 39.608C33.791 40.0913 34.5284 40.2484 34.6318 39.7638C34.9003 38.5 35.2867 37.4797 35.6665 36.2668C36.1052 34.8602 36.5296 33.0817 35.6887 31.7352C35.3168 31.1406 35.3613 30.8878 35.5106 30.2251C36.0987 27.6345 36.9984 25.6032 38.6355 23.5064C39.0599 22.9563 39.4017 22.5765 39.5209 21.8692C41.6046 21.5929 42.0735 20.1732 43.5835 19.1529C45.8821 17.5904 48.4713 19.8536 46.9692 22.2936C46.3812 23.2379 45.5259 23.7067 44.5214 24.1101L44.4323 24.0053C43.9268 23.4173 43.0493 23.2614 42.3119 23.4108C41.3742 23.6046 40.3395 24.431 40.5569 25.4945C40.7796 26.5593 42.0605 26.909 42.9903 26.7151C43.8377 26.5435 44.7453 25.8821 44.7754 24.9431V24.816C45.9437 24.355 46.9338 23.7892 47.6109 22.6878C49.531 19.5694 46.1218 16.5125 43.1617 18.5296C41.6805 19.5328 41.3386 20.9394 39.2929 21.1346C39.048 20.8137 38.8175 20.6133 38.4822 20.3749C34.9631 17.897 31.0942 17.897 27.5657 20.3749C27.2317 20.6133 26.9999 20.8137 26.755 21.1346C24.7092 20.9407 24.3674 19.5341 22.8925 18.5296C19.9221 16.51 16.5145 19.5682 18.441 22.6854C19.1181 23.7869 20.1004 24.3527 21.2686 24.8137L21.2765 24.9407C21.3066 25.8798 22.2064 26.5412 23.0551 26.7128C23.9928 26.9053 25.2724 26.5556 25.4885 25.4921C25.7111 24.4286 24.6778 23.6022 23.7335 23.4084C23.004 23.2604 22.1265 23.4163 21.6196 24.003L21.5227 24.1078C20.5247 23.7044 19.6629 23.2355 19.0828 22.2912C17.5792 19.8513 20.1685 17.5882 22.4684 19.1506C23.9707 20.1708 24.4474 21.5905 26.5311 21.8669C26.6502 22.5741 26.9855 22.9539 27.4086 23.504C29.047 25.6021 29.9454 27.6333 30.5414 30.2227C30.6907 30.8855 30.7352 31.1382 30.3633 31.7328C29.5146 33.0792 29.9468 34.8577 30.3855 36.2645C30.7575 37.4773 31.1517 38.4962 31.4202 39.7615C31.5171 40.2461 32.2545 40.0889 32.1562 39.6056C31.7253 37.5821 29.9101 33.8693 30.9958 32.1352C31.487 31.3612 31.4726 30.9224 31.2709 30.0515C30.6606 27.3588 29.7084 25.2227 28.0045 23.0421C27.2606 22.0834 26.8886 21.769 27.9966 20.9885C31.2617 18.6912 34.7889 18.691 38.0475 20.9908ZM42.8397 25.9755C43.3531 25.872 44.135 25.4031 44.008 24.7849C43.8823 24.1602 42.9733 24.041 42.4612 24.1445C41.9557 24.2558 41.1672 24.7181 41.293 25.3428C41.4265 25.961 42.3263 26.0789 42.8397 25.9755ZM23.2035 25.9755C22.698 25.872 21.9096 25.4031 22.0353 24.7849C22.1689 24.1602 23.0699 24.041 23.5834 24.1445C24.0967 24.2558 24.8787 24.7181 24.7516 25.3428C24.6246 25.961 23.717 26.0789 23.2035 25.9755Z"/>
</mask>
<path fill-rule="evenodd" clip-rule="evenodd" d="M30.1907 22.9032C31.3065 24.4133 32.0806 26.0059 32.5861 27.8134C32.6018 27.8645 32.6241 27.9247 32.6463 27.9771V45.2482C32.6463 46.833 33.9417 48.1204 35.5185 48.1204H38.8962C40.4809 48.1204 41.7683 46.833 41.7683 45.2482V44.2882C42.2451 44.1022 42.5725 43.7001 42.5725 43.1723V41.141C43.5469 40.6643 44.1795 39.72 44.1795 38.6185L44.1782 31.6235H45.4054C45.9031 31.6235 45.9031 30.8639 45.4054 30.8639H42.7414V28.7369H43.9542C44.4532 28.7369 44.4532 27.9773 43.9542 27.9773H38.8214C38.3224 27.9773 38.3224 28.7369 38.8214 28.7369H40.0342V30.8639H37.3702C36.8712 30.8639 36.8712 31.6235 37.3702 31.6235H38.6053V38.6185C38.6053 39.72 39.23 40.6643 40.2123 41.141V43.1723C40.2123 43.7001 40.5319 44.1022 41.0086 44.2882C41.0086 44.6156 41.0152 44.9287 41.0152 45.2482C41.0152 46.4165 40.063 47.3686 38.8948 47.3686L35.5171 47.3673C34.3567 47.3673 33.4046 46.4152 33.4046 45.2469C33.4046 39.4948 33.3967 33.736 33.3967 27.9758C33.4268 27.9234 33.4491 27.8632 33.4635 27.8121C33.9612 26.0034 34.7352 24.4107 35.8511 22.9019C36.0895 22.6033 35.9415 22.3505 35.6494 22.2025C33.9167 21.2727 32.1222 21.2792 30.3895 22.2025C30.1013 22.3662 29.968 22.6203 30.1907 22.9032ZM39.365 36.6012H41.0991C41.6059 36.6012 41.6059 37.3595 41.0991 37.3595H39.365V38.6181C39.365 41.2807 43.4213 41.2807 43.4213 38.6181L43.42 31.6231H39.3651V33.1568H41.0991C41.6059 33.1568 41.6059 33.9151 41.0991 33.9151H39.3651V34.8829H41.0991C41.6059 34.8829 41.6059 35.6425 41.0991 35.6425H39.3651L39.365 36.6012ZM40.972 41.3776V43.1706C40.972 43.722 41.8129 43.722 41.8129 43.1706V41.3776C41.4998 41.4064 41.2772 41.4064 40.972 41.3776ZM41.9844 28.7364H40.7939V30.8634H41.9844V28.7364ZM33.026 26.6527C32.4681 25.1872 31.8957 24.0255 31.0025 22.7316C32.5126 22.0846 33.5472 22.0925 35.043 22.7316C34.1563 24.0256 33.5761 25.1873 33.026 26.6527ZM38.0475 20.9908C39.1568 21.7714 38.7915 22.0844 38.0397 23.0444C36.3358 25.2251 35.3915 27.3598 34.7733 30.0538C34.5807 30.9248 34.565 31.3635 35.0483 32.1376C36.1419 33.8703 34.3188 37.5832 33.8958 39.608C33.791 40.0913 34.5284 40.2484 34.6318 39.7638C34.9003 38.5 35.2867 37.4797 35.6665 36.2668C36.1052 34.8602 36.5296 33.0817 35.6887 31.7352C35.3168 31.1406 35.3613 30.8878 35.5106 30.2251C36.0987 27.6345 36.9984 25.6032 38.6355 23.5064C39.0599 22.9563 39.4017 22.5765 39.5209 21.8692C41.6046 21.5929 42.0735 20.1732 43.5835 19.1529C45.8821 17.5904 48.4713 19.8536 46.9692 22.2936C46.3812 23.2379 45.5259 23.7067 44.5214 24.1101L44.4323 24.0053C43.9268 23.4173 43.0493 23.2614 42.3119 23.4108C41.3742 23.6046 40.3395 24.431 40.5569 25.4945C40.7796 26.5593 42.0605 26.909 42.9903 26.7151C43.8377 26.5435 44.7453 25.8821 44.7754 24.9431V24.816C45.9437 24.355 46.9338 23.7892 47.6109 22.6878C49.531 19.5694 46.1218 16.5125 43.1617 18.5296C41.6805 19.5328 41.3386 20.9394 39.2929 21.1346C39.048 20.8137 38.8175 20.6133 38.4822 20.3749C34.9631 17.897 31.0942 17.897 27.5657 20.3749C27.2317 20.6133 26.9999 20.8137 26.755 21.1346C24.7092 20.9407 24.3674 19.5341 22.8925 18.5296C19.9221 16.51 16.5145 19.5682 18.441 22.6854C19.1181 23.7869 20.1004 24.3527 21.2686 24.8137L21.2765 24.9407C21.3066 25.8798 22.2064 26.5412 23.0551 26.7128C23.9928 26.9053 25.2724 26.5556 25.4885 25.4921C25.7111 24.4286 24.6778 23.6022 23.7335 23.4084C23.004 23.2604 22.1265 23.4163 21.6196 24.003L21.5227 24.1078C20.5247 23.7044 19.6629 23.2355 19.0828 22.2912C17.5792 19.8513 20.1685 17.5882 22.4684 19.1506C23.9707 20.1708 24.4474 21.5905 26.5311 21.8669C26.6502 22.5741 26.9855 22.9539 27.4086 23.504C29.047 25.6021 29.9454 27.6333 30.5414 30.2227C30.6907 30.8855 30.7352 31.1382 30.3633 31.7328C29.5146 33.0792 29.9468 34.8577 30.3855 36.2645C30.7575 37.4773 31.1517 38.4962 31.4202 39.7615C31.5171 40.2461 32.2545 40.0889 32.1562 39.6056C31.7253 37.5821 29.9101 33.8693 30.9958 32.1352C31.487 31.3612 31.4726 30.9224 31.2709 30.0515C30.6606 27.3588 29.7084 25.2227 28.0045 23.0421C27.2606 22.0834 26.8886 21.769 27.9966 20.9885C31.2617 18.6912 34.7889 18.691 38.0475 20.9908ZM42.8397 25.9755C43.3531 25.872 44.135 25.4031 44.008 24.7849C43.8823 24.1602 42.9733 24.041 42.4612 24.1445C41.9557 24.2558 41.1672 24.7181 41.293 25.3428C41.4265 25.961 42.3263 26.0789 42.8397 25.9755ZM23.2035 25.9755C22.698 25.872 21.9096 25.4031 22.0353 24.7849C22.1689 24.1602 23.0699 24.041 23.5834 24.1445C24.0967 24.2558 24.8787 24.7181 24.7516 25.3428C24.6246 25.961 23.717 26.0789 23.2035 25.9755Z" fill="#173366"/>
<path fill-rule="evenodd" clip-rule="evenodd" d="M30.1907 22.9032C31.3065 24.4133 32.0806 26.0059 32.5861 27.8134C32.6018 27.8645 32.6241 27.9247 32.6463 27.9771V45.2482C32.6463 46.833 33.9417 48.1204 35.5185 48.1204H38.8962C40.4809 48.1204 41.7683 46.833 41.7683 45.2482V44.2882C42.2451 44.1022 42.5725 43.7001 42.5725 43.1723V41.141C43.5469 40.6643 44.1795 39.72 44.1795 38.6185L44.1782 31.6235H45.4054C45.9031 31.6235 45.9031 30.8639 45.4054 30.8639H42.7414V28.7369H43.9542C44.4532 28.7369 44.4532 27.9773 43.9542 27.9773H38.8214C38.3224 27.9773 38.3224 28.7369 38.8214 28.7369H40.0342V30.8639H37.3702C36.8712 30.8639 36.8712 31.6235 37.3702 31.6235H38.6053V38.6185C38.6053 39.72 39.23 40.6643 40.2123 41.141V43.1723C40.2123 43.7001 40.5319 44.1022 41.0086 44.2882C41.0086 44.6156 41.0152 44.9287 41.0152 45.2482C41.0152 46.4165 40.063 47.3686 38.8948 47.3686L35.5171 47.3673C34.3567 47.3673 33.4046 46.4152 33.4046 45.2469C33.4046 39.4948 33.3967 33.736 33.3967 27.9758C33.4268 27.9234 33.4491 27.8632 33.4635 27.8121C33.9612 26.0034 34.7352 24.4107 35.8511 22.9019C36.0895 22.6033 35.9415 22.3505 35.6494 22.2025C33.9167 21.2727 32.1222 21.2792 30.3895 22.2025C30.1013 22.3662 29.968 22.6203 30.1907 22.9032ZM39.365 36.6012H41.0991C41.6059 36.6012 41.6059 37.3595 41.0991 37.3595H39.365V38.6181C39.365 41.2807 43.4213 41.2807 43.4213 38.6181L43.42 31.6231H39.3651V33.1568H41.0991C41.6059 33.1568 41.6059 33.9151 41.0991 33.9151H39.3651V34.8829H41.0991C41.6059 34.8829 41.6059 35.6425 41.0991 35.6425H39.3651L39.365 36.6012ZM40.972 41.3776V43.1706C40.972 43.722 41.8129 43.722 41.8129 43.1706V41.3776C41.4998 41.4064 41.2772 41.4064 40.972 41.3776ZM41.9844 28.7364H40.7939V30.8634H41.9844V28.7364ZM33.026 26.6527C32.4681 25.1872 31.8957 24.0255 31.0025 22.7316C32.5126 22.0846 33.5472 22.0925 35.043 22.7316C34.1563 24.0256 33.5761 25.1873 33.026 26.6527ZM38.0475 20.9908C39.1568 21.7714 38.7915 22.0844 38.0397 23.0444C36.3358 25.2251 35.3915 27.3598 34.7733 30.0538C34.5807 30.9248 34.565 31.3635 35.0483 32.1376C36.1419 33.8703 34.3188 37.5832 33.8958 39.608C33.791 40.0913 34.5284 40.2484 34.6318 39.7638C34.9003 38.5 35.2867 37.4797 35.6665 36.2668C36.1052 34.8602 36.5296 33.0817 35.6887 31.7352C35.3168 31.1406 35.3613 30.8878 35.5106 30.2251C36.0987 27.6345 36.9984 25.6032 38.6355 23.5064C39.0599 22.9563 39.4017 22.5765 39.5209 21.8692C41.6046 21.5929 42.0735 20.1732 43.5835 19.1529C45.8821 17.5904 48.4713 19.8536 46.9692 22.2936C46.3812 23.2379 45.5259 23.7067 44.5214 24.1101L44.4323 24.0053C43.9268 23.4173 43.0493 23.2614 42.3119 23.4108C41.3742 23.6046 40.3395 24.431 40.5569 25.4945C40.7796 26.5593 42.0605 26.909 42.9903 26.7151C43.8377 26.5435 44.7453 25.8821 44.7754 24.9431V24.816C45.9437 24.355 46.9338 23.7892 47.6109 22.6878C49.531 19.5694 46.1218 16.5125 43.1617 18.5296C41.6805 19.5328 41.3386 20.9394 39.2929 21.1346C39.048 20.8137 38.8175 20.6133 38.4822 20.3749C34.9631 17.897 31.0942 17.897 27.5657 20.3749C27.2317 20.6133 26.9999 20.8137 26.755 21.1346C24.7092 20.9407 24.3674 19.5341 22.8925 18.5296C19.9221 16.51 16.5145 19.5682 18.441 22.6854C19.1181 23.7869 20.1004 24.3527 21.2686 24.8137L21.2765 24.9407C21.3066 25.8798 22.2064 26.5412 23.0551 26.7128C23.9928 26.9053 25.2724 26.5556 25.4885 25.4921C25.7111 24.4286 24.6778 23.6022 23.7335 23.4084C23.004 23.2604 22.1265 23.4163 21.6196 24.003L21.5227 24.1078C20.5247 23.7044 19.6629 23.2355 19.0828 22.2912C17.5792 19.8513 20.1685 17.5882 22.4684 19.1506C23.9707 20.1708 24.4474 21.5905 26.5311 21.8669C26.6502 22.5741 26.9855 22.9539 27.4086 23.504C29.047 25.6021 29.9454 27.6333 30.5414 30.2227C30.6907 30.8855 30.7352 31.1382 30.3633 31.7328C29.5146 33.0792 29.9468 34.8577 30.3855 36.2645C30.7575 37.4773 31.1517 38.4962 31.4202 39.7615C31.5171 40.2461 32.2545 40.0889 32.1562 39.6056C31.7253 37.5821 29.9101 33.8693 30.9958 32.1352C31.487 31.3612 31.4726 30.9224 31.2709 30.0515C30.6606 27.3588 29.7084 25.2227 28.0045 23.0421C27.2606 22.0834 26.8886 21.769 27.9966 20.9885C31.2617 18.6912 34.7889 18.691 38.0475 20.9908ZM42.8397 25.9755C43.3531 25.872 44.135 25.4031 44.008 24.7849C43.8823 24.1602 42.9733 24.041 42.4612 24.1445C41.9557 24.2558 41.1672 24.7181 41.293 25.3428C41.4265 25.961 42.3263 26.0789 42.8397 25.9755ZM23.2035 25.9755C22.698 25.872 21.9096 25.4031 22.0353 24.7849C22.1689 24.1602 23.0699 24.041 23.5834 24.1445C24.0967 24.2558 24.8787 24.7181 24.7516 25.3428C24.6246 25.961 23.717 26.0789 23.2035 25.9755Z" stroke="#173366" stroke-width="0.4" mask="url(#path-2-outside-1_2631_914)"/>
</g>
<circle cx="33" cy="33" r="32.5" stroke="#D9D9D9"/>
</svg>
