<svg width="66" height="66" viewBox="0 0 66 66" fill="none" xmlns="http://www.w3.org/2000/svg">
<mask id="mask0_2631_544" style="mask-type:alpha" maskUnits="userSpaceOnUse" x="15" y="15" width="36" height="36">
<rect x="15" y="15" width="36" height="36" fill="#D9D9D9"/>
</mask>
<g mask="url(#mask0_2631_544)">
<path d="M46.5606 35.7691C46.2714 35.6903 45.9823 35.848 45.9034 36.1108C44.484 40.7631 40.2519 43.8912 35.3633 43.8912C29.7382 43.8912 25.0334 39.6856 24.4026 34.1131C24.35 33.7189 24.0871 33.4297 23.8243 33.1932C23.7454 33.088 23.5877 32.9566 23.5351 32.8777C23.5877 32.7989 23.7191 32.6412 23.8243 32.5623C24.0608 32.2995 24.35 32.0103 24.4026 31.6423C25.0334 26.0173 29.7387 21.8117 35.3633 21.8117C40.2258 21.8117 44.4845 24.9396 45.9034 29.5921C45.9823 29.8812 46.2714 30.0126 46.5606 29.9338C46.8497 29.8549 46.9811 29.5658 46.9023 29.2767C45.3514 24.1773 40.699 20.7603 35.3629 20.7603C29.8695 20.7603 25.1903 24.4139 23.7448 29.513C23.0088 28.961 22.1151 28.6456 21.1688 28.6456H16.9632C16.6741 28.6456 16.4375 28.8822 16.4375 29.1713C16.4375 29.4605 16.6741 29.697 16.9632 29.697H21.1688C22.0363 29.697 22.8774 30.065 23.4557 30.6959C23.4031 30.9324 23.3768 31.1953 23.3505 31.4581C23.3242 31.537 23.1665 31.6947 23.0614 31.7998C22.7985 32.089 22.4831 32.4044 22.4831 32.8512C22.4831 33.2981 22.7985 33.6135 23.0614 33.9027C23.1665 34.0078 23.3242 34.1655 23.3505 34.2181C23.3768 34.4809 23.4294 34.7438 23.4557 35.0066C22.8774 35.6375 22.0363 36.0055 21.1688 36.0055H16.9632C16.6741 36.0055 16.4375 36.242 16.4375 36.5312C16.4375 36.8203 16.6741 37.0569 16.9632 37.0569H21.1688C22.1151 37.0569 23.0088 36.7415 23.7448 36.1895C25.1905 41.2888 29.869 44.9422 35.3629 44.9422C40.699 44.9422 45.3512 41.5252 46.9283 36.4258C47.0072 36.1367 46.8495 35.8475 46.5604 35.7687L46.5606 35.7691Z" fill="#173366"/>
<path d="M37.0449 33.0875C36.8346 33.2452 36.6243 33.3766 36.1512 33.3241C35.9146 33.2978 35.6781 33.0612 35.4152 32.7984C35.0209 32.4304 34.5215 31.931 33.7592 31.8258C33.7592 31.7732 33.7592 31.6944 33.7329 31.6418C33.7329 31.6155 33.7067 31.563 33.7067 31.5367C33.4175 30.7481 32.7078 30.2487 31.8667 30.2487C30.9993 30.2224 28.2656 30.9847 28.2656 32.3252C28.2656 33.6658 30.9993 34.4281 31.8667 34.4281C32.7078 34.4281 33.4175 33.9286 33.7067 33.1401C33.7067 33.1138 33.7329 33.0875 33.7329 33.0349C33.7329 32.9824 33.7592 32.9298 33.7592 32.8772C34.1009 32.9561 34.3638 33.1926 34.6792 33.5344C35.0209 33.8761 35.4152 34.2703 36.0198 34.3492C36.1512 34.3755 36.2563 34.3755 36.3615 34.3755C36.966 34.3755 37.3866 34.1389 37.6757 33.9286C37.9123 33.7446 37.9649 33.4292 37.7809 33.1926C37.5969 32.9561 37.2815 32.9035 37.0449 33.0875ZM32.708 32.8247C32.6029 33.0612 32.3926 33.3766 31.8669 33.3766C31.0258 33.3766 29.475 32.6669 29.3172 32.3252C29.4487 31.9572 31.0258 31.2738 31.8669 31.2738C32.3926 31.2738 32.6029 31.6155 32.708 31.8258C32.7343 32.1675 32.7343 32.5092 32.708 32.8247Z" fill="#173366"/>
<path d="M49.5563 31.2742C49.5563 30.9851 49.3197 30.7485 49.0306 30.7485H42.0387C42.1964 30.328 42.433 29.8548 42.7747 29.5131C43.5107 28.7246 43.5369 27.4892 42.8798 26.6743C42.433 26.1223 41.9073 25.6229 41.3553 25.1761C37.7016 22.3373 32.3392 22.5212 28.8961 25.6229C26.8196 27.4629 25.6367 30.1179 25.6367 32.8776C25.6367 35.6374 26.8196 38.2924 28.8961 40.1323C30.7098 41.762 33.0491 42.5769 35.3622 42.5769C37.5176 42.5769 39.673 41.8672 41.4343 40.4478C41.8286 40.1323 42.2229 39.7643 42.5646 39.3964C43.3006 38.5815 43.3269 37.3461 42.5909 36.4787C42.2229 36.0318 41.9863 35.4799 41.8286 34.9542H49.0308C49.3199 34.9542 49.5565 34.7176 49.5565 34.4284C49.5565 34.1393 49.3199 33.9027 49.0308 33.9027H40.3831L38.99 31.7999H49.031C49.3201 31.7999 49.5563 31.5634 49.5563 31.2742ZM37.5441 31.5634L39.6469 34.7176C39.7521 34.8753 39.9098 34.9542 40.0938 34.9542H40.7509C40.9349 35.6376 41.2241 36.4787 41.7761 37.1621C42.1703 37.609 42.144 38.2661 41.7761 38.6867C41.4606 39.0284 41.1452 39.3438 40.7772 39.6329C37.5178 42.2614 32.7074 42.13 29.5797 39.3438C27.766 37.6878 26.6883 35.3221 26.6883 32.8776C26.6883 30.4331 27.7397 28.0411 29.5797 26.4115C32.6551 23.6515 37.4127 23.4938 40.6721 26.0172C41.1715 26.4115 41.6446 26.8583 42.0389 27.3577C42.3806 27.7783 42.3543 28.4091 41.9863 28.8297C41.4343 29.408 41.1189 30.1702 40.9086 30.8011H37.991C37.807 30.8011 37.623 30.9062 37.5178 31.0902C37.439 31.1954 37.439 31.4056 37.5441 31.5634Z" fill="#173366"/>
<path d="M21.4317 33.377H20.3277C19.6969 33.377 19.1186 33.6135 18.698 34.0604C18.4615 34.2969 18.146 34.4284 17.8043 34.4284H16.9632C16.6741 34.4284 16.4375 34.6649 16.4375 34.9541C16.4375 35.2432 16.6741 35.4798 16.9632 35.4798H17.8043C18.4352 35.4798 19.0135 35.2432 19.434 34.7964C19.6706 34.5598 19.986 34.4284 20.3277 34.4284H21.4317C21.7208 34.4284 21.9574 34.1918 21.9574 33.9027C21.9574 33.6135 21.7208 33.377 21.4317 33.377Z" fill="#173366"/>
<path d="M21.4317 31.2741H20.3277C19.986 31.2741 19.6706 31.1426 19.434 30.9061C18.9872 30.4592 18.4089 30.2227 17.8043 30.2227H16.9632C16.6741 30.2227 16.4375 30.4592 16.4375 30.7484C16.4375 31.0375 16.6741 31.2741 16.9632 31.2741H17.8043C18.146 31.2741 18.4615 31.4055 18.698 31.6421C19.1449 32.0889 19.7232 32.3255 20.3277 32.3255H21.4317C21.7208 32.3255 21.9574 32.0889 21.9574 31.7998C21.9574 31.5106 21.7208 31.2741 21.4317 31.2741Z" fill="#173366"/>
</g>
<circle cx="33" cy="33" r="32.5" stroke="#D9D9D9"/>
</svg>
