<svg width="66" height="66" viewBox="0 0 66 66" fill="none" xmlns="http://www.w3.org/2000/svg">
<path d="M33.9591 21.5552C34.2536 21.5552 34.4924 21.3164 34.4924 21.0219V19.9552C34.4924 19.6607 34.2536 19.4219 33.9591 19.4219C33.6646 19.4219 33.4258 19.6607 33.4258 19.9552V21.0219C33.4258 21.3164 33.6646 21.5552 33.9591 21.5552Z" fill="#173366"/>
<path d="M33.9591 22.6221C33.6646 22.6221 33.4258 22.8609 33.4258 23.1554V24.2221C33.4258 24.5166 33.6646 24.7554 33.9591 24.7554C34.2536 24.7554 34.4924 24.5166 34.4924 24.2221V23.1554C34.4924 22.8609 34.2536 22.6221 33.9591 22.6221Z" fill="#173366"/>
<path d="M31.8263 22.6218H32.893C33.1875 22.6218 33.4263 22.383 33.4263 22.0885C33.4263 21.794 33.1875 21.5552 32.893 21.5552H31.8263C31.5318 21.5552 31.293 21.794 31.293 22.0885C31.293 22.383 31.5318 22.6218 31.8263 22.6218Z" fill="#173366"/>
<path d="M35.0294 22.6218H36.0961C36.3906 22.6218 36.6294 22.383 36.6294 22.0885C36.6294 21.794 36.3906 21.5552 36.0961 21.5552H35.0294C34.7349 21.5552 34.4961 21.794 34.4961 22.0885C34.4961 22.383 34.7349 22.6218 35.0294 22.6218Z" fill="#173366"/>
<path d="M48.0381 29.8139C48.0381 26.0172 44.9496 22.9287 41.1529 22.9287C40.3057 22.9287 39.51 23.0495 38.7876 23.2875C36.7811 23.9492 35.4461 25.9359 35.466 28.2318C35.4748 29.2408 34.9707 29.5839 34.5908 29.7542C34.5315 29.7807 34.4775 29.818 34.4317 29.8638C34.4177 29.8776 34.402 29.8958 34.3899 29.9111C34.3196 29.9988 34.2787 30.107 34.2735 30.2194C34.2212 31.344 34.5531 32.429 35.1043 33.3979C34.7343 33.5112 34.0985 33.7335 33.4081 34.0847C33.3319 33.0691 33.0249 31.3422 31.8648 30.138C31.0075 29.2487 29.8481 28.8008 28.4315 28.831C27.2211 28.8528 26.2916 28.5214 25.7055 27.8539C24.6724 26.6776 24.9312 24.7848 24.9357 24.7547C24.9789 24.4638 24.7784 24.1924 24.4876 24.1487C24.1977 24.1028 23.9245 24.3052 23.8808 24.5966C23.8663 24.6938 23.5376 26.9947 24.8988 28.5515C25.7004 29.4687 26.8907 29.9187 28.4483 29.8976C29.5631 29.8771 30.4501 30.2091 31.0936 30.875C32.2793 32.1018 32.3647 34.1426 32.3645 34.708C31.8012 35.1079 31.2843 35.6074 30.922 36.2104C30.7824 35.6182 30.5815 35.0767 30.3073 34.6482C29.7339 33.7512 29.0104 33.5886 28.5052 33.5804C27.3633 33.5982 26.4121 34.2196 25.6895 34.9359C25.0889 34.3706 24.3223 33.8038 23.5276 34.0376C22.7153 34.2764 22.1891 35.209 21.7107 37.257C21.4479 38.3812 21.8131 39.0671 22.1656 39.4447C22.8877 40.2182 24.1604 40.3879 25.1401 40.3879C25.4869 40.3879 25.7953 40.3666 26.0312 40.3432C25.8867 42.0092 26.0577 44.171 27.5227 45.591C28.3883 46.43 29.7255 46.8615 31.3943 46.8615C32.0915 46.8615 32.8464 46.7863 33.6487 46.6336C35.9716 46.1924 38.432 45.1306 40.0695 43.862C44.1915 40.6695 44.2855 37.5751 44.1707 36.5075C46.4477 35.2056 48.0381 32.5144 48.0381 29.8139ZM43.0644 35.874C42.7928 35.9883 42.6655 36.3011 42.78 36.5724C42.8455 36.7276 42.9776 36.8279 43.1277 36.8708C43.1621 37.8839 42.8383 40.3688 39.4163 43.0194C36.2269 45.4888 30.3373 46.8336 28.2649 44.8256C26.1209 42.7472 27.486 38.3014 27.5001 38.2568C27.5884 37.9759 27.4327 37.6763 27.152 37.588C26.8692 37.4992 26.5717 37.6552 26.4829 37.9356C26.4628 37.9992 26.3068 38.5075 26.1753 39.2512C25.4044 39.3571 23.614 39.4346 22.9444 38.7163C22.6865 38.4395 22.6225 38.0415 22.7491 37.4999C23.2121 35.5182 23.6239 35.1215 23.8283 35.0614C23.9549 35.024 24.2785 35.071 24.9871 35.7403C24.4552 36.4384 24.1523 37.0515 24.1237 37.1107C23.9964 37.3758 24.1079 37.694 24.3729 37.8219C24.638 37.9503 24.9571 37.8383 25.0849 37.5735C25.0988 37.5443 26.5081 34.6784 28.5216 34.6475C28.6479 34.6431 29.0349 34.6394 29.4085 35.2232C30.3 36.617 30.2567 39.8792 29.726 40.9823C29.5984 41.2479 29.7101 41.5664 29.9755 41.6943C30.0503 41.73 30.1288 41.747 30.2064 41.747C30.4048 41.747 30.5955 41.6358 30.6873 41.4448C30.8932 41.0168 31.0433 40.3628 31.1181 39.6126C31.1471 39.6403 31.1684 39.6712 31.1991 39.6982C32.3696 40.725 34.6745 40.9512 36.48 40.9512C37.7199 40.9512 38.7243 40.8444 38.9631 40.8166C39.2557 40.7827 39.4655 40.5182 39.4316 40.2256C39.398 39.933 39.1329 39.7238 38.8407 39.7571C37.3771 39.9262 33.2767 40.1019 31.9024 38.8959C31.6212 38.6492 31.4876 38.373 31.4824 38.0264C31.4491 35.871 34.5084 34.634 35.6903 34.3392C35.7027 34.3362 35.7115 34.3274 35.7235 34.3235C36.1781 34.9148 36.7049 35.4442 37.258 35.8859C36.1607 36.196 35.2788 36.6742 35.2283 36.702C34.9699 36.8435 34.8749 37.1674 35.0165 37.4258C35.1135 37.6028 35.2963 37.7031 35.4848 37.7031C35.5712 37.7031 35.6591 37.682 35.7403 37.6375C35.7553 37.6294 37.27 36.808 38.6663 36.7014C38.9217 36.6819 39.1204 36.4814 39.1488 36.2266C39.1733 36.0072 39.0556 35.7982 38.866 35.696C37.1176 34.6982 35.4001 32.6502 35.3363 30.566C36.1297 30.0879 36.5417 29.2846 36.5324 28.2223C36.5168 26.3923 37.5572 24.8163 39.1212 24.3004C39.7357 24.0978 40.4191 23.9952 41.1527 23.9952C44.3609 23.9952 46.9712 26.6054 46.9712 29.8138C46.9715 32.3712 45.3283 34.9196 43.0644 35.874Z" fill="#173366"/>
<path d="M37.5646 30.8201C37.8591 30.8201 38.0979 30.5813 38.0979 30.2868C38.0979 29.9922 37.8591 29.7534 37.5646 29.7534C37.27 29.7534 37.0312 29.9922 37.0312 30.2868C37.0312 30.5813 37.27 30.8201 37.5646 30.8201Z" fill="#173366"/>
<path d="M41.2889 19.9851C41.6038 19.9851 41.859 19.7298 41.859 19.415C41.859 19.1002 41.6037 18.8447 41.2889 18.8447C40.9741 18.8447 40.7188 19.1001 40.7188 19.415C40.7188 19.7299 40.974 19.9851 41.2889 19.9851Z" fill="#173366"/>
<path d="M27.4217 22.6516C27.7366 22.6516 27.9918 22.3963 27.9918 22.0815C27.9918 21.7667 27.7365 21.5112 27.4217 21.5112C27.1069 21.5112 26.8516 21.7666 26.8516 22.0815C26.8516 22.3964 27.1068 22.6516 27.4217 22.6516Z" fill="#173366"/>
<path d="M19.8276 43.4219C18.7984 43.4219 17.9609 44.2593 17.9609 45.2885C17.9609 46.3177 18.7984 47.1552 19.8276 47.1552C20.8568 47.1552 21.6943 46.3177 21.6943 45.2885C21.6943 44.2593 20.8568 43.4219 19.8276 43.4219ZM19.8276 46.0885C19.3864 46.0885 19.0276 45.7297 19.0276 45.2885C19.0276 44.8473 19.3864 44.4885 19.8276 44.4885C20.2688 44.4885 20.6276 44.8473 20.6276 45.2885C20.6276 45.7297 20.2688 46.0885 19.8276 46.0885Z" fill="#173366"/>
<circle cx="33" cy="33" r="32.5" stroke="#D9D9D9"/>
</svg>
