<svg width="40" height="42" viewBox="0 0 40 42" fill="none" xmlns="http://www.w3.org/2000/svg">
<path d="M19.6691 38.0632C20.7063 38.0632 21.5471 37.2224 21.5471 36.1852C21.5471 35.148 20.7063 34.3071 19.6691 34.3071C18.6318 34.3071 17.791 35.148 17.791 36.1852C17.791 37.2224 18.6318 38.0632 19.6691 38.0632Z" fill="black"/>
<path d="M37.2491 20.9999C37.2491 18.9947 38.9288 16.7425 38.3415 14.9318C37.7317 13.0538 35.0306 12.227 33.8933 10.667C32.7448 9.0882 32.7859 6.2674 31.2072 5.11888C29.6434 3.98158 26.9797 4.88319 25.1054 4.27339C23.291 3.68977 21.6748 1.37402 19.6696 1.37402C17.6643 1.37402 16.0444 3.68977 14.2337 4.27713C12.3557 4.88693 9.69201 3.98532 8.13196 5.12262C6.55321 6.27114 6.59436 9.09194 5.44584 10.6707C4.30854 12.2345 1.60746 13.0613 0.997654 14.9356C0.410299 16.7463 2.09006 18.9947 2.09006 21.0037C2.09006 23.0089 0.410299 25.261 0.997654 27.0717C1.60746 28.9498 4.30854 29.7766 5.44584 31.3366C6.59436 32.9154 6.55321 35.7362 8.13196 36.8847C9.69575 38.022 12.3594 37.1204 14.2337 37.7302C16.0444 38.3175 17.6606 40.6333 19.6658 40.6333C21.6711 40.6333 23.291 38.3175 25.1017 37.7302C26.9797 37.1204 29.6434 38.022 31.2034 36.8847C32.7822 35.7362 32.741 32.9154 33.8895 31.3366C35.0268 29.7728 37.7279 28.946 38.3377 27.0717C38.9288 25.2573 37.2491 23.0089 37.2491 20.9999Z" stroke="black" stroke-width="1.5" stroke-miterlimit="10" stroke-linecap="round" stroke-linejoin="round"/>
<path d="M19.6699 9.85889V20.9999" stroke="black" stroke-width="1.5" stroke-miterlimit="10" stroke-linecap="round" stroke-linejoin="round"/>
<path d="M25.3564 21H19.6699" stroke="black" stroke-width="1.5" stroke-miterlimit="10" stroke-linecap="round" stroke-linejoin="round"/>
<path d="M19.6691 7.72288C20.7063 7.72288 21.5471 6.88205 21.5471 5.84484C21.5471 4.80762 20.7063 3.9668 19.6691 3.9668C18.6318 3.9668 17.791 4.80762 17.791 5.84484C17.791 6.88205 18.6318 7.72288 19.6691 7.72288Z" fill="black"/>
<path d="M19.6691 38.0632C20.7063 38.0632 21.5471 37.2224 21.5471 36.1852C21.5471 35.148 20.7063 34.3071 19.6691 34.3071C18.6318 34.3071 17.791 35.148 17.791 36.1852C17.791 37.2224 18.6318 38.0632 19.6691 38.0632Z" fill="#2D7FF9" fill-opacity="0.28"/>
<path d="M19.6691 7.72288C20.7063 7.72288 21.5471 6.88205 21.5471 5.84484C21.5471 4.80762 20.7063 3.9668 19.6691 3.9668C18.6318 3.9668 17.791 4.80762 17.791 5.84484C17.791 6.88205 18.6318 7.72288 19.6691 7.72288Z" fill="#2D7FF9" fill-opacity="0.28"/>
<path d="M5.2296 18.239C6.26682 18.239 7.10764 17.3982 7.10764 16.3609C7.10764 15.3237 6.26682 14.4829 5.2296 14.4829C4.19239 14.4829 3.35156 15.3237 3.35156 16.3609C3.35156 17.3982 4.19239 18.239 5.2296 18.239Z" fill="#C4DBFD"/>
<path d="M34.1105 27.5471C35.1477 27.5471 35.9885 26.7063 35.9885 25.6691C35.9885 24.6318 35.1477 23.791 34.1105 23.791C33.0732 23.791 32.2324 24.6318 32.2324 25.6691C32.2324 26.7063 33.0732 27.5471 34.1105 27.5471Z" fill="#C4DBFD"/>
<path d="M5.2589 27.633C6.29611 27.633 7.13694 26.7922 7.13694 25.755C7.13694 24.7178 6.29611 23.877 5.2589 23.877C4.22169 23.877 3.38086 24.7178 3.38086 25.755C3.38086 26.7922 4.22169 27.633 5.2589 27.633Z" fill="#C4DBFD"/>
<path d="M34.0812 18.1531C35.1184 18.1531 35.9592 17.3122 35.9592 16.275C35.9592 15.2378 35.1184 14.397 34.0812 14.397C33.044 14.397 32.2031 15.2378 32.2031 16.275C32.2031 17.3122 33.044 18.1531 34.0812 18.1531Z" fill="#C4DBFD"/>
<path d="M10.7276 35.1487C11.7649 35.1487 12.6057 34.3078 12.6057 33.2706C12.6057 32.2334 11.7649 31.3926 10.7276 31.3926C9.69044 31.3926 8.84961 32.2334 8.84961 33.2706C8.84961 34.3078 9.69044 35.1487 10.7276 35.1487Z" fill="#C4DBFD"/>
<path d="M28.6105 10.6369C29.6477 10.6369 30.4885 9.79611 30.4885 8.7589C30.4885 7.72169 29.6477 6.88086 28.6105 6.88086C27.5732 6.88086 26.7324 7.72169 26.7324 8.7589C26.7324 9.79611 27.5732 10.6369 28.6105 10.6369Z" fill="#C4DBFD"/>
<path d="M10.6573 10.6858C11.6945 10.6858 12.5354 9.84494 12.5354 8.80773C12.5354 7.77051 11.6945 6.92969 10.6573 6.92969C9.62012 6.92969 8.7793 7.77051 8.7793 8.80773C8.7793 9.84494 9.62012 10.6858 10.6573 10.6858Z" fill="#C4DBFD"/>
<path d="M28.6788 35.0964C29.716 35.0964 30.5569 34.2556 30.5569 33.2184C30.5569 32.1812 29.716 31.3403 28.6788 31.3403C27.6416 31.3403 26.8008 32.1812 26.8008 33.2184C26.8008 34.2556 27.6416 35.0964 28.6788 35.0964Z" fill="#C4DBFD"/>
</svg>
