<svg width="43" height="42" viewBox="0 0 43 42" fill="none" xmlns="http://www.w3.org/2000/svg">
<path d="M18.9605 15.4814C19.7395 15.115 20.6149 14.9067 21.5366 14.9067C24.8224 14.9067 27.4834 17.5138 27.4834 20.7301C27.4834 23.9465 24.8224 26.5535 21.5366 26.5535C18.2509 26.5535 15.5898 23.9465 15.5898 20.7301C15.5898 20.0899 15.694 19.4729 15.8907 18.8983" stroke="black" stroke-width="2" stroke-miterlimit="10" stroke-linecap="round" stroke-linejoin="round"/>
<path d="M21.5347 40.2287C32.5996 40.2287 41.5694 31.4471 41.5694 20.6143C41.5694 9.78164 32.5996 1 21.5347 1C10.4698 1 1.5 9.78164 1.5 20.6143C1.5 31.4471 10.4698 40.2287 21.5347 40.2287Z" stroke="black" stroke-width="2" stroke-miterlimit="10" stroke-linecap="round" stroke-linejoin="round"/>
<path d="M22.4783 4.66141L22.4783 4.66154C23.4454 6.18787 23.4361 6.71847 23.4344 6.81844C23.4343 6.82196 23.4342 6.82494 23.4342 6.82741C23.4342 7.87406 22.5821 8.72618 21.5355 8.72618C20.4888 8.72618 19.6367 7.87406 19.6367 6.82741C19.6367 6.82478 19.6367 6.82164 19.6366 6.81796C19.6348 6.71466 19.6259 6.18757 20.5924 4.66198C21.0129 4.00115 21.4217 3.45499 21.5327 3.30659C21.5337 3.30533 21.5346 3.30409 21.5355 3.30288C21.5369 3.30473 21.5383 3.30664 21.5398 3.30863C21.6533 3.45962 22.0596 4.00013 22.4783 4.66141Z" fill="#C4DBFD" stroke="#C4DBFD"/>
<path d="M14.9638 8.34026L14.9638 8.34025C14.9625 8.33842 14.961 8.33621 14.9592 8.33362C14.9046 8.2546 14.6065 7.82312 12.9185 7.15299L12.9184 7.15295C12.5074 6.98965 12.1176 6.85311 11.8265 6.75638C11.5709 6.67146 11.4034 6.6212 11.3634 6.60921C11.3577 6.60748 11.3545 6.60655 11.3542 6.60642C11.3516 6.76968 11.3412 7.466 11.3922 8.26451L14.9638 8.34026ZM14.9638 8.34026L14.9662 8.34354M14.9638 8.34026L14.9662 8.34354M14.9662 8.34354C15.582 9.19104 15.3945 10.3789 14.5445 11.0003C13.6964 11.6128 12.5093 11.4239 11.8923 10.5796M14.9662 8.34354L11.8923 10.5796M11.8923 10.5796C11.8911 10.5779 11.8898 10.5762 11.8886 10.5744C11.8498 10.5207 11.7648 10.4027 11.6707 10.0989C11.5673 9.7653 11.4523 9.20336 11.3922 8.2646L11.8923 10.5796ZM11.3543 6.60643C11.3542 6.60642 11.3542 6.60641 11.3542 6.60641L11.3382 6.60212L11.3462 6.60441L11.3542 6.60641L11.3543 6.60643Z" fill="#C4DBFD" stroke="#C4DBFD"/>
<path d="M4.91226 15.3203L4.91285 15.3201C4.91265 15.3202 4.91246 15.3203 4.91226 15.3203ZM4.91226 15.3203C4.91204 15.3204 4.91183 15.3205 4.91161 15.3206L4.91161 15.3206L4.91226 15.3203ZM9.00697 14.5488L9.00757 14.549C10.0033 14.8727 10.5519 15.9447 10.2257 16.9415L10.2254 16.9424C9.90214 17.9367 8.82696 18.4838 7.83202 18.1603C7.82959 18.1595 7.82671 18.1586 7.82337 18.1576C7.72439 18.1272 7.21787 17.972 6.06899 16.5818L6.069 16.5818L6.06751 16.58C5.55928 15.9708 5.16047 15.402 5.06575 15.266C5.08477 15.2593 5.12511 15.2452 5.18559 15.2247C5.27029 15.1959 5.39009 15.1561 5.53611 15.1097C5.82863 15.0167 6.22382 14.8982 6.65143 14.7894L6.65201 14.7893C8.40464 14.3412 8.90408 14.5134 8.99865 14.546C9.00189 14.5471 9.00465 14.548 9.00697 14.5488Z" fill="#C4DBFD" stroke="#C4DBFD"/>
<path d="M9.16689 27.1551C8.97792 27.2168 8.4033 27.4019 6.53288 26.9237C5.65359 26.7 4.91313 26.4378 4.88228 26.4262L4.75116 26.3799C4.51591 26.2989 4.42721 26.0213 4.56605 25.8169L4.64318 25.7012M9.16689 27.1551L5.07055 25.9626M9.16689 27.1551C10.4241 26.7463 11.1144 25.3888 10.7057 24.1316M9.16689 27.1551L10.7057 24.1316M4.64318 25.7012L4.94873 25.9194L4.91757 25.9084L4.91758 25.9084L4.91392 25.9072C4.91514 25.9076 4.91636 25.908 4.91756 25.9085C4.99601 25.9381 5.02038 26.0327 4.98201 26.0942C4.98158 26.0949 4.98117 26.0956 4.98073 26.0962M4.64318 25.7012L4.99509 25.9358L4.64318 25.7012ZM4.98073 26.0962C4.98038 26.0968 4.98001 26.0973 4.97965 26.0978L4.98073 26.0962ZM4.98073 26.0962L4.98207 26.0942L5.01901 26.0388L5.03853 26.0095L5.056 25.9833C5.05713 25.9817 5.0584 25.9799 5.0598 25.9779C5.06278 25.9736 5.06637 25.9685 5.07055 25.9626M5.07055 25.9626C5.08961 25.9693 5.12992 25.9834 5.19031 26.0039C5.27501 26.0327 5.39481 26.0725 5.54083 26.1189C5.83335 26.2118 6.22854 26.3304 6.65615 26.4391L6.65673 26.4393C8.40936 26.8874 8.9088 26.7152 9.00337 26.6826C9.00661 26.6815 9.00937 26.6805 9.01169 26.6798L9.01228 26.6796C10.0066 26.3563 10.5537 25.2811 10.2302 24.2862C9.90686 23.2919 8.83168 22.7448 7.83674 23.0683C7.83431 23.0691 7.83143 23.07 7.82809 23.071C7.72911 23.1013 7.22259 23.2566 6.07371 24.6468L6.07328 24.6473C5.56811 25.2569 5.16572 25.8268 5.07055 25.9626ZM10.7057 24.1316C10.2969 22.8743 8.93936 22.184 7.68213 22.5928L10.7057 24.1316Z" fill="#C4DBFD" stroke="#C4DBFD"/>
<path d="M11.3542 34.6219C11.3543 34.6219 11.3571 34.621 11.3625 34.6194C11.401 34.6079 11.5703 34.5574 11.8282 34.4719C12.1196 34.3752 12.509 34.2388 12.9177 34.0757L12.9182 34.0755C14.5928 33.4092 14.8998 32.978 14.9624 32.8901C14.964 32.8879 14.9654 32.8859 14.9667 32.8841L14.9667 32.8841C15.582 32.0403 15.394 30.8491 14.5445 30.2319L14.5438 30.2314C13.7003 29.6162 12.5097 29.8038 11.8923 30.6488C11.8911 30.6504 11.8898 30.6521 11.8886 30.6539C11.8498 30.7076 11.7648 30.8256 11.6707 31.1294C11.5673 31.463 11.4523 32.025 11.3922 32.9637L11.3542 34.6219ZM11.3542 34.6219C11.3516 34.4592 11.3413 33.7608 11.3922 32.9638L11.3542 34.6219ZM11.3542 34.6219C11.3542 34.6219 11.3542 34.6219 11.3543 34.6219L11.3542 34.6219Z" fill="#C4DBFD" stroke="#C4DBFD"/>
<path d="M20.5927 36.5677L20.5926 36.5676C19.6256 35.0412 19.6349 34.5106 19.6366 34.4107C19.6367 34.4072 19.6367 34.4042 19.6367 34.4017C19.6367 33.355 20.4888 32.5029 21.5355 32.5029C22.5821 32.5029 23.4342 33.355 23.4342 34.4017C23.4342 34.4043 23.4343 34.4075 23.4344 34.4111C23.4361 34.5145 23.4451 35.0416 22.4786 36.5672C22.0581 37.228 21.6493 37.7741 21.5382 37.9225C21.5373 37.9238 21.5363 37.925 21.5354 37.9262C21.5341 37.9244 21.5326 37.9225 21.5311 37.9205C21.4177 37.7695 21.0114 37.229 20.5927 36.5677Z" fill="#C4DBFD" stroke="#C4DBFD"/>
<path d="M28.1031 32.8885L28.1032 32.8884L28.1008 32.8852C27.4838 32.0361 27.6742 30.8417 28.5214 30.2291C29.3697 29.6158 30.5574 29.8044 31.1747 30.6491C31.1759 30.6508 31.1771 30.6525 31.1784 30.6543C31.2171 30.708 31.3021 30.826 31.3963 31.1298C31.4996 31.4634 31.6147 32.0254 31.6747 32.9642C31.7257 33.7627 31.7153 34.459 31.7127 34.6223C31.7124 34.6221 31.7093 34.6212 31.7035 34.6195C31.6635 34.6075 31.496 34.5572 31.2405 34.4723C30.9493 34.3756 30.5596 34.239 30.1485 34.0758L30.1484 34.0757C28.4604 33.4056 28.1624 32.9741 28.1078 32.8951C28.106 32.8925 28.1045 32.8903 28.1031 32.8885ZM31.7127 34.6223C31.7127 34.6223 31.7127 34.6223 31.7127 34.6223L31.7127 34.6223Z" fill="#C4DBFD" stroke="#C4DBFD"/>
<path d="M34.0635 26.6798L34.0625 26.6795C33.0642 26.3558 32.5183 25.2848 32.8447 24.2871L32.845 24.2862C33.1683 23.2919 34.2435 22.7448 35.2384 23.0683C35.2409 23.0691 35.2437 23.07 35.2471 23.071C35.3461 23.1013 35.8526 23.2566 37.0015 24.6468L37.0015 24.6468L37.0029 24.6485C37.5112 25.2578 37.91 25.8266 38.0047 25.9625C37.9857 25.9692 37.9454 25.9834 37.8849 26.0039C37.8002 26.0327 37.6804 26.0725 37.5344 26.1189C37.2418 26.2118 36.8466 26.3304 36.419 26.4391L36.4185 26.4393C34.6658 26.8874 34.1664 26.7152 34.0718 26.6826C34.0686 26.6815 34.0658 26.6805 34.0635 26.6798Z" fill="#C4DBFD" stroke="#C4DBFD"/>
<path d="M36.9962 16.5813L36.9957 16.5818C35.8469 17.972 35.3403 18.1272 35.2414 18.1576C35.238 18.1586 35.2351 18.1595 35.2327 18.1603C34.2378 18.4838 33.1626 17.9367 32.8393 16.9424C32.5158 15.9474 33.0629 14.8723 34.0572 14.549L34.0578 14.5488C34.0601 14.548 34.0628 14.5471 34.0661 14.546C34.1607 14.5134 34.6601 14.3412 36.4127 14.7893L36.4133 14.7894C36.8409 14.8982 37.2361 15.0167 37.5286 15.1097C37.6746 15.1561 37.7944 15.1959 37.8791 15.2247C37.9395 15.2452 37.9798 15.2593 37.9989 15.266C37.9037 15.4017 37.5013 15.9717 36.9962 16.5813Z" fill="#C4DBFD" stroke="#C4DBFD"/>
<path d="M31.7087 6.60252L31.7089 6.6025L31.7087 6.60252ZM28.0964 8.34033L28.0964 8.34032L31.6708 8.2606C31.6107 9.19942 31.4957 9.76138 31.3924 10.095C31.2982 10.3988 31.2132 10.5168 31.1745 10.5705C31.1725 10.5732 31.1707 10.5757 31.169 10.5781L31.5759 10.8687L31.1707 10.5757C30.558 11.4231 29.368 11.6129 28.5194 10.9932L28.5185 10.9926C27.669 10.3753 27.481 9.18416 28.0964 8.34033Z" fill="#C4DBFD" stroke="#C4DBFD"/>
<path d="M20.507 12.9131L18.0234 15.5587L21.421 17.4368" stroke="black" stroke-width="2" stroke-miterlimit="10" stroke-linecap="round" stroke-linejoin="round"/>
</svg>
