<svg width="66" height="66" viewBox="0 0 66 66" fill="none" xmlns="http://www.w3.org/2000/svg">
<g clip-path="url(#clip0_2631_564)">
<path d="M40.6283 22.1058C40.6283 20.3077 39.1707 18.8501 37.3726 18.8501C35.5745 18.8501 34.1168 20.3077 34.1168 22.1058C34.1168 22.1058 32.2977 22.4137 32.5002 24.3981C32.5002 24.3981 31.9333 21.9278 30.3134 21.7658C28.6936 21.6038 26.8308 23.4667 26.8308 23.4667C26.8308 23.4667 26.4258 22.3328 25.8183 22.6567C25.2109 22.9807 24.7249 25.856 27.8026 26.1394C27.8026 26.1394 27.1142 30.918 32.4597 30.594C37.8052 30.27 38.1589 27.2029 38.3466 25.2133C39.6688 24.7993 40.6283 23.5647 40.6283 22.1058Z" stroke="#173366" stroke-width="1.17188" stroke-miterlimit="10" stroke-linecap="round" stroke-linejoin="round"/>
<path d="M35.5526 24.8056C34.6866 24.2205 34.1172 23.2297 34.1172 22.1058C34.1172 20.3077 35.5748 18.8501 37.3729 18.8501" stroke="#173366" stroke-width="1.17188" stroke-miterlimit="10" stroke-linecap="round" stroke-linejoin="round"/>
<path d="M32.5 24.3979C32.5 24.3979 32.7107 25.6549 33.4408 26.1417" stroke="#173366" stroke-width="1.17188" stroke-miterlimit="10" stroke-linecap="round" stroke-linejoin="round"/>
<path d="M28.5805 24.5435C28.5805 24.5435 27.9269 25.0546 27.8008 26.1397" stroke="#173366" stroke-width="1.17188" stroke-miterlimit="10" stroke-linecap="round" stroke-linejoin="round"/>
<path d="M24.1847 28.2095L30.4277 34.2774C31.8596 35.669 34.1387 35.669 35.5705 34.2774L43.5848 26.4878C46.0514 24.0904 46.0226 20.1207 43.5216 17.7593C41.532 15.8807 38.5284 15.5733 36.1995 17.0099L32.9991 18.9838L29.7988 17.0098C27.4698 15.5732 24.4663 15.8807 22.4766 17.7593C19.9756 20.1207 19.9469 24.0903 22.4134 26.4877" stroke="#173366" stroke-width="1.17188" stroke-miterlimit="10" stroke-linecap="round" stroke-linejoin="round"/>
<path d="M27.2716 16.1445C27.2716 16.1445 25.5896 18.0186 26.2793 19.2767C27.1232 20.816 29.7311 18.5667 30.3138 21.7656" stroke="#173366" stroke-width="1.17188" stroke-miterlimit="10" stroke-linecap="round" stroke-linejoin="round"/>
<path d="M25.1327 49.8896L25.1405 45.4508L18.9973 40.3306C18.5747 39.9784 18.2491 39.5249 18.0516 39.0116L15.6202 32.7031C15.5576 32.54 15.5273 32.3706 15.5273 32.2039C15.5273 31.7567 15.7432 31.325 16.1278 31.0592C16.8035 30.5938 17.733 30.811 18.1317 31.5289L20.895 36.5049L24.7671 37.907" stroke="#173366" stroke-width="1.17188" stroke-miterlimit="10" stroke-linecap="round" stroke-linejoin="round"/>
<path d="M25.4511 39.7802C25.1818 39.3227 24.9832 38.8272 24.8619 38.3104L24.1595 35.3173C23.993 34.6075 24.4454 33.9002 25.1597 33.754C25.7277 33.6376 26.3038 33.9133 26.5695 34.4286L27.6025 36.4321L30.5274 39.1424C31.4995 40.0433 32.1138 41.2647 32.2573 42.5823L32.4937 44.7528L32.9996 49.8896" stroke="#173366" stroke-width="1.17188" stroke-miterlimit="10" stroke-linecap="round" stroke-linejoin="round"/>
<path d="M43.6686 37.025L45.1048 36.5049L47.8681 31.5289C48.2668 30.811 49.1963 30.5938 49.872 31.0592C50.2566 31.325 50.4725 31.7567 50.4725 32.2039C50.4725 32.3706 50.4423 32.54 50.3797 32.7031L47.9483 39.0116C47.7507 39.5249 47.4252 39.9784 47.0026 40.3306L40.8594 45.4508L40.8671 49.8896" stroke="#173366" stroke-width="1.17188" stroke-miterlimit="10" stroke-linecap="round" stroke-linejoin="round"/>
<path d="M40.5485 39.7802C40.8178 39.3227 41.0164 38.8272 41.1377 38.3104L41.84 35.3173C42.0066 34.6075 41.5541 33.9002 40.8399 33.754C40.2719 33.6376 39.6958 33.9133 39.4301 34.4286L38.397 36.4321L35.4722 39.1424C34.5 40.0433 33.8858 41.2647 33.7423 42.5823L33.5059 44.7528L33 49.8896" stroke="#173366" stroke-width="1.17188" stroke-miterlimit="10" stroke-linecap="round" stroke-linejoin="round"/>
</g>
<circle cx="33" cy="33" r="32.5" stroke="#D9D9D9"/>
<defs>
<clipPath id="clip0_2631_564">
<rect width="36" height="36" fill="white" transform="translate(15 15)"/>
</clipPath>
</defs>
</svg>
