<svg width="61" height="60" viewBox="0 0 61 60" fill="none" xmlns="http://www.w3.org/2000/svg">
<circle cx="30.5" cy="30" r="30" fill="white" fill-opacity="0.1"/>
<path d="M28.3692 31.0065C27.7164 29.2605 27.5631 26.6691 29.1636 25.3635C29.9304 24.7383 30.7444 23.9754 30.7404 22.9136C30.7365 21.3643 29.195 20.8098 28.3378 19.7835C27.6771 18.9891 27.3193 17.8724 27.5474 16.8303C27.6614 16.3033 27.9563 15.8944 28.2159 15.4343C28.3928 15.1236 28.8214 14.5377 28.7428 14.1523" stroke="black" stroke-width="1.5" stroke-miterlimit="10" stroke-linecap="round" stroke-linejoin="round"/>
<path d="M39.0438 25.2596L39.0437 25.2595C38.4276 24.5812 37.5527 24.2395 36.6934 24.1806C35.8201 24.1207 35.0518 24.3571 34.6413 24.7195C34.342 24.9858 34.1723 25.182 34.0652 25.333C33.9604 25.4809 33.9057 25.5984 33.8408 25.7396L33.8401 25.7412C33.7775 25.8805 33.7006 26.0517 33.5468 26.2508C33.3963 26.4458 33.1864 26.6504 32.8696 26.9006L32.8686 26.9013C32.4918 27.1974 32.2814 27.6312 32.2811 28.0919C32.2828 28.486 32.4649 28.9151 32.7714 29.2975C33.0781 29.6802 33.469 29.9648 33.8065 30.0894L33.8088 30.0903C34.1744 30.2274 34.387 30.6288 34.2691 31.0181L34.2687 31.0192C34.1457 31.422 33.7013 31.6689 33.2793 31.5058C32.1284 31.0841 31.1383 30.2148 30.5743 29.078L30.5742 29.0779C30.469 28.8657 30.1996 28.7863 29.9934 28.9126L29.9931 28.9127C29.8295 29.0127 29.7586 29.2049 29.8102 29.3766L29.8114 29.3806L29.8113 29.3806C30.008 30.0563 30.348 30.694 30.8181 31.2503L31.4302 31.9745L30.4868 32.0704C30.2929 32.0902 30.1276 32.1297 30.0046 32.1663L29.6769 32.2638L29.4672 31.9937C29.2746 31.7456 29.1002 31.4828 28.9374 31.2376L28.9333 31.2314C28.7657 30.979 28.6098 30.7446 28.4416 30.5276C28.1089 30.0985 27.7575 29.7775 27.2767 29.6115L27.2688 29.6088L27.261 29.6058C26.8469 29.4472 26.1839 29.4326 25.1711 29.6619L24.7005 29.7685L24.5773 29.302C24.4894 28.9691 24.1293 28.7874 23.8063 28.9177C23.5493 29.0234 23.4047 29.294 23.4585 29.5652L23.5209 29.8617L23.5217 29.8655L23.5217 29.8655C23.6055 30.2797 23.9607 30.5822 24.3866 30.5975L24.3924 30.5977L24.3924 30.5978C24.4685 30.6014 24.6755 30.6071 24.894 30.6131L24.9083 30.6135C25.1142 30.6192 25.3274 30.625 25.4169 30.6291C26.0174 30.6543 26.5329 31.0612 26.6882 31.6449L39.0438 25.2596ZM39.0438 25.2596C40.9356 27.342 39.9075 30.6431 36.8456 31.5497L36.6745 31.6004L36.5741 31.748C35.5588 33.2411 34.1654 34.3306 32.6487 34.8386L32.6486 34.8386C31.1814 35.3301 29.7554 35.2258 28.7179 34.6212L28.7175 34.621M39.0438 25.2596L28.7175 34.621M28.7175 34.621C27.6699 34.0115 27.0227 32.9012 26.6882 31.645L28.7175 34.621Z" fill="#2B37AE" stroke="black"/>
<path d="M30.4275 46.0991C39.5078 46.0991 46.8688 38.8913 46.8688 30C46.8688 21.1087 39.5078 13.9009 30.4275 13.9009C21.3473 13.9009 13.9863 21.1087 13.9863 30C13.9863 38.8913 21.3473 46.0991 30.4275 46.0991Z" stroke="black" stroke-width="1.5" stroke-miterlimit="10" stroke-linecap="round" stroke-linejoin="round"/>
<path d="M30.4286 50C41.7111 50 50.8573 41.0457 50.8573 30C50.8573 18.9543 41.7111 10 30.4286 10C19.1462 10 10 18.9543 10 30C10 41.0457 19.1462 50 30.4286 50Z" stroke="black" stroke-width="1.5" stroke-miterlimit="10" stroke-linecap="round" stroke-linejoin="round"/>
</svg>
