<svg width="42" height="42" viewBox="0 0 42 42" fill="none" xmlns="http://www.w3.org/2000/svg">
<path d="M12.5601 28.8555C11.1535 30.0447 12.2894 31.3864 10.8829 32.5757C9.45352 33.7878 7.00641 32.2479 6.31268 34.6111C6.14496 35.1791 6.1259 35.7851 5.93532 36.3455C5.93532 36.3455 5.81716 39.0975 2.38281 39.9323" stroke="black" stroke-width="2" stroke-miterlimit="10" stroke-linecap="round" stroke-linejoin="round"/>
<path d="M38.91 20.9962C38.91 18.9531 40.6215 16.6585 40.023 14.8136C39.4017 12.9001 36.6497 12.0577 35.4909 10.4683C34.3207 8.85973 34.3626 5.98571 32.7541 4.81551C31.1608 3.65676 28.4469 4.57538 26.5372 3.95407C24.6885 3.35944 23.0419 1 20.9988 1C18.9557 1 17.3053 3.35944 15.4604 3.95788C13.5469 4.57919 10.833 3.66057 9.24353 4.81933C7.63499 5.98952 7.67692 8.86354 6.50673 10.4721C5.34797 12.0654 2.59592 12.9078 1.97461 14.8174C1.37618 16.6623 3.08763 18.9531 3.08763 21C3.08763 23.0431 1.37618 25.3377 1.97461 27.1826C2.59592 29.0961 5.34797 29.9384 6.50673 31.5279C7.67692 33.1365 7.63499 36.0105 9.24353 37.1807C10.8368 38.3394 13.5508 37.4208 15.4604 38.0421C17.3053 38.6406 18.9519 41 20.995 41C23.0381 41 24.6885 38.6406 26.5334 38.0421C28.4469 37.4208 31.1608 38.3394 32.7503 37.1807C34.3588 36.0105 34.3169 33.1365 35.4871 31.5279C36.6459 29.9346 39.3979 29.0922 40.0192 27.1826C40.6215 25.3339 38.91 23.0431 38.91 20.9962Z" stroke="black" stroke-width="2" stroke-miterlimit="10" stroke-linecap="round" stroke-linejoin="round"/>
<path d="M14.5992 20.543C14.5992 21.2749 13.9894 22.0906 14.2028 22.75C14.4239 23.4323 15.4073 23.7334 15.8228 24.3014C16.2421 24.8769 16.2268 25.9023 16.8024 26.3216C17.3703 26.737 18.3423 26.4054 19.0246 26.6303C19.684 26.8438 20.271 27.6862 21.0029 27.6862C21.7347 27.6862 22.3217 26.8438 22.9812 26.6303C23.6635 26.4092 24.6354 26.737 25.2034 26.3216C25.7789 25.9023 25.7637 24.8769 26.1792 24.3014C26.5947 23.7334 27.5781 23.4323 27.7991 22.75C28.0126 22.0906 27.4027 21.2711 27.4027 20.543C27.4027 19.8112 28.0126 18.9955 27.7991 18.3361C27.5781 17.6538 26.5947 17.3526 26.1792 16.7847C25.7599 16.2091 25.7751 15.1838 25.1996 14.7645C24.6316 14.349 23.6596 14.6806 22.9773 14.4557C22.3179 14.2423 21.7309 13.3999 20.9991 13.3999C20.2672 13.3999 19.6802 14.2423 19.0208 14.4557C18.3385 14.6768 17.3665 14.349 16.7986 14.7645C16.223 15.1838 16.2383 16.2091 15.8228 16.7847C15.4073 17.3526 14.4239 17.6538 14.2028 18.3361C13.9855 18.9955 14.5992 19.815 14.5992 20.543Z" stroke="black" stroke-width="2" stroke-miterlimit="10" stroke-linecap="round" stroke-linejoin="round"/>
<path d="M12.8494 28.6486L12.8495 28.6486L12.8443 28.645C11.6568 27.8348 11.4068 25.9988 12.1618 24.5166L12.1621 24.5161C12.8219 23.2174 14.0277 22.1582 15.3574 21.4768C15.3623 21.4746 15.369 21.4714 15.3762 21.4678C15.3857 21.4631 15.4011 21.4551 15.42 21.4435C16.5279 20.893 17.3833 20.9649 17.9093 21.3289C18.439 21.6954 18.8088 22.4789 18.6755 23.7236C18.6749 23.7269 18.6744 23.7306 18.6738 23.7345C18.6723 23.7449 18.6709 23.7569 18.6698 23.7703C18.5014 25.2549 17.9347 26.7541 16.9539 27.8291L16.9534 27.8297C15.8334 29.061 14.0281 29.4746 12.8494 28.6486Z" fill="#C4DBFD" stroke="black"/>
</svg>
