<svg width="44" height="42" viewBox="0 0 44 42" fill="none" xmlns="http://www.w3.org/2000/svg">
<path d="M15.618 21.967C15.5285 21.9629 15.3152 21.957 15.1094 21.9514L15.0952 21.951C14.8766 21.945 14.6696 21.9393 14.5936 21.9356L14.5936 21.9356L14.5877 21.9354C14.1619 21.9201 13.8067 21.6176 13.7228 21.2033L13.7229 21.2033L13.7221 21.1996L13.6597 20.9031C13.6059 20.6319 13.7505 20.3614 14.0074 20.2556C14.3304 20.1253 14.6905 20.307 14.7785 20.6399L14.9017 21.1064L15.3723 20.9998C16.3851 20.7705 17.0481 20.7851 17.4621 20.9437L17.4699 20.9467L17.4778 20.9494C17.9587 21.1154 18.3101 21.4364 18.6428 21.8655C18.811 22.0825 18.9668 22.3169 19.1344 22.5693L19.1385 22.5755C19.3013 22.8207 19.4758 23.0835 19.6684 23.3316L19.878 23.6016L20.2058 23.5042C20.3288 23.4676 20.4941 23.4281 20.688 23.4083L21.6314 23.3124L21.0193 22.5881C20.5491 22.0318 20.2091 21.3942 20.0125 20.7185L20.0125 20.7185L20.0113 20.7145C19.9598 20.5428 20.0307 20.3506 20.1943 20.2506L20.1946 20.2505C20.4008 20.1242 20.6702 20.2036 20.7754 20.4158L20.7754 20.4159C21.3395 21.5527 22.3296 22.422 23.4804 22.8437C23.9025 23.0068 24.3468 22.7598 24.4699 22.357L24.4702 22.3559C24.5882 21.9667 24.3756 21.5653 24.01 21.4282L24.0077 21.4273C23.6702 21.3027 23.2793 21.018 22.9726 20.6354C22.6661 20.253 22.484 19.8239 22.4823 19.4297C22.4826 18.9691 22.693 18.5353 23.0698 18.2392L23.0707 18.2385C23.3876 17.9883 23.5975 17.7837 23.748 17.5887C23.9018 17.3895 23.9787 17.2184 24.0412 17.0791L24.0419 17.0776C24.1068 16.9364 24.1615 16.8188 24.2664 16.6709C24.3735 16.5199 24.5432 16.3237 24.8424 16.0574C25.253 15.695 26.0213 15.4586 26.8945 15.5185C27.7539 15.5774 28.6288 15.9191 29.2449 16.5974L29.2452 16.5978L16.8894 22.9829L16.4062 23.1114L16.8894 22.9828C16.7341 22.3991 16.2186 21.9922 15.618 21.967ZM15.618 21.967C15.6185 21.967 15.6189 21.9671 15.6194 21.9671L15.5961 22.4665L15.6165 21.967C15.617 21.967 15.6175 21.967 15.618 21.967Z" fill="#C4DBFD" stroke="black"/>
<path d="M21.9295 37.0991C31.0097 37.0991 38.3707 29.8913 38.3707 21C38.3707 12.1087 31.0097 4.90088 21.9295 4.90088C12.8493 4.90088 5.48828 12.1087 5.48828 21C5.48828 29.8913 12.8493 37.0991 21.9295 37.0991Z" stroke="black" stroke-width="2" stroke-miterlimit="10" stroke-linecap="round" stroke-linejoin="round"/>
<path d="M21.9297 4.90088V7.70859" stroke="black" stroke-width="2" stroke-miterlimit="10" stroke-linecap="round" stroke-linejoin="round"/>
<path d="M13.8789 7.06006L15.2828 9.49026" stroke="black" stroke-width="2" stroke-miterlimit="10" stroke-linecap="round" stroke-linejoin="round"/>
<path d="M7.98828 12.9507L10.4185 14.3545" stroke="black" stroke-width="2" stroke-miterlimit="10" stroke-linecap="round" stroke-linejoin="round"/>
<path d="M5.82812 21H8.63583" stroke="black" stroke-width="2" stroke-miterlimit="10" stroke-linecap="round" stroke-linejoin="round"/>
<path d="M7.98828 29.0494L10.4185 27.6455" stroke="black" stroke-width="2" stroke-miterlimit="10" stroke-linecap="round" stroke-linejoin="round"/>
<path d="M13.8789 34.94L15.2828 32.5098" stroke="black" stroke-width="2" stroke-miterlimit="10" stroke-linecap="round" stroke-linejoin="round"/>
<path d="M21.9297 37.0992V34.2915" stroke="black" stroke-width="2" stroke-miterlimit="10" stroke-linecap="round" stroke-linejoin="round"/>
<path d="M29.9781 34.94L28.5742 32.5098" stroke="black" stroke-width="2" stroke-miterlimit="10" stroke-linecap="round" stroke-linejoin="round"/>
<path d="M35.8677 29.0494L33.4375 27.6455" stroke="black" stroke-width="2" stroke-miterlimit="10" stroke-linecap="round" stroke-linejoin="round"/>
<path d="M38.0265 21H35.2148" stroke="black" stroke-width="2" stroke-miterlimit="10" stroke-linecap="round" stroke-linejoin="round"/>
<path d="M35.8677 12.9507L33.4375 14.3545" stroke="black" stroke-width="2" stroke-miterlimit="10" stroke-linecap="round" stroke-linejoin="round"/>
<path d="M29.9781 7.06006L28.5742 9.49026" stroke="black" stroke-width="2" stroke-miterlimit="10" stroke-linecap="round" stroke-linejoin="round"/>
<path d="M21.9286 41C33.211 41 42.3573 32.0457 42.3573 21C42.3573 9.9543 33.211 1 21.9286 1C10.6462 1 1.5 9.9543 1.5 21C1.5 32.0457 10.6462 41 21.9286 41Z" stroke="black" stroke-width="2" stroke-miterlimit="10" stroke-linecap="round" stroke-linejoin="round"/>
</svg>
