<svg width="30" height="30" viewBox="0 0 30 30" fill="none" xmlns="http://www.w3.org/2000/svg">
<path d="M5.09586 17.2254H8.00486C8.36198 17.2254 8.71421 17.3056 9.03361 17.461L11.5139 18.6611C11.8333 18.8153 12.1856 18.8955 12.5439 18.8955H13.8095C15.0338 18.8955 16.0273 19.8563 16.0273 21.0418C16.0273 21.0903 15.9946 21.1316 15.9472 21.145L12.8609 21.9989C12.3071 22.1518 11.7165 22.0983 11.1993 21.8483L8.5478 20.5656M9.95431 9.74223C9.95431 7.20123 12.2572 4.68941 13.8727 3.24038C14.2981 2.8595 14.849 2.6489 15.4201 2.6489C15.9911 2.6489 16.5421 2.8595 16.9675 3.24038C18.5829 4.69062 20.8858 7.2 20.8858 9.74339C20.8858 12.2334 18.8161 14.7962 15.4201 14.7962C12.024 14.7962 9.95431 12.2334 9.95431 9.74223Z" stroke="black" stroke-width="2" stroke-linecap="round" stroke-linejoin="round"/>
<path d="M16.0274 20.262L21.6061 18.5481C22.0918 18.3991 22.6121 18.4073 23.0928 18.5716C23.5736 18.7358 23.9902 19.0477 24.2831 19.4628C24.7313 20.0822 24.5491 20.9713 23.8957 21.3478L14.7678 26.6156C14.4825 26.7808 14.1664 26.8861 13.8389 26.9251C13.5115 26.9641 13.1796 26.9361 12.8633 26.8427L5.0959 24.5374" stroke="black" stroke-width="2" stroke-linecap="round" stroke-linejoin="round"/>
</svg>
