<svg width="30" height="30" viewBox="0 0 30 30" fill="none" xmlns="http://www.w3.org/2000/svg">
<mask id="mask0_2631_98" style="mask-type:alpha" maskUnits="userSpaceOnUse" x="0" y="0" width="30" height="30">
<rect width="30" height="30" fill="#D9D9D9"/>
</mask>
<g mask="url(#mask0_2631_98)">
<path d="M20.0169 18.4195L22.8347 23.2957L20.4275 23.0403C20.228 23.0219 20.0398 23.1313 19.962 23.3142L18.9814 25.5312L15.7303 19.8913C15.9355 19.8286 16.1461 19.7372 16.367 19.6107C16.9521 19.2707 17.618 19.0275 18.4084 19.0153C19.0723 19.0046 19.5938 18.812 20.0169 18.4195ZM10.1215 18.4171C10.5452 18.812 11.0666 19.0046 11.733 19.0153C12.5234 19.0275 13.1752 19.2936 13.7754 19.6107C13.9957 19.7245 14.2088 19.8179 14.4155 19.8816L11.1624 25.5259L10.1799 23.3142C10.0982 23.1313 9.9109 23.0223 9.7105 23.0403L7.30863 23.2957L10.1215 18.4171ZM17.9906 4.54136C18.6064 5.17807 19.2343 5.62848 20.1337 5.91692C20.7339 6.1071 21.1187 6.42959 21.2432 7.19665C21.3876 8.07121 21.6994 8.78039 22.2948 9.50999C22.6917 9.99835 22.8498 10.4672 22.5351 11.1847C22.1805 11.9955 22.0608 12.7626 22.1654 13.6994C22.2359 14.3254 22.1124 14.7997 21.4587 15.2355C20.7213 15.7243 20.2047 16.307 19.781 17.1509C19.5028 17.7157 19.1351 18.0523 18.352 18.0683C17.4687 18.0829 16.7206 18.3062 15.9029 18.775C15.3786 19.0786 14.8771 19.2031 14.2384 18.775C13.4529 18.2502 12.6698 18.0829 11.7884 18.0683C11.0029 18.0523 10.6381 17.7157 10.3569 17.1509C9.93716 16.307 9.42011 15.7248 8.68321 15.2355C8.02948 14.7997 7.90253 14.3254 7.97354 13.6994C8.08007 12.7626 7.96138 11.995 7.60387 11.1847C7.28966 10.4672 7.44628 9.99835 7.84416 9.50999C8.44 8.78039 8.75325 8.07121 8.89771 7.19665C9.02223 6.42959 9.40698 6.1071 10.0072 5.91692C10.9071 5.62848 11.5579 5.19752 12.1503 4.54136C12.6727 3.96205 13.164 3.92849 13.7822 4.06031C14.9831 4.3215 15.5153 4.22471 16.8013 4.00437C17.3062 3.91779 17.7245 4.26557 17.9906 4.54136ZM13.2681 3.00091C12.5822 2.98097 12.0015 3.28789 11.4698 3.8779C10.9426 4.46013 10.3224 4.7977 9.68666 5.02096C8.66278 5.38284 8.13065 5.99377 7.96625 7.00695C7.84173 7.78471 7.49978 8.4005 7.08731 8.93214C6.42337 9.7853 6.30663 10.5918 6.71667 11.5291C7.03381 12.2504 7.08731 12.9469 7.02651 13.6211C6.92972 14.7029 7.26971 15.4403 8.12579 16.0079C8.78438 16.4437 9.2022 17.006 9.51934 17.6038L6.06148 23.6231C5.87616 23.9475 6.13444 24.3473 6.50703 24.3099L9.47605 23.9932L10.6901 26.7263C10.8438 27.0663 11.3151 27.0887 11.5053 26.7701L15.0697 20.5859L18.6341 26.7701C18.8243 27.0945 19.3029 27.0717 19.4551 26.7263L20.6634 23.9932L23.6348 24.3099C24.0074 24.3473 24.2657 23.9475 24.0784 23.6231L20.623 17.6038C20.9392 17.006 21.3575 16.4437 22.0156 16.0079C22.8726 15.4403 23.2117 14.7029 23.1158 13.6211C23.055 12.9469 23.1056 12.2509 23.4218 11.5291C23.8352 10.5918 23.7161 9.7853 23.0521 8.93214C22.6387 8.4005 22.2996 7.78423 22.1751 7.00695C22.0107 5.99377 21.4786 5.38333 20.4557 5.02096C19.819 4.7977 19.1988 4.46062 18.6715 3.8779C18.1394 3.28789 17.5694 2.98097 16.8806 3.02669C16.0114 3.08749 14.9909 3.44743 13.9923 3.13127C13.737 3.04955 13.4957 3.00626 13.2681 3.00091Z" fill="black"/>
<path d="M15.0548 7.92873C14.7765 7.93408 14.5533 8.12135 14.5562 8.35142V8.92441C14.5183 8.93462 14.4774 8.93997 14.4375 8.9497C13.687 9.16469 13.1048 9.7299 13.1048 10.4216C13.1048 10.8443 13.3178 11.1993 13.6033 11.425C13.8874 11.6473 14.2172 11.7563 14.4905 11.8122C14.9998 11.9212 15.4376 12.0024 15.6706 12.1191C15.906 12.2359 16.0125 12.3195 16.0125 12.7349C16.0125 12.9377 15.851 13.1304 15.4731 13.2413C15.0961 13.3502 14.5183 13.3429 13.8543 13.0418C13.2521 12.7373 12.7351 13.5122 13.366 13.7714C13.7687 13.9534 14.1715 14.0623 14.5562 14.1075V14.6402C14.5562 15.1976 15.5699 15.1976 15.5699 14.6402V14.0823C15.6506 14.0672 15.7343 14.0501 15.8102 14.0263C16.5018 13.8269 17.0262 13.3327 17.0262 12.7349C17.0262 12.1143 16.6691 11.6405 16.1978 11.4046C15.7236 11.1697 15.2099 11.0962 14.7415 11.0048C14.3256 10.9235 14.1535 10.7212 14.1126 10.4225C14.0747 10.121 14.3709 9.85782 14.7717 9.74108C15.1715 9.62726 15.6856 9.66228 16.1871 10.0548C16.6764 10.4683 17.409 9.83253 16.8846 9.44972C16.4838 9.13502 16.0256 8.95797 15.5699 8.88987V8.35239C15.5718 8.116 15.3388 7.9263 15.0548 7.92873Z" fill="black"/>
<path fill-rule="evenodd" clip-rule="evenodd" d="M15.0701 6.92297C17.6009 6.92297 19.6453 8.96782 19.6453 11.4981C19.6453 14.0289 17.6009 16.0684 15.0701 16.0684C12.5394 16.0684 10.4979 14.0284 10.4979 11.4981C10.4974 8.96782 12.5394 6.92297 15.0701 6.92297ZM15.0701 6.00317C12.0432 6.00317 9.57812 8.46828 9.57812 11.4981C9.57812 14.5255 12.0432 16.9882 15.0701 16.9882C18.1004 16.9882 20.5651 14.5255 20.5651 11.4981C20.5651 8.46828 18.1004 6.00317 15.0701 6.00317Z" fill="black"/>
</g>
</svg>
