<svg width="22" height="22" viewBox="0 0 22 22" fill="none" xmlns="http://www.w3.org/2000/svg">
<path d="M11.0951 -1.26183e-05C11.4553 -1.26183e-05 11.8101 0.0233624 12.1401 0.0783624C12.4652 0.120244 12.7859 0.191109 13.0985 0.290112C13.4101 0.383612 13.719 0.504154 14.0252 0.651737C14.3236 0.793362 14.6302 0.966612 14.9368 1.15499C15.4552 1.48499 15.9653 1.75174 16.4851 1.96486C17.508 2.37522 18.5901 2.61894 19.6902 2.68674C20.2466 2.72799 20.8228 2.74907 21.4186 2.74999V8.24999C21.4186 9.29407 21.2852 10.2868 21.0185 11.2282C20.7622 12.158 20.3981 13.0546 19.9336 13.8999C19.4711 14.7439 18.9238 15.5387 18.3001 16.2717C17.6672 17.0218 16.9817 17.7258 16.2486 18.3782C15.5052 19.0318 14.7232 19.6402 13.907 20.2001C13.0893 20.7684 12.267 21.2923 11.4402 21.7717L11.1102 21.9684L10.7802 21.7717C9.93204 21.2808 9.10364 20.7566 8.29696 20.2001C7.47631 19.6462 6.69399 19.0375 5.95533 18.3782C5.22273 17.7257 4.53762 17.0218 3.90521 16.2717C3.28364 15.5352 2.73389 14.741 2.26346 13.8999C1.80732 13.0507 1.44361 12.155 1.17858 11.2282C0.91192 10.2581 0.779603 9.25605 0.785335 8.24999V2.74999C1.38117 2.74907 1.95775 2.72799 2.51508 2.68674C3.0647 2.64938 3.61074 2.57078 4.14858 2.45161C4.67521 2.33336 5.20183 2.17661 5.72021 1.96486C6.25798 1.74748 6.77367 1.47905 7.26021 1.16324C7.86521 0.769987 8.47846 0.479862 9.08346 0.288737C9.73507 0.0892104 10.4137 -0.00819406 11.0951 -1.26183e-05ZM20.0353 4.10161C18.9945 4.05067 17.9635 3.87667 16.9636 3.58324C15.9694 3.28589 15.0222 2.84936 14.1503 2.28661C13.698 1.99045 13.2071 1.75774 12.6915 1.59499C12.1761 1.43956 11.6402 1.36261 11.102 1.36674C10.5597 1.36343 10.0199 1.44035 9.50008 1.59499C8.98385 1.75289 8.49368 1.98593 8.04533 2.28661C7.17162 2.85186 6.22211 3.29028 5.22521 3.58874C4.25079 3.87199 3.22917 4.04524 2.16033 4.10849V8.25686C2.16033 9.16711 2.27858 10.0416 2.51508 10.8804C2.75623 11.7131 3.08823 12.5168 3.50508 13.277C3.92711 14.045 4.42456 14.7691 4.99008 15.4385C5.56346 16.1136 6.17533 16.742 6.83533 17.3387C7.49533 17.9355 8.18696 18.4882 8.91021 18.997C9.64079 19.5067 10.3714 19.9728 11.102 20.3954C11.8499 19.9607 12.5789 19.4941 13.2868 18.997C14.0157 18.4896 14.7111 17.9357 15.3686 17.3387C16.0286 16.742 16.6418 16.1136 17.2152 15.4385C17.7807 14.7691 18.2782 14.045 18.7002 13.277C19.115 12.5177 19.442 11.7136 19.6751 10.8804C19.919 10.0274 20.0403 9.14402 20.0353 8.25686V4.10161Z" fill="black"/>
<path fill-rule="evenodd" clip-rule="evenodd" d="M16.2199 6.47483L15.6149 5.95508L15.0567 6.0032L9.06166 13.0817L7.01978 10.1667L6.46978 10.0732L5.83316 10.5283L5.73828 11.0783L8.36316 14.8266L8.66153 14.9916L9.28991 15.0301L9.61166 14.8898L16.2598 7.0317L16.2199 6.47483Z" fill="black"/>
</svg>
