<svg width="30" height="30" viewBox="0 0 30 30" fill="none" xmlns="http://www.w3.org/2000/svg">
<path fill-rule="evenodd" clip-rule="evenodd" d="M9.02062 20.9013C8.64355 21.1322 8.36025 21.4891 8.22078 21.9087C8.0813 22.3283 8.09462 22.7837 8.25839 23.1945C8.42216 23.6053 8.72583 23.9449 9.11576 24.1535C9.50569 24.362 9.95679 24.4261 10.3894 24.3342C10.8219 24.2424 11.2081 24.0007 11.4797 23.6517C11.7513 23.3028 11.8908 22.869 11.8736 22.4272C11.8564 21.9853 11.6836 21.5637 11.3857 21.237C11.0878 20.9102 10.684 20.6992 10.2456 20.6413C10.2222 20.5574 10.2007 20.473 10.1813 20.3881C10.0961 20.0019 10.0294 19.6119 9.98125 19.2194C9.92958 18.8226 9.90037 18.4232 9.89375 18.0231C9.89274 17.9133 9.89587 17.8034 9.90313 17.6937C10.1435 17.6246 10.3842 17.5627 10.625 17.5081C10.9006 17.4456 11.0644 17.7706 11.1962 18.0344L11.25 18.14H18.5931C18.7362 17.8688 19.0606 17.4363 19.375 17.5081C19.7108 17.5848 20.046 17.675 20.3806 17.7787L20.3787 17.7794C20.3775 17.7781 20.3775 17.7785 20.3787 17.7806C20.3812 17.7894 20.395 17.8306 20.4087 17.9181C20.4246 18.0198 20.435 18.15 20.44 18.3088C20.4487 18.6238 20.4306 19.0069 20.3938 19.3931C20.3563 19.7787 20.3006 20.1519 20.2381 20.4463C20.2244 20.5117 20.2106 20.5713 20.1969 20.625H19.375C19.259 20.6251 19.1452 20.6574 19.0465 20.7185C18.9479 20.7795 18.8681 20.8668 18.8163 20.9706L18.1913 22.2206C18.1478 22.3073 18.1251 22.403 18.125 22.5V23.75C18.125 23.9158 18.1908 24.0747 18.3081 24.1919C18.4253 24.3092 18.5842 24.375 18.75 24.375H20V23.125H19.375V22.6475L19.7612 21.875H21.4888L21.875 22.6475V23.125H21.25V24.375H22.5C22.6658 24.375 22.8247 24.3092 22.9419 24.1919C23.0592 24.0747 23.125 23.9158 23.125 23.75V22.5C23.1249 22.403 23.1022 22.3073 23.0588 22.2206L22.4338 20.9706C22.3819 20.8668 22.3021 20.7795 22.2035 20.7185C22.1048 20.6574 21.991 20.6251 21.875 20.625H21.4775C21.5444 20.2919 21.6 19.9031 21.6375 19.5131C21.6787 19.0919 21.7 18.655 21.6894 18.2738L21.6887 18.2562C24.1812 19.3094 26.25 21.0413 26.25 22.8563V26.25H3.75V22.8563C3.75 20.9613 6.00625 19.1562 8.64438 18.1206C8.65125 18.5094 8.68813 18.9488 8.74125 19.3744C8.79875 19.8337 8.87687 20.2906 8.96312 20.6669C8.98187 20.7473 9.00104 20.8254 9.02062 20.9013ZM10 23.1344C10.3362 23.1344 10.625 22.8594 10.625 22.5C10.625 22.1413 10.3362 21.8656 10 21.8656C9.66375 21.8656 9.375 22.1406 9.375 22.5C9.375 22.8587 9.66375 23.1344 10 23.1344ZM15 15C16.3261 15 17.5979 14.4732 18.5355 13.5355C19.4732 12.5979 20 11.3261 20 10C20 8.67392 19.4732 7.40215 18.5355 6.46447C17.5979 5.52678 16.3261 5 15 5C13.6739 5 12.4021 5.52678 11.4645 6.46447C10.5268 7.40215 10 8.67392 10 10C10 11.3261 10.5268 12.5979 11.4645 13.5355C12.4021 14.4732 13.6739 15 15 15ZM15 16.25C18.4519 16.25 21.25 13.4519 21.25 10C21.25 6.54813 18.4519 3.75 15 3.75C11.5481 3.75 8.75 6.54813 8.75 10C8.75 13.4519 11.5481 16.25 15 16.25Z" fill="black"/>
</svg>
