<svg width="24" height="24" viewBox="0 0 24 24" fill="none" xmlns="http://www.w3.org/2000/svg">
<path d="M12 0.75C5.79656 0.75 0.75 5.79656 0.75 12C0.75 18.2034 5.79656 23.25 12 23.25C18.2034 23.25 23.25 18.2034 23.25 12C23.25 5.79656 18.2034 0.75 12 0.75ZM12 2.625C17.1891 2.625 21.375 6.81094 21.375 12C21.375 17.1891 17.1891 21.375 12 21.375C6.81094 21.375 2.625 17.1891 2.625 12C2.625 6.81094 6.81094 2.625 12 2.625ZM7.78125 8.25C7.40829 8.25 7.0506 8.39816 6.78688 8.66188C6.52316 8.9256 6.375 9.28329 6.375 9.65625C6.375 10.0292 6.52316 10.3869 6.78688 10.6506C7.0506 10.9143 7.40829 11.0625 7.78125 11.0625C8.15421 11.0625 8.5119 10.9143 8.77562 10.6506C9.03934 10.3869 9.1875 10.0292 9.1875 9.65625C9.1875 9.28329 9.03934 8.9256 8.77562 8.66188C8.5119 8.39816 8.15421 8.25 7.78125 8.25ZM16.2188 8.25C15.8458 8.25 15.4881 8.39816 15.2244 8.66188C14.9607 8.9256 14.8125 9.28329 14.8125 9.65625C14.8125 10.0292 14.9607 10.3869 15.2244 10.6506C15.4881 10.9143 15.8458 11.0625 16.2188 11.0625C16.5917 11.0625 16.9494 10.9143 17.2131 10.6506C17.4768 10.3869 17.625 10.0292 17.625 9.65625C17.625 9.28329 17.4768 8.9256 17.2131 8.66188C16.9494 8.39816 16.5917 8.25 16.2188 8.25ZM7.13625 14.8125L5.52562 15.75C6.82219 17.9878 9.23156 19.5 12 19.5C14.7684 19.5 17.1778 17.9878 18.4744 15.75L16.8638 14.8125C16.3722 15.6678 15.6636 16.3782 14.8096 16.872C13.9556 17.3658 12.9865 17.6256 12 17.625C11.0135 17.6256 10.0444 17.3658 9.19038 16.872C8.3364 16.3782 7.62784 15.6678 7.13625 14.8125Z" fill="black"/>
</svg>
