<svg width="66" height="66" viewBox="0 0 66 66" fill="none" xmlns="http://www.w3.org/2000/svg">
<g clip-path="url(#clip0_1_10)">
<mask id="mask0_1_10" style="mask-type:luminance" maskUnits="userSpaceOnUse" x="15" y="15" width="36" height="36">
<path d="M51 15H15V51H51V15Z" fill="white"/>
</mask>
<g mask="url(#mask0_1_10)">
<path d="M50.7713 30.8891C50.4497 30.5068 42.7868 21.5276 32.9999 21.5276C23.213 21.5276 15.5498 30.5068 15.2285 30.8887C14.9238 31.2515 14.9238 31.7434 15.2285 32.1061C15.5498 32.4885 23.213 41.4676 32.9999 41.4676C42.7868 41.4676 50.4497 32.4884 50.7713 32.1064C51.0763 31.7438 51.0763 31.2515 50.7713 30.8891ZM32.9999 39.4048C25.7908 39.4048 19.547 33.4452 17.6987 31.4969C19.5446 29.5469 25.7753 23.5903 32.9999 23.5903C40.2086 23.5903 46.4519 29.549 48.301 31.4983C46.4551 33.4482 40.2245 39.4048 32.9999 39.4048Z" fill="#173366"/>
<path d="M32.9999 25.8792C29.0735 25.8792 25.879 28.4004 25.879 31.4992C25.879 34.598 29.0735 37.1192 32.9999 37.1192C36.9263 37.1192 40.1208 34.598 40.1208 31.4992C40.1208 28.4004 36.9263 25.8792 32.9999 25.8792ZM32.9999 35.2458C30.3822 35.2458 28.2526 33.5651 28.2526 31.4992C28.2526 29.4332 30.3822 27.7525 32.9999 27.7525C35.6176 27.7525 37.7471 29.4332 37.7471 31.4992C37.7471 33.5651 35.6176 35.2458 32.9999 35.2458Z" fill="#173366"/>
</g>
<path d="M33 65.5C50.9493 65.5 65.5 50.9493 65.5 33C65.5 15.0507 50.9493 0.5 33 0.5C15.0507 0.5 0.5 15.0507 0.5 33C0.5 50.9493 15.0507 65.5 33 65.5Z" stroke="#D9D9D9"/>
</g>
<defs>
<clipPath id="clip0_1_10">
<rect width="66" height="66" fill="white"/>
</clipPath>
</defs>
</svg>
