<svg width="30" height="31" viewBox="0 0 30 31" fill="none" xmlns="http://www.w3.org/2000/svg">
<circle cx="15" cy="15.25" r="15" fill="#F0F5FF"/>
<path d="M20.5919 8.78188C20.3335 8.63831 20.0495 8.54704 19.7559 8.51327C19.4623 8.4795 19.1649 8.5039 18.8808 8.58508C18.5966 8.66625 18.3312 8.80261 18.0998 8.98636C17.8683 9.17011 17.6753 9.39766 17.5319 9.656L13.3547 17.1733L10.9641 14.7826C10.7565 14.5677 10.5083 14.3963 10.2338 14.2784C9.95925 14.1605 9.66401 14.0984 9.36525 14.0958C9.0665 14.0932 8.77022 14.1501 8.4937 14.2633C8.21719 14.3764 7.96597 14.5435 7.75471 14.7547C7.54345 14.966 7.37638 15.2172 7.26325 15.4937C7.15012 15.7702 7.09319 16.0665 7.09579 16.3653C7.09838 16.664 7.16045 16.9593 7.27837 17.2338C7.39629 17.5083 7.5677 17.7566 7.7826 17.9641L12.2826 22.4641C12.7079 22.8905 13.2816 23.1245 13.8734 23.1245L14.185 23.102C14.5298 23.0538 14.8588 22.9261 15.146 22.7292C15.4331 22.5322 15.6707 22.2712 15.8399 21.9669L21.4649 11.8419C21.6085 11.5836 21.6998 11.2996 21.7337 11.0061C21.7675 10.7126 21.7432 10.4152 21.6621 10.1311C21.5811 9.84692 21.4448 9.58152 21.2612 9.35002C21.0775 9.11853 20.8501 8.92547 20.5919 8.78188Z" fill="#173366"/>
</svg>
