<svg width="80" height="80" viewBox="0 0 80 80" fill="none" xmlns="http://www.w3.org/2000/svg">
<g clip-path="url(#clip0_107_10283)">
<mask id="path-1-outside-1_107_10283" maskUnits="userSpaceOnUse" x="7.4375" y="24.3032" width="66" height="55" fill="black">
<rect fill="white" x="7.4375" y="24.3032" width="66" height="55"/>
<path d="M70.975 40.4074L62.2714 26.967C61.5969 25.9253 60.4532 25.3032 59.2121 25.3032H20.811C19.5718 25.3032 18.4291 25.9237 17.7543 26.9628L9.02363 40.4049C8.13144 41.7784 8.26926 43.5918 9.35879 44.8146L37.2747 76.1553C37.9657 76.9309 38.9575 77.3759 39.9963 77.3759C39.9961 77.3759 39.9964 77.3759 39.9963 77.3759C41.0349 77.3759 42.0272 76.931 42.7182 76.1554L70.6372 44.8129C71.7252 43.5915 71.8641 41.7799 70.975 40.4074ZM57.4489 28.4281L50.1293 39.7468L42.8052 28.4281H57.4489ZM47.2575 41.0612H32.735L39.9963 29.8395L47.2575 41.0612ZM37.1874 28.4284L29.8835 39.716L22.5821 28.4284H37.1874ZM19.6929 29.7151L27.0319 41.0612H12.3236L19.6929 29.7151ZM12.9836 44.1862H28.7094L37.0244 71.176L12.9836 44.1862ZM39.9963 70.2085L31.9793 44.1862H48.0133L39.9963 70.2085ZM42.968 71.177L51.2833 44.1863H67.0105L42.968 71.177ZM53.001 41.0612L60.3333 29.7229L67.6753 41.0612H53.001Z"/>
</mask>
<path d="M70.975 40.4074L62.2714 26.967C61.5969 25.9253 60.4532 25.3032 59.2121 25.3032H20.811C19.5718 25.3032 18.4291 25.9237 17.7543 26.9628L9.02363 40.4049C8.13144 41.7784 8.26926 43.5918 9.35879 44.8146L37.2747 76.1553C37.9657 76.9309 38.9575 77.3759 39.9963 77.3759C39.9961 77.3759 39.9964 77.3759 39.9963 77.3759C41.0349 77.3759 42.0272 76.931 42.7182 76.1554L70.6372 44.8129C71.7252 43.5915 71.8641 41.7799 70.975 40.4074ZM57.4489 28.4281L50.1293 39.7468L42.8052 28.4281H57.4489ZM47.2575 41.0612H32.735L39.9963 29.8395L47.2575 41.0612ZM37.1874 28.4284L29.8835 39.716L22.5821 28.4284H37.1874ZM19.6929 29.7151L27.0319 41.0612H12.3236L19.6929 29.7151ZM12.9836 44.1862H28.7094L37.0244 71.176L12.9836 44.1862ZM39.9963 70.2085L31.9793 44.1862H48.0133L39.9963 70.2085ZM42.968 71.177L51.2833 44.1863H67.0105L42.968 71.177ZM53.001 41.0612L60.3333 29.7229L67.6753 41.0612H53.001Z" fill="#173366"/>
<path d="M70.975 40.4074L70.1357 40.951L70.1357 40.9511L70.975 40.4074ZM62.2714 26.967L61.432 27.5105L61.4321 27.5105L62.2714 26.967ZM17.7543 26.9628L18.5929 27.5074L18.5929 27.5074L17.7543 26.9628ZM9.02363 40.4049L9.86223 40.9497L9.86227 40.9496L9.02363 40.4049ZM9.35879 44.8146L10.1055 44.1495L10.1054 44.1494L9.35879 44.8146ZM37.2747 76.1553L36.528 76.8204L36.528 76.8204L37.2747 76.1553ZM42.7182 76.1554L43.4649 76.8206L43.4649 76.8206L42.7182 76.1554ZM70.6372 44.8129L71.3839 45.4781L71.3839 45.478L70.6372 44.8129ZM57.4489 28.4281L58.2887 28.9711L59.2865 27.4281H57.4489V28.4281ZM50.1293 39.7468L49.2897 40.2901L50.1295 41.5879L50.969 40.2898L50.1293 39.7468ZM42.8052 28.4281V27.4281H40.967L41.9656 28.9713L42.8052 28.4281ZM47.2575 41.0612V42.0612H49.0957L48.0971 40.5179L47.2575 41.0612ZM32.735 41.0612L31.8955 40.5179L30.8969 42.0612H32.735V41.0612ZM39.9963 29.8395L40.8359 29.2962L39.9963 27.9987L39.1567 29.2962L39.9963 29.8395ZM37.1874 28.4284L38.0269 28.9716L39.0255 27.4284H37.1874V28.4284ZM29.8835 39.716L29.0438 40.2592L29.8833 41.557L30.723 40.2593L29.8835 39.716ZM22.5821 28.4284V27.4284H20.7443L21.7424 28.9715L22.5821 28.4284ZM19.6929 29.7151L20.5325 29.172L19.6946 27.8765L18.8542 29.1704L19.6929 29.7151ZM27.0319 41.0612V42.0612H28.8697L27.8716 40.5181L27.0319 41.0612ZM12.3236 41.0612L11.485 40.5165L10.4817 42.0612H12.3236V41.0612ZM12.9836 44.1862V43.1862H10.7537L12.2369 44.8513L12.9836 44.1862ZM28.7094 44.1862L29.6651 43.8918L29.4477 43.1862H28.7094V44.1862ZM37.0244 71.176L36.2777 71.8412L37.9801 70.8816L37.0244 71.176ZM39.9963 70.2085L39.0406 70.503L39.9963 73.605L40.952 70.503L39.9963 70.2085ZM31.9793 44.1862V43.1862H30.6248L31.0236 44.4806L31.9793 44.1862ZM48.0133 44.1862L48.969 44.4806L49.3678 43.1862H48.0133V44.1862ZM42.968 71.177L42.0123 70.8825L43.7147 71.8421L42.968 71.177ZM51.2833 44.1863V43.1863H50.545L50.3276 43.8919L51.2833 44.1863ZM67.0105 44.1863L67.7572 44.8515L69.2405 43.1863H67.0105V44.1863ZM53.001 41.0612L52.1613 40.5182L51.1634 42.0612H53.001V41.0612ZM60.3333 29.7229L61.1727 29.1794L60.3328 27.8823L59.4936 29.1799L60.3333 29.7229ZM67.6753 41.0612V42.0612H69.5142L68.5147 40.5177L67.6753 41.0612ZM71.8144 39.8639L63.1108 26.4234L61.4321 27.5105L70.1357 40.951L71.8144 39.8639ZM63.1108 26.4234C62.252 25.0971 60.7923 24.3032 59.2121 24.3032V26.3032C60.1141 26.3032 60.9418 26.7534 61.432 27.5105L63.1108 26.4234ZM59.2121 24.3032H20.811V26.3032H59.2121V24.3032ZM20.811 24.3032C19.2331 24.3032 17.7749 25.0951 16.9156 26.4181L18.5929 27.5074C19.0833 26.7523 19.9104 26.3032 20.811 26.3032V24.3032ZM16.9156 26.4181L8.185 39.8602L9.86227 40.9496L18.5929 27.5074L16.9156 26.4181ZM8.18504 39.8602C7.04733 41.6116 7.22279 43.9205 8.61216 45.4799L10.1054 44.1494C9.31573 43.2631 9.21556 41.9452 9.86223 40.9497L8.18504 39.8602ZM8.61206 45.4798L36.528 76.8204L38.0215 75.4901L10.1055 44.1495L8.61206 45.4798ZM36.528 76.8204C37.4086 77.8089 38.6721 78.3759 39.9963 78.3759V76.3759C39.243 76.3759 38.5227 76.0528 38.0214 75.4901L36.528 76.8204ZM39.9963 78.3759C39.9963 78.3759 39.9963 78.3759 39.9963 78.3759C39.9963 78.3759 39.9963 78.3759 39.9963 78.3759H39.9963H39.9963C39.9963 78.3759 39.9963 78.3759 39.9963 78.3759H39.9963C39.9963 78.3759 39.9963 78.3759 39.9963 78.3759H39.9963C39.9963 78.3759 39.9963 78.3759 39.9963 78.3759C39.9963 78.3759 39.9963 78.3759 39.9963 78.3759H39.9963H39.9963C39.9963 78.3759 39.9963 78.3759 39.9963 78.3759C39.9963 78.3759 39.9963 78.3759 39.9963 78.3759H39.9963C39.9963 78.3759 39.9963 78.3759 39.9963 78.3759C39.9963 78.3759 39.9963 78.3759 39.9963 78.3759C39.9963 78.3759 39.9963 78.3759 39.9963 78.3759C39.9963 78.3759 39.9963 78.3759 39.9963 78.3759C39.9963 78.3759 39.9963 78.3759 39.9963 78.3759C39.9963 78.3759 39.9963 78.3759 39.9963 78.3759C39.9963 78.3759 39.9963 78.3759 39.9963 78.3759H39.9963C39.9963 78.3759 39.9963 78.3759 39.9963 78.3759C39.9963 77.3759 39.9963 76.3759 39.9963 76.3759C39.9963 76.3759 39.9963 76.3759 39.9963 76.3759H39.9963C39.9963 76.3759 39.9963 76.3759 39.9963 76.3759C39.9963 76.3759 39.9963 76.3759 39.9963 76.3759C39.9963 76.3759 39.9963 76.3759 39.9963 76.3759C39.9963 76.3759 39.9963 76.3759 39.9963 76.3759C39.9963 76.3759 39.9963 76.3759 39.9963 76.3759C39.9963 76.3759 39.9963 76.3759 39.9963 76.3759C39.9963 76.3759 39.9963 76.3759 39.9963 76.3759H39.9963H39.9963H39.9963C39.9963 76.3759 39.9963 76.3759 39.9963 76.3759C39.9963 76.3759 39.9963 76.3759 39.9963 76.3759H39.9963C39.9963 76.3759 39.9963 76.3759 39.9963 76.3759C39.9963 76.3759 39.9963 76.3759 39.9963 76.3759H39.9963C39.9963 76.3759 39.9963 76.3759 39.9963 76.3759C39.9963 76.3759 39.9963 76.3759 39.9963 76.3759H39.9963H39.9963C39.9963 76.3759 39.9963 76.3759 39.9963 76.3759C39.9963 76.3759 39.9963 76.3759 39.9963 76.3759C39.9963 76.3759 39.9963 76.3759 39.9963 76.3759C39.9963 76.3759 39.9963 76.3759 39.9963 76.3759H39.9963H39.9963C39.9963 76.3759 39.9963 76.3759 39.9963 76.3759C39.9963 76.3759 39.9963 76.3759 39.9963 76.3759H39.9963C39.9963 76.3759 39.9963 76.3759 39.9963 76.3759C39.9963 76.3759 39.9963 76.3759 39.9963 76.3759H39.9963C39.9963 76.3759 39.9963 76.3759 39.9963 76.3759C39.9963 76.3759 39.9963 76.3759 39.9963 76.3759H39.9963H39.9963H39.9963C39.9963 76.3759 39.9963 76.3759 39.9963 76.3759C39.9963 76.3759 39.9963 76.3759 39.9963 76.3759C39.9963 76.3759 39.9963 76.3759 39.9963 76.3759C39.9963 76.3759 39.9963 76.3759 39.9963 76.3759C39.9963 76.3759 39.9963 76.3759 39.9963 76.3759C39.9963 76.3759 39.9963 76.3759 39.9963 76.3759C39.9963 76.3759 39.9963 76.3759 39.9962 76.3759H39.9962C39.9962 76.3759 39.9962 76.3759 39.9962 76.3759C39.9962 76.3759 39.9962 77.3759 39.9962 78.3759C39.9962 78.3759 39.9962 78.3759 39.9962 78.3759H39.9962C39.9962 78.3759 39.9962 78.3759 39.9963 78.3759C39.9963 78.3759 39.9963 78.3759 39.9963 78.3759C39.9963 78.3759 39.9963 78.3759 39.9963 78.3759C39.9963 78.3759 39.9963 78.3759 39.9963 78.3759C39.9963 78.3759 39.9963 78.3759 39.9963 78.3759C39.9963 78.3759 39.9963 78.3759 39.9963 78.3759C39.9963 78.3759 39.9963 78.3759 39.9963 78.3759H39.9963C39.9963 78.3759 39.9963 78.3759 39.9963 78.3759C39.9963 78.3759 39.9963 78.3759 39.9963 78.3759H39.9963H39.9963C39.9963 78.3759 39.9963 78.3759 39.9963 78.3759C39.9963 78.3759 39.9963 78.3759 39.9963 78.3759H39.9963C39.9963 78.3759 39.9963 78.3759 39.9963 78.3759H39.9963C39.9963 78.3759 39.9963 78.3759 39.9963 78.3759H39.9963H39.9963C39.9963 78.3759 39.9963 78.3759 39.9963 78.3759C39.9963 78.3759 39.9963 78.3759 39.9963 78.3759V76.3759C39.9963 76.3759 39.9963 76.3759 39.9963 76.3759C39.9963 76.3759 39.9963 76.3759 39.9963 76.3759H39.9963H39.9963C39.9963 76.3759 39.9963 76.3759 39.9963 76.3759H39.9963C39.9963 76.3759 39.9963 76.3759 39.9963 76.3759H39.9963C39.9963 76.3759 39.9963 76.3759 39.9963 76.3759C39.9963 76.3759 39.9963 76.3759 39.9963 76.3759H39.9963H39.9963C39.9963 76.3759 39.9963 76.3759 39.9963 76.3759C39.9963 76.3759 39.9963 76.3759 39.9963 76.3759H39.9963C39.9963 76.3759 39.9963 76.3759 39.9963 76.3759C39.9963 76.3759 39.9963 76.3759 39.9963 76.3759C39.9963 76.3759 39.9963 76.3759 39.9963 76.3759C39.9963 76.3759 39.9963 76.3759 39.9963 76.3759C39.9963 76.3759 39.9963 76.3759 39.9963 76.3759C39.9963 76.3759 39.9963 76.3759 39.9963 76.3759C39.9962 76.3759 39.9962 76.3759 39.9962 76.3759H39.9962C39.9962 76.3759 39.9962 76.3759 39.9962 76.3759C39.9962 77.3759 39.9962 78.3759 39.9962 78.3759C39.9962 78.3759 39.9962 78.3759 39.9962 78.3759H39.9962C39.9963 78.3759 39.9963 78.3759 39.9963 78.3759C39.9963 78.3759 39.9963 78.3759 39.9963 78.3759C39.9963 78.3759 39.9963 78.3759 39.9963 78.3759C39.9963 78.3759 39.9963 78.3759 39.9963 78.3759C39.9963 78.3759 39.9963 78.3759 39.9963 78.3759C39.9963 78.3759 39.9963 78.3759 39.9963 78.3759C39.9963 78.3759 39.9963 78.3759 39.9963 78.3759H39.9963H39.9963H39.9963C39.9963 78.3759 39.9963 78.3759 39.9963 78.3759C39.9963 78.3759 39.9963 78.3759 39.9963 78.3759H39.9963C39.9963 78.3759 39.9963 78.3759 39.9963 78.3759C39.9963 78.3759 39.9963 78.3759 39.9963 78.3759H39.9963C39.9963 78.3759 39.9963 78.3759 39.9963 78.3759C39.9963 78.3759 39.9963 78.3759 39.9963 78.3759H39.9963H39.9963C39.9963 78.3759 39.9963 78.3759 39.9963 78.3759C39.9963 78.3759 39.9963 78.3759 39.9963 78.3759C39.9963 78.3759 39.9963 78.3759 39.9963 78.3759C39.9963 78.3759 39.9963 78.3759 39.9963 78.3759H39.9963H39.9963C39.9963 78.3759 39.9963 78.3759 39.9963 78.3759C39.9963 78.3759 39.9963 78.3759 39.9963 78.3759H39.9963C39.9963 78.3759 39.9963 78.3759 39.9963 78.3759C39.9963 78.3759 39.9963 78.3759 39.9963 78.3759H39.9963C39.9963 78.3759 39.9963 78.3759 39.9963 78.3759C39.9963 78.3759 39.9963 78.3759 39.9963 78.3759H39.9963H39.9963H39.9963C39.9963 78.3759 39.9963 78.3759 39.9963 78.3759C39.9963 78.3759 39.9963 78.3759 39.9963 78.3759C39.9963 78.3759 39.9963 78.3759 39.9963 78.3759C39.9963 78.3759 39.9963 78.3759 39.9963 78.3759C39.9963 78.3759 39.9963 78.3759 39.9963 78.3759C39.9963 78.3759 39.9963 78.3759 39.9963 78.3759C39.9963 78.3759 39.9963 78.3759 39.9963 78.3759H39.9963C39.9963 78.3759 39.9963 78.3759 39.9963 78.3759C39.9963 78.3759 39.9963 77.3759 39.9963 76.3759C39.9963 76.3759 39.9963 76.3759 39.9963 76.3759H39.9963C39.9963 76.3759 39.9963 76.3759 39.9963 76.3759C39.9963 76.3759 39.9963 76.3759 39.9963 76.3759C39.9963 76.3759 39.9963 76.3759 39.9963 76.3759C39.9963 76.3759 39.9963 76.3759 39.9963 76.3759C39.9963 76.3759 39.9963 76.3759 39.9963 76.3759C39.9963 76.3759 39.9963 76.3759 39.9963 76.3759C39.9963 76.3759 39.9963 76.3759 39.9963 76.3759H39.9963C39.9963 76.3759 39.9963 76.3759 39.9963 76.3759C39.9963 76.3759 39.9963 76.3759 39.9963 76.3759H39.9963H39.9963C39.9963 76.3759 39.9963 76.3759 39.9963 76.3759C39.9963 76.3759 39.9963 76.3759 39.9963 76.3759H39.9963C39.9963 76.3759 39.9963 76.3759 39.9963 76.3759H39.9963C39.9963 76.3759 39.9963 76.3759 39.9963 76.3759H39.9963H39.9963C39.9963 76.3759 39.9963 76.3759 39.9963 76.3759C39.9963 76.3759 39.9963 76.3759 39.9963 76.3759V78.3759ZM39.9963 78.3759C41.3201 78.3759 42.5841 77.8092 43.4649 76.8206L41.9715 75.4902C41.4703 76.0528 40.7497 76.3759 39.9963 76.3759V78.3759ZM43.4649 76.8206L71.3839 45.4781L69.8905 44.1478L41.9715 75.4903L43.4649 76.8206ZM71.3839 45.478C72.7712 43.9206 72.9482 41.6142 71.8143 39.8638L70.1357 40.9511C70.78 41.9456 70.6791 43.2624 69.8905 44.1478L71.3839 45.478ZM56.6092 27.885L49.2895 39.2038L50.969 40.2898L58.2887 28.9711L56.6092 27.885ZM50.9688 39.2036L43.6448 27.8848L41.9656 28.9713L49.2897 40.2901L50.9688 39.2036ZM42.8052 29.4281H57.4489V27.4281H42.8052V29.4281ZM47.2575 40.0612H32.735V42.0612H47.2575V40.0612ZM33.5746 41.6044L40.8359 30.3827L39.1567 29.2962L31.8955 40.5179L33.5746 41.6044ZM39.1567 30.3827L46.418 41.6044L48.0971 40.5179L40.8359 29.2962L39.1567 30.3827ZM36.3478 27.8851L29.0439 39.1728L30.723 40.2593L38.0269 28.9716L36.3478 27.8851ZM30.7231 39.1729L23.4217 27.8853L21.7424 28.9715L29.0438 40.2592L30.7231 39.1729ZM22.5821 29.4284H37.1874V27.4284H22.5821V29.4284ZM18.8532 30.2582L26.1923 41.6043L27.8716 40.5181L20.5325 29.172L18.8532 30.2582ZM27.0319 40.0612H12.3236V42.0612H27.0319V40.0612ZM13.1623 41.6059L20.5315 30.2598L18.8542 29.1704L11.485 40.5165L13.1623 41.6059ZM12.9836 45.1862H28.7094V43.1862H12.9836V45.1862ZM27.7537 44.4806L36.0687 71.4705L37.9801 70.8816L29.6651 43.8918L27.7537 44.4806ZM37.7711 70.5109L13.7304 43.5211L12.2369 44.8513L36.2777 71.8412L37.7711 70.5109ZM40.952 69.9141L32.9349 43.8918L31.0236 44.4806L39.0406 70.503L40.952 69.9141ZM31.9793 45.1862H48.0133V43.1862H31.9793V45.1862ZM47.0576 43.8918L39.0406 69.9141L40.952 70.503L48.969 44.4806L47.0576 43.8918ZM43.9237 71.4714L52.239 44.4808L50.3276 43.8919L42.0123 70.8825L43.9237 71.4714ZM51.2833 45.1863H67.0105V43.1863H51.2833V45.1863ZM66.2638 43.5212L42.2213 70.5118L43.7147 71.8421L67.7572 44.8515L66.2638 43.5212ZM53.8407 41.6042L61.173 30.2659L59.4936 29.1799L52.1613 40.5182L53.8407 41.6042ZM59.4939 30.2664L66.836 41.6047L68.5147 40.5177L61.1727 29.1794L59.4939 30.2664ZM67.6753 40.0612H53.001V42.0612H67.6753V40.0612Z" fill="white" mask="url(#path-1-outside-1_107_10283)"/>
<path d="M4.73953 40.5615H1.5625C0.423578 40.5615 -0.5 41.4849 -0.5 42.624C-0.5 43.7632 0.423578 44.6865 1.5625 44.6865H4.73953C5.87845 44.6865 6.80203 43.7632 6.80203 42.624C6.80203 41.4849 5.87845 40.5615 4.73953 40.5615Z" fill="#173366" stroke="white"/>
<path d="M78.4388 40.5615H75.2617C74.1228 40.5615 73.1992 41.4849 73.1992 42.624C73.1992 43.7632 74.1228 44.6865 75.2617 44.6865H78.4388C79.5777 44.6865 80.5013 43.7632 80.5013 42.624C80.5013 41.4849 79.5777 40.5615 78.4388 40.5615Z" fill="#173366" stroke="white"/>
<path d="M68.6565 13.9942L68.6564 13.9942C67.8508 13.1888 66.5453 13.1888 65.7396 13.9941L65.7395 13.9942L60.5494 19.1844C59.744 19.9898 59.744 21.2957 60.5494 22.1012L60.5495 22.1012C60.9523 22.5038 61.4809 22.7053 62.0079 22.7053C62.5353 22.7053 63.0637 22.5036 63.4662 22.1012L63.4663 22.1012L68.6565 16.911C69.4619 16.1056 69.4619 14.7998 68.6565 13.9942Z" fill="#173366" stroke="white"/>
<path d="M11.4088 13.9664L11.4089 13.9662C12.2148 13.1611 13.5203 13.1608 14.3257 13.9664L11.4088 13.9664ZM11.4088 13.9664C10.6033 14.7718 10.6033 16.0777 11.4088 16.8832L16.5989 22.0733C17.0016 22.476 17.5303 22.6774 18.0573 22.6774C18.5844 22.6774 19.113 22.4758 19.5156 22.0734L19.5157 22.0734C20.3211 21.2681 20.3211 19.962 19.5157 19.1567C19.5157 19.1567 19.5157 19.1567 19.5157 19.1566L14.3257 13.9664L11.4088 13.9664Z" fill="#173366" stroke="white"/>
<path d="M40.0391 2.12402C38.9001 2.12402 37.9766 3.04738 37.9766 4.18652V14.369C37.9766 15.5081 38.9 16.4315 40.0391 16.4315C41.178 16.4315 42.1016 15.5082 42.1016 14.369V4.18652C42.1016 3.04757 41.178 2.12402 40.0391 2.12402Z" fill="#173366" stroke="white"/>
<path d="M41.1475 18.5501C40.857 18.2595 40.4539 18.0923 40.043 18.0923C39.632 18.0923 39.2289 18.2595 38.9383 18.5501C38.6477 18.8407 38.4805 19.2438 38.4805 19.6548C38.4805 20.0673 38.6475 20.4688 38.9383 20.7595C39.2289 21.0517 39.632 21.2173 40.043 21.2173C40.4539 21.2173 40.857 21.0517 41.1475 20.7595C41.4397 20.4688 41.6055 20.0657 41.6055 19.6548C41.6055 19.2438 41.4397 18.8409 41.1475 18.5501Z" fill="#173366"/>
</g>
<defs>
<clipPath id="clip0_107_10283">
<rect width="80" height="80" fill="white"/>
</clipPath>
</defs>
</svg>
