<svg width="97" height="106" viewBox="0 0 97 106" fill="none" xmlns="http://www.w3.org/2000/svg">
<g filter="url(#filter0_d_32_14216)">
<path d="M20.2805 45.6409C20.2791 50.6821 21.6066 55.6044 24.1308 59.943L20.0391 74.7667L35.3278 70.7891C39.5565 73.0732 44.2944 74.2701 49.1091 74.2705H49.1217C65.0159 74.2705 77.9541 61.4372 77.9609 45.6635C77.9639 38.02 74.9667 30.8325 69.5213 25.4251C64.0767 20.0181 56.8357 17.0388 49.1205 17.0353C33.2245 17.0353 20.2873 29.8679 20.2807 45.6409" fill="url(#paint0_linear_32_14216)"/>
<path d="M19.2508 45.6316C19.2491 50.8542 20.6242 55.9526 23.2384 60.4465L19 75.8016L34.837 71.6814C39.2005 74.0421 44.1135 75.2868 49.1127 75.2886H49.1256C65.59 75.2886 78.993 61.9937 79 45.6554C79.0028 37.7372 75.8978 30.2914 70.2578 24.6902C64.6171 19.0898 57.1171 16.0033 49.1256 16C32.6584 16 19.2573 29.293 19.2508 45.6316ZM28.6823 59.6726L28.0909 58.7412C25.6052 54.8193 24.2931 50.2872 24.295 45.6335C24.3002 32.0533 35.4386 21.0047 49.135 21.0047C55.7678 21.0074 62.0013 23.573 66.6897 28.2279C71.3779 32.8833 73.9577 39.0716 73.956 45.6535C73.9499 59.2337 62.8112 70.2837 49.1256 70.2837H49.1158C44.6596 70.2814 40.2892 69.094 36.4778 66.85L35.5708 66.3163L26.1728 68.7612L28.6823 59.6726Z" fill="url(#paint1_linear_32_14216)"/>
<path d="M41.6586 33.2437C41.0994 32.0105 40.5109 31.9856 39.9791 31.9639C39.5436 31.9453 39.0458 31.9467 38.5484 31.9467C38.0506 31.9467 37.2418 32.1326 36.5581 32.8733C35.8737 33.6146 33.9453 35.4063 33.9453 39.0502C33.9453 42.6942 36.6202 46.216 36.9931 46.7107C37.3665 47.2044 42.1571 54.9216 49.7443 57.8905C56.0499 60.3577 57.3331 59.867 58.7016 59.7432C60.0704 59.62 63.1182 57.9521 63.74 56.2225C64.3623 54.4932 64.3623 53.0109 64.1757 52.7012C63.9891 52.3926 63.4913 52.2072 62.7448 51.837C61.9984 51.4667 58.3283 49.6746 57.6441 49.4274C56.9598 49.1805 56.4622 49.0572 55.9644 49.7988C55.4666 50.5393 54.0371 52.2072 53.6014 52.7012C53.1662 53.1963 52.7305 53.2579 51.9842 52.8874C51.2373 52.5158 48.8333 51.7346 45.9812 49.2116C43.7621 47.2484 42.264 44.8239 41.8285 44.0823C41.393 43.3419 41.7819 42.9405 42.1562 42.5714C42.4916 42.2395 42.9029 41.7065 43.2765 41.2742C43.6487 40.8416 43.7729 40.533 44.0218 40.0391C44.2709 39.5446 44.1462 39.1121 43.9599 38.7416C43.7729 38.3712 42.3223 34.7081 41.6586 33.2437Z" fill="white"/>
</g>
<defs>
<filter id="filter0_d_32_14216" x="-11" y="-14" width="120" height="120" filterUnits="userSpaceOnUse" color-interpolation-filters="sRGB">
<feFlood flood-opacity="0" result="BackgroundImageFix"/>
<feColorMatrix in="SourceAlpha" type="matrix" values="0 0 0 0 0 0 0 0 0 0 0 0 0 0 0 0 0 0 127 0" result="hardAlpha"/>
<feOffset/>
<feGaussianBlur stdDeviation="15"/>
<feComposite in2="hardAlpha" operator="out"/>
<feColorMatrix type="matrix" values="0 0 0 0 0 0 0 0 0 0 0 0 0 0 0 0 0 0 0.06 0"/>
<feBlend mode="normal" in2="BackgroundImageFix" result="effect1_dropShadow_32_14216"/>
<feBlend mode="normal" in="SourceGraphic" in2="effect1_dropShadow_32_14216" result="shape"/>
</filter>
<linearGradient id="paint0_linear_32_14216" x1="2916.13" y1="5790.18" x2="2916.13" y2="17.0353" gradientUnits="userSpaceOnUse">
<stop stop-color="#1FAF38"/>
<stop offset="1" stop-color="#60D669"/>
</linearGradient>
<linearGradient id="paint1_linear_32_14216" x1="3019" y1="5996.16" x2="3019" y2="16" gradientUnits="userSpaceOnUse">
<stop stop-color="#F9F9F9"/>
<stop offset="1" stop-color="white"/>
</linearGradient>
</defs>
</svg>
