<svg width="161" height="51" viewBox="0 0 161 51" fill="none" xmlns="http://www.w3.org/2000/svg">
<path d="M5.88169 34.6965V29.5739H21.9057C22.6443 29.5739 23.1716 29.4449 23.5 29.1988C23.8165 28.9527 23.9806 28.5307 23.9806 27.9562C23.9806 27.4051 23.8165 27.0184 23.5 26.7958C23.1719 26.5732 22.6443 26.4677 21.9057 26.4677H13.1258C10.4413 26.4677 8.46038 25.9051 7.19451 24.7679C5.91677 23.6426 5.28369 22.0249 5.28369 19.9268C5.28369 17.8049 5.91677 16.2344 7.19451 15.2378C8.46038 14.2297 10.4416 13.7256 13.1258 13.7256H30.5096V18.7661H14.7436C13.9465 18.7661 13.3954 18.8716 13.0673 19.0592C12.7391 19.2583 12.5751 19.6688 12.5751 20.3019C12.5751 20.9349 12.7391 21.357 13.0673 21.5677C13.3954 21.7669 13.9465 21.8724 14.7436 21.8724H24.1916C25.5514 21.8724 26.6886 22.0249 27.6144 22.3295C28.5286 22.6342 29.2672 23.0681 29.8299 23.6307C30.4044 24.1934 30.8027 24.8966 31.0491 25.7172C31.2836 26.5494 31.4007 27.4872 31.4007 28.5304C31.4007 29.5855 31.2717 30.4879 31.0256 31.2616C30.7676 32.0352 30.3458 32.6799 29.7478 33.184C29.1617 33.6997 28.353 34.0747 27.3564 34.3211C26.3482 34.5791 25.1175 34.6962 23.6406 34.6962H5.88169V34.6965Z" fill="white"/>
<path d="M44.2481 34.6965C42.5837 34.6965 41.083 34.509 39.7351 34.1455C38.3988 33.7704 37.2382 33.1843 36.277 32.399C35.3158 31.6137 34.5891 30.6056 34.0731 29.3864C33.569 28.1556 33.311 26.7019 33.311 25.014V13.7256H41.0242V25.014C41.0242 26.3387 41.3523 27.3935 41.9854 28.1791C42.6185 28.9643 43.8258 29.3629 45.6076 29.3629H51.5038C52.1016 29.3629 52.559 29.3745 52.8752 29.398C53.2034 29.4331 53.5434 29.4684 53.8715 29.527V13.7256H61.6316V34.6965H44.2481Z" fill="white"/>
<path d="M86.1431 18.9303C85.8031 18.9888 85.475 19.0242 85.1468 19.0358C84.8187 19.0474 84.3616 19.0593 83.7755 19.0593H77.7033C76.4606 19.0593 75.4643 19.1999 74.7025 19.4929C73.9289 19.786 73.3427 20.1727 72.9207 20.6533C72.4871 21.1339 72.2056 21.6849 72.0415 22.2826C71.8891 22.8922 71.8189 23.5253 71.8189 24.1935C71.8189 24.85 71.8893 25.4947 72.0415 26.1159C72.2056 26.7371 72.4871 27.2881 72.9207 27.7687C73.3427 28.2493 73.9289 28.636 74.7025 28.9291C75.4646 29.2105 76.4609 29.3627 77.7033 29.3627H82.4157C83.0954 29.3627 83.6699 29.2688 84.1271 29.0697C84.5961 28.8821 84.9828 28.6125 85.2758 28.2844C85.5689 27.9563 85.7915 27.5812 85.9324 27.1707C86.073 26.7487 86.1434 26.3266 86.1434 25.8814V18.9303H86.1431ZM76.6012 34.6966C72.5569 34.6966 69.4976 33.8058 67.3993 32.0121C65.3128 30.2187 64.2695 27.6047 64.2695 24.1935C64.2695 20.7942 65.3128 18.2036 67.3993 16.4099C69.4976 14.6165 72.5569 13.7254 76.6012 13.7254H86.1431V5.86035H93.8679V25.3074C93.8679 26.7142 93.6334 27.9919 93.1881 29.1523C92.731 30.3126 92.0394 31.3092 91.1016 32.1298C90.1755 32.962 89.0033 33.5951 87.6084 34.0406C86.2136 34.4743 84.5607 34.6972 82.6734 34.6972H76.6012V34.6966Z" fill="white"/>
<path d="M117.863 34.6966V23.4082C117.863 22.7401 117.793 22.1539 117.652 21.6264C117.511 21.0988 117.265 20.6417 116.902 20.255C116.55 19.8683 116.081 19.5753 115.484 19.3642C114.897 19.1651 114.147 19.0596 113.245 19.0596H106.833C106.27 19.0596 105.824 19.048 105.496 19.0361C105.18 19.0245 104.828 18.9891 104.465 18.9306V34.6969H96.7866V5.86035H104.465V13.726H114.593C116.234 13.726 117.734 13.9135 119.094 14.3005C120.454 14.6872 121.603 15.2733 122.552 16.0588C123.49 16.8441 124.229 17.8407 124.756 19.0596C125.272 20.2788 125.541 21.7206 125.541 23.4085V34.6969H117.863V34.6966Z" fill="white"/>
<path d="M147.626 25.8816H136.642C135.915 25.8816 135.399 26.0456 135.118 26.3857C134.836 26.7138 134.696 27.1709 134.696 27.7454C134.696 28.355 134.836 28.8122 135.118 29.1287C135.399 29.4568 135.915 29.6093 136.642 29.6093H147.626V25.8816ZM134.063 34.6965C132.867 34.6965 131.871 34.5324 131.05 34.2043C130.23 33.8762 129.561 33.4072 129.057 32.7976C128.542 32.188 128.19 31.4848 127.979 30.6876C127.756 29.8905 127.651 28.9997 127.651 28.0385C127.651 27.1008 127.756 26.2567 127.979 25.4949C128.19 24.7328 128.542 24.0881 129.057 23.549C129.561 23.0098 130.23 22.5994 131.05 22.3298C131.871 22.0483 132.867 21.9196 134.063 21.9196H147.414C147.192 20.677 146.746 19.8447 146.078 19.4111C145.41 18.989 144.331 18.7664 142.831 18.7664H128.506V13.7256H143.511C145.55 13.7256 147.297 13.9131 148.75 14.2766C150.204 14.6517 151.411 15.2494 152.349 16.0819C153.299 16.9026 153.99 17.9928 154.435 19.3291C154.869 20.6654 155.092 22.3066 155.092 24.229V34.6968H134.063V34.6965Z" fill="white"/>
<path d="M18.0373 42.2923V45.1055H15.939V40.9091C15.939 39.8073 16.2204 38.9867 16.7947 38.4591C17.3692 37.9315 18.1895 37.6738 19.2797 37.6738H23.7927V39.2212H19.5965C19.28 39.2212 19.0339 39.2562 18.8345 39.3267C18.6353 39.3971 18.471 39.5026 18.3539 39.6313C18.2368 39.7719 18.1547 39.9244 18.1194 40.1119C18.0724 40.2995 18.0373 40.5105 18.0373 40.7331H23.8046V42.292H18.0373V42.2923Z" fill="white"/>
<path d="M28.0012 45.1055C26.9229 45.1055 26.1023 44.8009 25.5277 44.2029C24.9532 43.5933 24.6602 42.6555 24.6602 41.4013C24.6602 40.1354 24.9532 39.1974 25.5277 38.5881C26.1023 37.9785 26.9226 37.6738 28.0012 37.6738H32.5261V39.1977H28.3059C28.0479 39.1977 27.8252 39.2212 27.6377 39.2916C27.4502 39.362 27.2977 39.4557 27.1806 39.5731C27.0635 39.6902 26.9695 39.8426 26.8991 40.0302C26.8287 40.2177 26.782 40.4169 26.7585 40.6514H32.4788V42.0816H26.7469C26.7704 42.3277 26.8174 42.5387 26.8759 42.7263C26.9464 42.9138 27.04 43.0663 27.1574 43.1953C27.2745 43.3243 27.427 43.4179 27.6145 43.4883C27.8021 43.5588 28.0366 43.5938 28.3061 43.5938H32.5261V45.1061H28.0012V45.1055Z" fill="white"/>
<path d="M35.7731 39.2212V41.1671H39.1843C39.5359 41.1671 39.782 41.0966 39.9229 40.9679C40.0635 40.8389 40.1339 40.5812 40.1339 40.1827C40.1339 39.9835 40.1223 39.831 40.087 39.7021C40.0519 39.5849 39.9931 39.491 39.9229 39.409C39.8525 39.3386 39.747 39.2919 39.6298 39.2684C39.5127 39.2449 39.3603 39.2214 39.1843 39.2214H35.7731V39.2212ZM40.1571 45.1055L38.3988 42.6439H35.7731V45.1055H33.6982V37.6738H39.2779C39.8171 37.6738 40.2742 37.7208 40.6493 37.8263C41.0244 37.9202 41.3291 38.0724 41.5636 38.2834C41.7981 38.4826 41.9737 38.7406 42.0793 39.0571C42.1848 39.3736 42.2317 39.7368 42.2317 40.1589C42.2317 40.8036 42.1027 41.3192 41.845 41.6827C41.5755 42.0462 41.1534 42.3039 40.5792 42.468L42.6422 45.1055H40.1571Z" fill="white"/>
<path d="M46.2645 45.1055V39.1977H42.9473V37.6738H51.6918V39.1977H48.3745V45.1055H46.2645Z" fill="white"/>
<path d="M54.716 37.6738H52.6177V45.1058H54.716V37.6738Z" fill="white"/>
<path d="M55.9351 45.1055V37.6738H58.0334V43.4646H63.3905V45.1055H55.9351Z" fill="white"/>
<path d="M66.3913 37.6738H64.293V45.1058H66.3913V37.6738Z" fill="white"/>
<path d="M70.6347 45.1055V39.1977H67.3174V37.6738H76.0622V39.1977H72.7446V45.1055H70.6347Z" fill="white"/>
<path d="M80.2114 45.1055V42.2688L76.7886 37.6738H79.0391L81.2781 40.7801L83.5054 37.6738H85.7795L82.3213 42.2688V45.1055H80.2114Z" fill="white"/>
<path d="M93.7153 45.1055C92.6485 45.1055 91.8163 44.8009 91.2418 44.2029C90.6673 43.5933 90.3745 42.6555 90.3745 41.4013C90.3745 40.1354 90.6676 39.1974 91.2418 38.5881C91.8163 37.9785 92.6485 37.6738 93.7153 37.6738H98.2517V39.2212H94.0434C93.7153 39.2212 93.4457 39.2797 93.2463 39.3736C93.0471 39.4675 92.8828 39.6081 92.7772 39.7838C92.6601 39.9713 92.5897 40.194 92.5427 40.4635C92.5077 40.7331 92.4958 41.0497 92.4958 41.4013C92.4958 41.7413 92.5074 42.0459 92.5427 42.3274C92.5897 42.597 92.6598 42.8196 92.7772 43.0071C92.8828 43.1831 93.0468 43.3237 93.2463 43.4173C93.4457 43.5228 93.7153 43.5698 94.0434 43.5698H98.2517V45.1055H93.7153Z" fill="white"/>
<path d="M102.496 45.1055C101.417 45.1055 100.597 44.8009 100.01 44.2029C99.436 43.5933 99.1548 42.6555 99.1548 41.4013C99.1548 40.1354 99.4362 39.1974 100.01 38.5881C100.597 37.9785 101.417 37.6738 102.496 37.6738H107.02V39.1977H102.8C102.531 39.1977 102.308 39.2212 102.121 39.2916C101.945 39.362 101.793 39.4557 101.664 39.5731C101.547 39.6902 101.453 39.8426 101.382 40.0302C101.324 40.2177 101.277 40.4169 101.253 40.6514H106.973V42.0816H101.241C101.265 42.3277 101.3 42.5387 101.37 42.7263C101.429 42.9138 101.523 43.0663 101.652 43.1953C101.769 43.3243 101.921 43.4179 102.109 43.4883C102.296 43.5588 102.531 43.5938 102.8 43.5938H107.02V45.1061H102.496V45.1055Z" fill="white"/>
<path d="M114.534 45.1055V40.0653C114.534 39.8307 114.44 39.6316 114.253 39.4675C114.065 39.3035 113.819 39.2214 113.526 39.2214H110.291V45.1061H108.192V37.6738H113.702C114.639 37.6738 115.354 37.8614 115.859 38.2484C116.363 38.6234 116.609 39.1861 116.609 39.9128V45.1058H114.534V45.1055Z" fill="white"/>
<path d="M120.782 45.1055V39.1977H117.464V37.6738H126.209V39.1977H122.892V45.1055H120.782Z" fill="white"/>
<path d="M129.198 39.2212V41.1671H132.621C132.961 41.1671 133.207 41.0966 133.36 40.9679C133.5 40.8389 133.571 40.5812 133.571 40.1827C133.571 39.9835 133.547 39.831 133.512 39.7021C133.489 39.5849 133.43 39.491 133.36 39.409C133.278 39.3386 133.184 39.2919 133.055 39.2684C132.938 39.2449 132.797 39.2214 132.621 39.2214H129.198V39.2212ZM133.594 45.1055L131.836 42.6439H129.198V45.1055H127.135V37.6738H132.715C133.243 37.6738 133.7 37.7208 134.075 37.8263C134.45 37.9202 134.755 38.0724 135.001 38.2834C135.235 38.4826 135.399 38.7406 135.505 39.0571C135.61 39.3736 135.669 39.7368 135.669 40.1589C135.669 40.8036 135.54 41.3192 135.27 41.6827C135.012 42.0462 134.59 42.3039 134.005 42.468L136.079 45.1055H133.594Z" fill="white"/>
<path d="M139.913 45.1055C138.834 45.1055 138.014 44.8009 137.439 44.2029C136.865 43.5933 136.572 42.6555 136.572 41.4013C136.572 40.1354 136.865 39.1974 137.439 38.5881C138.014 37.9785 138.834 37.6738 139.913 37.6738H144.437V39.1977H140.217C139.959 39.1977 139.725 39.2212 139.549 39.2916C139.362 39.362 139.209 39.4557 139.092 39.5731C138.963 39.6902 138.87 39.8426 138.811 40.0302C138.74 40.2177 138.694 40.4169 138.67 40.6514H144.39V42.0816H138.658C138.682 42.3277 138.729 42.5387 138.787 42.7263C138.858 42.9138 138.951 43.0663 139.069 43.1953C139.186 43.3243 139.338 43.4179 139.526 43.4883C139.713 43.5588 139.948 43.5938 140.217 43.5938H144.437V45.1061H139.913V45.1055Z" fill="white"/>
</svg>
