<svg width="151" height="41" viewBox="0 0 151 41" fill="none" xmlns="http://www.w3.org/2000/svg">
<path d="M0.881693 29.6966V24.574H16.9057C17.6443 24.574 18.1716 24.445 18.5 24.1989C18.8165 23.9528 18.9806 23.5308 18.9806 22.9563C18.9806 22.4052 18.8165 22.0185 18.5 21.7959C18.1719 21.5733 17.6443 21.4678 16.9057 21.4678H8.12583C5.44135 21.4678 3.46038 20.9051 2.19451 19.768C0.916767 18.6427 0.283691 17.0249 0.283691 14.9269C0.283691 12.805 0.916767 11.2345 2.19451 10.2379C3.46038 9.22976 5.44164 8.72568 8.12583 8.72568H25.5096V13.7662H9.74359C8.94645 13.7662 8.39541 13.8717 8.06728 14.0593C7.73915 14.2584 7.57508 14.6689 7.57508 15.302C7.57508 15.935 7.73915 16.3571 8.06728 16.5678C8.39541 16.767 8.94645 16.8725 9.74359 16.8725H19.1916C20.5514 16.8725 21.6886 17.0249 22.6144 17.3296C23.5286 17.6343 24.2672 18.0682 24.8299 18.6308C25.4044 19.1935 25.8027 19.8967 26.0491 20.7173C26.2836 21.5495 26.4007 22.4873 26.4007 23.5305C26.4007 24.5856 26.2717 25.488 26.0256 26.2616C25.7676 27.0353 25.3458 27.68 24.7478 28.1841C24.1617 28.6997 23.353 29.0748 22.3564 29.3212C21.3482 29.5792 20.1175 29.6963 18.6406 29.6963H0.881693V29.6966Z" fill="#173366"/>
<path d="M39.2483 29.6966C37.5839 29.6966 36.0832 29.5091 34.7353 29.1456C33.399 28.7705 32.2384 28.1844 31.2772 27.3991C30.316 26.6138 29.5893 25.6057 29.0733 24.3865C28.5692 23.1557 28.3112 21.702 28.3112 20.0141V8.72568H36.0244V20.0141C36.0244 21.3388 36.3525 22.3936 36.9856 23.1792C37.6187 23.9644 38.826 24.363 40.6078 24.363H46.504C47.1017 24.363 47.5592 24.3746 47.8754 24.3981C48.2035 24.4332 48.5436 24.4685 48.8717 24.5271V8.72568H56.6318V29.6966H39.2483Z" fill="#173366"/>
<path d="M81.1432 13.9303C80.8032 13.9888 80.475 14.0242 80.1469 14.0358C79.8188 14.0474 79.3616 14.0593 78.7755 14.0593H72.7033C71.4607 14.0593 70.4644 14.1999 69.7026 14.4929C68.9289 14.786 68.3428 15.1727 67.9208 15.6533C67.4871 16.1339 67.2057 16.6849 67.0416 17.2826C66.8891 17.8922 66.819 18.5253 66.819 19.1935C66.819 19.85 66.8894 20.4947 67.0416 21.1159C67.2057 21.7371 67.4871 22.2881 67.9208 22.7687C68.3428 23.2493 68.9289 23.636 69.7026 23.9291C70.4647 24.2105 71.4609 24.3627 72.7033 24.3627H77.4157C78.0955 24.3627 78.67 24.2688 79.1271 24.0697C79.5961 23.8821 79.9828 23.6125 80.2759 23.2844C80.5689 22.9563 80.7916 22.5812 80.9324 22.1707C81.073 21.7487 81.1435 21.3266 81.1435 20.8814V13.9303H81.1432ZM71.6012 29.6966C67.557 29.6966 64.4977 28.8058 62.3993 27.0121C60.3128 25.2187 59.2696 22.6047 59.2696 19.1935C59.2696 15.7942 60.3128 13.2036 62.3993 11.4099C64.4977 9.61645 67.557 8.72539 71.6012 8.72539H81.1432V0.860352H88.8679V20.3074C88.8679 21.7142 88.6334 22.9919 88.1882 24.1523C87.7311 25.3126 87.0394 26.3092 86.1017 27.1298C85.1756 27.962 84.0033 28.5951 82.6085 29.0406C81.2136 29.4743 79.5608 29.6972 77.6734 29.6972H71.6012V29.6966Z" fill="#173366"/>
<path d="M112.863 29.6966V18.4082C112.863 17.7401 112.793 17.1539 112.652 16.6264C112.511 16.0988 112.265 15.6417 111.902 15.255C111.55 14.8683 111.081 14.5753 110.484 14.3642C109.897 14.1651 109.147 14.0596 108.245 14.0596H101.833C101.27 14.0596 100.824 14.048 100.496 14.0361C100.18 14.0245 99.8282 13.9891 99.4647 13.9306V29.6969H91.7866V0.860352H99.4647V8.72597H109.593C111.234 8.72597 112.734 8.91352 114.094 9.30049C115.454 9.68718 116.603 10.2733 117.552 11.0588C118.49 11.8441 119.229 12.8407 119.756 14.0596C120.272 15.2788 120.541 16.7206 120.541 18.4085V29.6969H112.863V29.6966Z" fill="#173366"/>
<path d="M142.626 20.8817H131.642C130.915 20.8817 130.399 21.0457 130.118 21.3857C129.837 21.7139 129.696 22.171 129.696 22.7455C129.696 23.3551 129.837 23.8122 130.118 24.1288C130.4 24.4569 130.915 24.6094 131.642 24.6094H142.626V20.8817ZM129.063 29.6966C127.867 29.6966 126.871 29.5325 126.05 29.2044C125.23 28.8763 124.562 28.4073 124.058 27.7977C123.542 27.1881 123.19 26.4848 122.979 25.6877C122.757 24.8906 122.651 23.9998 122.651 23.0386C122.651 22.1009 122.757 21.2568 122.979 20.495C123.19 19.7329 123.542 19.0882 124.058 18.5491C124.562 18.0099 125.23 17.5995 126.05 17.3299C126.871 17.0484 127.867 16.9197 129.063 16.9197H142.414C142.192 15.677 141.746 14.8448 141.078 14.4112C140.41 13.9891 139.332 13.7665 137.831 13.7665H123.506V8.72568H138.511C140.55 8.72568 142.297 8.91322 143.75 9.27672C145.204 9.65181 146.411 10.2495 147.349 11.082C148.299 11.9027 148.99 12.9929 149.436 14.3292C149.869 15.6655 150.092 17.3067 150.092 19.2291V29.6969H129.063V29.6966Z" fill="#173366"/>
<path d="M13.0374 37.2926V40.1058H10.939V35.9094C10.939 34.8076 11.2205 33.987 11.7947 33.4594C12.3692 32.9318 13.1896 32.6741 14.2798 32.6741H18.7928V34.2215H14.5966C14.2801 34.2215 14.034 34.2565 13.8345 34.327C13.6354 34.3974 13.471 34.5029 13.3539 34.6316C13.2368 34.7722 13.1548 34.9247 13.1194 35.1122C13.0725 35.2998 13.0374 35.5108 13.0374 35.7334H18.8046V37.2923H13.0374V37.2926Z" fill="#173366"/>
<path d="M23.0014 40.1058C21.9231 40.1058 21.1024 39.8012 20.5279 39.2032C19.9534 38.5936 19.6603 37.6558 19.6603 36.4016C19.6603 35.1357 19.9534 34.1977 20.5279 33.5884C21.1024 32.9788 21.9228 32.6741 23.0014 32.6741H27.5262V34.198H23.306C23.048 34.198 22.8254 34.2215 22.6379 34.2919C22.4503 34.3623 22.2979 34.456 22.1808 34.5734C22.0637 34.6905 21.9697 34.8429 21.8993 35.0305C21.8289 35.218 21.7822 35.4172 21.7587 35.6517H27.479V37.0819H21.7471C21.7706 37.328 21.8176 37.539 21.8761 37.7266C21.9465 37.9141 22.0402 38.0666 22.1576 38.1956C22.2747 38.3246 22.4271 38.4182 22.6147 38.4886C22.8022 38.5591 23.0367 38.5941 23.3063 38.5941H27.5262V40.1064H23.0014V40.1058Z" fill="#173366"/>
<path d="M30.7731 34.2215V36.1674H34.1843C34.5359 36.1674 34.782 36.0969 34.9228 35.9682C35.0634 35.8392 35.1339 35.5815 35.1339 35.183C35.1339 34.9838 35.1223 34.8313 35.0869 34.7024C35.0518 34.5852 34.993 34.4913 34.9228 34.4093C34.8524 34.3389 34.7469 34.2922 34.6298 34.2687C34.5127 34.2452 34.3602 34.2217 34.1843 34.2217H30.7731V34.2215ZM35.1571 40.1058L33.3987 37.6442H30.7731V40.1058H28.6982V32.6741H34.2779C34.817 32.6741 35.2742 32.7211 35.6493 32.8266C36.0244 32.9205 36.329 33.0727 36.5635 33.2837C36.798 33.4829 36.9737 33.7409 37.0792 34.0574C37.1847 34.3739 37.2317 34.7371 37.2317 35.1592C37.2317 35.8039 37.1027 36.3195 36.845 36.683C36.5754 37.0465 36.1533 37.3042 35.5791 37.4683L37.6421 40.1058H35.1571Z" fill="#173366"/>
<path d="M41.2643 40.1058V34.198H37.947V32.6741H46.6915V34.198H43.3743V40.1058H41.2643Z" fill="#173366"/>
<path d="M49.716 32.6741H47.6177V40.1061H49.716V32.6741Z" fill="#173366"/>
<path d="M50.9349 40.1058V32.6741H53.0333V38.4649H58.3904V40.1058H50.9349Z" fill="#173366"/>
<path d="M61.3915 32.6741H59.2931V40.1061H61.3915V32.6741Z" fill="#173366"/>
<path d="M65.6345 40.1058V34.198H62.3173V32.6741H71.0621V34.198H67.7445V40.1058H65.6345Z" fill="#173366"/>
<path d="M75.2116 40.1058V37.2692L71.7888 32.6741H74.0394L76.2783 35.7804L78.5057 32.6741H80.7797L77.3216 37.2692V40.1058H75.2116Z" fill="#173366"/>
<path d="M88.7154 40.1058C87.6487 40.1058 86.8165 39.8012 86.242 39.2032C85.6675 38.5936 85.3747 37.6558 85.3747 36.4016C85.3747 35.1357 85.6678 34.1977 86.242 33.5884C86.8165 32.9788 87.6487 32.6741 88.7154 32.6741H93.2519V34.2215H89.0436C88.7154 34.2215 88.4459 34.28 88.2464 34.3739C88.0473 34.4678 87.8829 34.6084 87.7774 34.7841C87.6603 34.9716 87.5899 35.1943 87.5429 35.4638C87.5078 35.7334 87.496 36.05 87.496 36.4016C87.496 36.7416 87.5076 37.0462 87.5429 37.3277C87.5899 37.5973 87.66 37.8199 87.7774 38.0074C87.8829 38.1834 88.047 38.324 88.2464 38.4176C88.4459 38.5231 88.7154 38.5701 89.0436 38.5701H93.2519V40.1058H88.7154Z" fill="#173366"/>
<path d="M97.4953 40.1058C96.417 40.1058 95.5964 39.8012 95.0102 39.2032C94.4357 38.5936 94.1545 37.6558 94.1545 36.4016C94.1545 35.1357 94.436 34.1977 95.0102 33.5884C95.5964 32.9788 96.417 32.6741 97.4953 32.6741H102.02V34.198H97.8002C97.5307 34.198 97.308 34.2215 97.1205 34.2919C96.9445 34.3623 96.7924 34.456 96.6634 34.5734C96.5463 34.6905 96.4523 34.8429 96.3819 35.0305C96.3234 35.218 96.2764 35.4172 96.2529 35.6517H101.973V37.0819H96.241C96.2645 37.328 96.2996 37.539 96.37 37.7266C96.4286 37.9141 96.5225 38.0666 96.6515 38.1956C96.7686 38.3246 96.9211 38.4182 97.1086 38.4886C97.2962 38.5591 97.5307 38.5941 97.8002 38.5941H102.02V40.1064H97.4953V40.1058Z" fill="#173366"/>
<path d="M109.534 40.1058V35.0656C109.534 34.8311 109.44 34.6319 109.253 34.4678C109.065 34.3038 108.819 34.2217 108.526 34.2217H105.291V40.1064H103.192V32.6741H108.702C109.639 32.6741 110.355 32.8617 110.859 33.2487C111.363 33.6237 111.609 34.1864 111.609 34.9131V40.1061H109.534V40.1058Z" fill="#173366"/>
<path d="M115.782 40.1058V34.198H112.464V32.6741H121.209V34.198H117.892V40.1058H115.782Z" fill="#173366"/>
<path d="M124.198 34.2215V36.1674H127.621C127.961 36.1674 128.207 36.0969 128.36 35.9682C128.5 35.8392 128.571 35.5815 128.571 35.183C128.571 34.9838 128.547 34.8313 128.512 34.7024C128.489 34.5852 128.43 34.4913 128.36 34.4093C128.278 34.3389 128.184 34.2922 128.055 34.2687C127.938 34.2452 127.797 34.2217 127.621 34.2217H124.198V34.2215ZM128.594 40.1058L126.836 37.6442H124.198V40.1058H122.135V32.6741H127.715C128.243 32.6741 128.7 32.7211 129.075 32.8266C129.45 32.9205 129.755 33.0727 130.001 33.2837C130.236 33.4829 130.4 33.7409 130.505 34.0574C130.611 34.3739 130.669 34.7371 130.669 35.1592C130.669 35.8039 130.54 36.3195 130.271 36.683C130.013 37.0465 129.591 37.3042 129.005 37.4683L131.08 40.1058H128.594Z" fill="#173366"/>
<path d="M134.913 40.1058C133.834 40.1058 133.014 39.8012 132.439 39.2032C131.865 38.5936 131.572 37.6558 131.572 36.4016C131.572 35.1357 131.865 34.1977 132.439 33.5884C133.014 32.9788 133.834 32.6741 134.913 32.6741H139.437V34.198H135.218C134.96 34.198 134.725 34.2215 134.549 34.2919C134.362 34.3623 134.209 34.456 134.092 34.5734C133.963 34.6905 133.87 34.8429 133.811 35.0305C133.74 35.218 133.694 35.4172 133.67 35.6517H139.39V37.0819H133.658C133.682 37.328 133.729 37.539 133.787 37.7266C133.858 37.9141 133.951 38.0666 134.069 38.1956C134.186 38.3246 134.338 38.4182 134.526 38.4886C134.713 38.5591 134.948 38.5941 135.218 38.5941H139.437V40.1064H134.913V40.1058Z" fill="#173366"/>
</svg>
