<svg width="26" height="26" viewBox="0 0 26 26" fill="none" xmlns="http://www.w3.org/2000/svg">
<path d="M24.25 8V18C24.25 19.6576 23.5915 21.2473 22.4194 22.4194C21.2473 23.5915 19.6576 24.25 18 24.25H8C6.3424 24.25 4.75269 23.5915 3.58058 22.4194C2.40848 21.2473 1.75 19.6576 1.75 18V8C1.75 6.3424 2.40848 4.75269 3.58058 3.58058C4.75269 2.40848 6.3424 1.75 8 1.75H18C19.6576 1.75 21.2473 2.40848 22.4194 3.58058C23.5915 4.75269 24.25 6.3424 24.25 8Z" stroke="black" stroke-width="2" stroke-linecap="round" stroke-linejoin="round"/>
<path d="M11.75 24.25V13C11.75 10.2662 12.375 8 16.75 8M9.25 14.25H16.75" stroke="black" stroke-width="2" stroke-linecap="round" stroke-linejoin="round"/>
</svg>
