<svg width="30" height="30" viewBox="0 0 30 30" fill="none" xmlns="http://www.w3.org/2000/svg">
<path d="M20 8.75C20 8.41848 20.1317 8.10054 20.3661 7.86612C20.6005 7.6317 20.9185 7.5 21.25 7.5C21.5815 7.5 21.8995 7.6317 22.1339 7.86612C22.3683 8.10054 22.5 8.41848 22.5 8.75C22.5 9.08152 22.3683 9.39946 22.1339 9.63388C21.8995 9.8683 21.5815 10 21.25 10C20.9185 10 20.6005 9.8683 20.3661 9.63388C20.1317 9.39946 20 9.08152 20 8.75Z" fill="black"/>
<path fill-rule="evenodd" clip-rule="evenodd" d="M15 9.0625C13.4253 9.0625 11.9151 9.68806 10.8016 10.8016C9.68806 11.9151 9.0625 13.4253 9.0625 15C9.0625 16.5747 9.68806 18.0849 10.8016 19.1984C11.9151 20.3119 13.4253 20.9375 15 20.9375C16.5747 20.9375 18.0849 20.3119 19.1984 19.1984C20.3119 18.0849 20.9375 16.5747 20.9375 15C20.9375 13.4253 20.3119 11.9151 19.1984 10.8016C18.0849 9.68806 16.5747 9.0625 15 9.0625ZM10.9375 15C10.9375 13.9226 11.3655 12.8892 12.1274 12.1274C12.8892 11.3655 13.9226 10.9375 15 10.9375C16.0774 10.9375 17.1108 11.3655 17.8726 12.1274C18.6345 12.8892 19.0625 13.9226 19.0625 15C19.0625 16.0774 18.6345 17.1108 17.8726 17.8726C17.1108 18.6345 16.0774 19.0625 15 19.0625C13.9226 19.0625 12.8892 18.6345 12.1274 17.8726C11.3655 17.1108 10.9375 16.0774 10.9375 15Z" fill="black"/>
<path fill-rule="evenodd" clip-rule="evenodd" d="M21.5735 3.54109C17.2052 3.05662 12.7968 3.05662 8.42849 3.54109C5.91349 3.82234 3.88224 5.80359 3.58724 8.33109C3.06988 12.7619 3.06988 17.2378 3.58724 21.6686C3.88224 24.1961 5.91224 26.1773 8.42849 26.4586C12.7968 26.942 17.2052 26.942 21.5735 26.4586C24.0885 26.1773 26.1197 24.1961 26.4147 21.6686C26.9321 17.2378 26.9321 12.7619 26.4147 8.33109C26.1197 5.80359 24.0897 3.82234 21.5735 3.54109ZM8.63599 5.40359C12.8664 4.93447 17.1356 4.93447 21.366 5.40359C23.0285 5.59109 24.3597 6.90234 24.5535 8.54984C25.0549 12.8352 25.0549 17.1645 24.5535 21.4498C24.4533 22.2561 24.0842 23.0051 23.5058 23.5758C22.9274 24.1464 22.1736 24.5055 21.366 24.5948C17.1356 25.064 12.8664 25.064 8.63599 24.5948C7.82842 24.5055 7.07456 24.1464 6.49619 23.5758C5.91781 23.0051 5.54871 22.2561 5.44849 21.4498C4.94706 17.1645 4.94706 12.8352 5.44849 8.54984C5.54871 7.74354 5.91781 6.99456 6.49619 6.4239C7.07456 5.85324 7.82842 5.49297 8.63599 5.40359Z" fill="black"/>
</svg>
