<svg width="30" height="30" viewBox="0 0 30 30" fill="none" xmlns="http://www.w3.org/2000/svg">
<path d="M20.6941 16.1325L20.1254 16.6987C20.1254 16.6987 18.7716 18.0437 15.0779 14.3712C11.3841 10.6987 12.7379 9.35372 12.7379 9.35372L13.0954 8.99622C13.9791 8.11872 14.0629 6.70872 13.2916 5.67872L11.7166 3.57497C10.7616 2.29997 8.91787 2.13122 7.82412 3.21872L5.86162 5.16872C5.32037 5.70872 4.95787 6.40622 5.00162 7.18122C5.11412 9.16497 6.01162 13.4312 11.0166 18.4087C16.3254 23.6862 21.3066 23.8962 23.3429 23.7062C23.9879 23.6462 24.5479 23.3187 24.9991 22.8687L26.7741 21.1037C27.9741 19.9125 27.6366 17.8687 26.1016 17.035L23.7141 15.7362C22.7066 15.19 21.4816 15.35 20.6941 16.1325Z" fill="#173366"/>
</svg>
