<svg width="30" height="30" viewBox="0 0 30 30" fill="none" xmlns="http://www.w3.org/2000/svg">
<g clip-path="url(#clip0_251_1570)">
<path d="M0.635392 14.8204C0.634695 17.341 1.2933 19.8021 2.54562 21.9714L0.515625 29.3833L8.10074 27.3944C10.1987 28.5365 12.5493 29.135 14.938 29.1351H14.9442C22.8297 29.1351 29.2486 22.7185 29.252 14.8316C29.2535 11.0099 27.7666 7.41618 25.0649 4.71246C22.3638 2.00897 18.7713 0.519322 14.9436 0.517578C7.05725 0.517578 0.638765 6.93386 0.635509 14.8204" fill="url(#paint0_linear_251_1570)"/>
<path d="M0.124419 14.8158C0.123605 17.4271 0.805814 19.9763 2.10279 22.2233L0 29.9008L7.85709 27.8407C10.022 29.021 12.4594 29.6434 14.9397 29.6443H14.946C23.1144 29.6443 29.764 22.9969 29.7674 14.8277C29.7688 10.8686 28.2284 7.1457 25.4302 4.34512C22.6317 1.54488 18.9108 0.00162791 14.946 0C6.77628 0 0.127674 6.64651 0.124419 14.8158ZM4.8036 21.8363L4.51023 21.3706C3.27698 19.4097 2.62605 17.1436 2.62698 14.8167C2.62953 8.02663 8.15558 2.50233 14.9507 2.50233C18.2414 2.50372 21.334 3.78651 23.66 6.11395C25.9859 8.44163 27.2658 11.5358 27.265 14.8267C27.262 21.6169 21.7358 27.1419 14.946 27.1419H14.9412C12.7303 27.1407 10.5621 26.547 8.67116 25.425L8.22116 25.1581L3.5586 26.3806L4.8036 21.8363Z" fill="url(#paint1_linear_251_1570)"/>
<path d="M11.2408 8.62213C10.9634 8.00551 10.6714 7.99306 10.4076 7.98225C10.1915 7.97295 9.94453 7.97364 9.69778 7.97364C9.45081 7.97364 9.04953 8.06655 8.71034 8.4369C8.37081 8.8076 7.41406 9.70341 7.41406 11.5254C7.41406 13.3474 8.74116 15.1083 8.92616 15.3556C9.11139 15.6025 11.4881 19.4611 15.2523 20.9455C18.3807 22.1791 19.0173 21.9338 19.6963 21.8719C20.3753 21.8103 21.8874 20.9763 22.1959 20.1116C22.5046 19.2469 22.5046 18.5057 22.4121 18.3509C22.3195 18.1966 22.0725 18.1039 21.7022 17.9188C21.3319 17.7336 19.511 16.8376 19.1716 16.714C18.8321 16.5905 18.5852 16.5289 18.3382 16.8997C18.0913 17.2699 17.3821 18.1039 17.1659 18.3509C16.95 18.5984 16.7338 18.6292 16.3636 18.444C15.993 18.2582 14.8003 17.8676 13.3853 16.6061C12.2844 15.6245 11.5412 14.4122 11.3251 14.0414C11.1091 13.6712 11.302 13.4705 11.4877 13.286C11.6541 13.12 11.8581 12.8535 12.0435 12.6374C12.2281 12.4211 12.2898 12.2668 12.4132 12.0198C12.5369 11.7726 12.475 11.5563 12.3826 11.3711C12.2898 11.1859 11.5701 9.35434 11.2408 8.62213Z" fill="white"/>
</g>
<defs>
<linearGradient id="paint0_linear_251_1570" x1="1437.34" y1="2887.09" x2="1437.34" y2="0.517578" gradientUnits="userSpaceOnUse">
<stop stop-color="#1FAF38"/>
<stop offset="1" stop-color="#60D669"/>
</linearGradient>
<linearGradient id="paint1_linear_251_1570" x1="1488.37" y1="2990.08" x2="1488.37" y2="0" gradientUnits="userSpaceOnUse">
<stop stop-color="#F9F9F9"/>
<stop offset="1" stop-color="white"/>
</linearGradient>
<clipPath id="clip0_251_1570">
<rect width="29.7674" height="30" fill="white"/>
</clipPath>
</defs>
</svg>
